{
	"patcher" : 	{
		"fileversion" : 1,
		"rect" : [ 87.0, 48.0, 1287.0, 814.0 ],
		"bglocked" : 0,
		"defrect" : [ 87.0, 48.0, 1287.0, 814.0 ],
		"openrect" : [ 0.0, 0.0, 0.0, 0.0 ],
		"openinpresentation" : 1,
		"default_fontsize" : 12.0,
		"default_fontface" : 0,
		"default_fontname" : "Arial",
		"gridonopen" : 0,
		"gridsize" : [ 15.0, 15.0 ],
		"gridsnaponopen" : 0,
		"toolbarvisible" : 1,
		"boxanimatetime" : 200,
		"imprint" : 0,
		"metadata" : [  ],
		"boxes" : [ 			{
				"box" : 				{
					"maxclass" : "newobj",
					"text" : "loadmess 1",
					"patching_rect" : [ 165.0, 478.0, 62.0, 18.0 ],
					"outlettype" : [ "" ],
					"fontname" : "Arial",
					"id" : "obj-72",
					"numinlets" : 1,
					"fontsize" : 10.0,
					"numoutlets" : 1
				}

			}
, 			{
				"box" : 				{
					"maxclass" : "newobj",
					"text" : "loadmess 1",
					"patching_rect" : [ 100.0, 870.0, 62.0, 18.0 ],
					"outlettype" : [ "" ],
					"fontname" : "Arial",
					"id" : "obj-71",
					"numinlets" : 1,
					"fontsize" : 10.0,
					"numoutlets" : 1
				}

			}
, 			{
				"box" : 				{
					"maxclass" : "flonum",
					"patching_rect" : [ 166.0, 269.0, 29.0, 17.0 ],
					"outlettype" : [ "float", "bang" ],
					"presentation" : 1,
					"triscale" : 0.9,
					"fontname" : "Arial",
					"id" : "obj-1",
					"numinlets" : 1,
					"presentation_rect" : [ 88.0, 78.0, 29.0, 17.0 ],
					"hbgcolor" : [ 1.0, 1.0, 1.0, 1.0 ],
					"minimum" : 0.0,
					"triangle" : 0,
					"fontsize" : 9.0,
					"numoutlets" : 2,
					"htextcolor" : [ 0.627451, 0.0, 0.0, 1.0 ]
				}

			}
, 			{
				"box" : 				{
					"maxclass" : "message",
					"text" : "2",
					"patching_rect" : [ 186.0, 161.0, 16.0, 15.0 ],
					"outlettype" : [ "" ],
					"presentation" : 1,
					"fontname" : "Arial",
					"id" : "obj-2",
					"numinlets" : 2,
					"presentation_rect" : [ 51.0, 78.0, 16.0, 15.0 ],
					"fontsize" : 9.0,
					"numoutlets" : 1
				}

			}
, 			{
				"box" : 				{
					"maxclass" : "message",
					"text" : "0.5",
					"patching_rect" : [ 182.0, 132.0, 22.0, 15.0 ],
					"outlettype" : [ "" ],
					"presentation" : 1,
					"fontname" : "Arial",
					"id" : "obj-3",
					"numinlets" : 2,
					"presentation_rect" : [ 30.0, 64.0, 22.0, 15.0 ],
					"fontsize" : 9.0,
					"numoutlets" : 1
				}

			}
, 			{
				"box" : 				{
					"maxclass" : "message",
					"text" : "0.25",
					"patching_rect" : [ 156.0, 132.0, 29.0, 15.0 ],
					"outlettype" : [ "" ],
					"presentation" : 1,
					"fontname" : "Arial",
					"id" : "obj-4",
					"numinlets" : 2,
					"presentation_rect" : [ 4.0, 64.0, 29.0, 15.0 ],
					"fontsize" : 9.0,
					"numoutlets" : 1
				}

			}
, 			{
				"box" : 				{
					"maxclass" : "message",
					"text" : "1.4",
					"patching_rect" : [ 139.0, 161.0, 21.0, 15.0 ],
					"outlettype" : [ "" ],
					"presentation" : 1,
					"fontname" : "Arial",
					"id" : "obj-5",
					"numinlets" : 2,
					"presentation_rect" : [ 4.0, 78.0, 21.0, 15.0 ],
					"fontsize" : 9.0,
					"numoutlets" : 1
				}

			}
, 			{
				"box" : 				{
					"maxclass" : "message",
					"text" : "1",
					"patching_rect" : [ 229.0, 132.0, 16.0, 15.0 ],
					"outlettype" : [ "" ],
					"presentation" : 1,
					"fontname" : "Arial",
					"id" : "obj-6",
					"numinlets" : 2,
					"presentation_rect" : [ 77.0, 64.0, 16.0, 15.0 ],
					"fontsize" : 9.0,
					"numoutlets" : 1
				}

			}
, 			{
				"box" : 				{
					"maxclass" : "message",
					"text" : "100",
					"patching_rect" : [ 198.0, 161.0, 26.0, 15.0 ],
					"outlettype" : [ "" ],
					"presentation" : 1,
					"fontname" : "Arial",
					"id" : "obj-7",
					"numinlets" : 2,
					"presentation_rect" : [ 63.0, 78.0, 26.0, 15.0 ],
					"fontsize" : 9.0,
					"numoutlets" : 1
				}

			}
, 			{
				"box" : 				{
					"maxclass" : "message",
					"text" : "1.8",
					"patching_rect" : [ 159.0, 161.0, 29.0, 15.0 ],
					"outlettype" : [ "" ],
					"presentation" : 1,
					"fontname" : "Arial",
					"id" : "obj-8",
					"numinlets" : 2,
					"presentation_rect" : [ 24.0, 78.0, 29.0, 15.0 ],
					"fontsize" : 9.0,
					"numoutlets" : 1
				}

			}
, 			{
				"box" : 				{
					"maxclass" : "message",
					"text" : "1.25",
					"patching_rect" : [ 241.0, 132.0, 28.0, 15.0 ],
					"outlettype" : [ "" ],
					"presentation" : 1,
					"fontname" : "Arial",
					"id" : "obj-9",
					"numinlets" : 2,
					"presentation_rect" : [ 89.0, 64.0, 28.0, 15.0 ],
					"fontsize" : 9.0,
					"numoutlets" : 1
				}

			}
, 			{
				"box" : 				{
					"maxclass" : "message",
					"text" : "0.75",
					"patching_rect" : [ 203.0, 132.0, 27.0, 15.0 ],
					"outlettype" : [ "" ],
					"presentation" : 1,
					"fontname" : "Arial",
					"id" : "obj-10",
					"numinlets" : 2,
					"presentation_rect" : [ 51.0, 64.0, 27.0, 15.0 ],
					"fontsize" : 9.0,
					"numoutlets" : 1
				}

			}
, 			{
				"box" : 				{
					"maxclass" : "newobj",
					"text" : "/ 64.",
					"patching_rect" : [ -48.0, -64.0, 32.0, 17.0 ],
					"outlettype" : [ "float" ],
					"fontname" : "Arial",
					"id" : "obj-11",
					"numinlets" : 2,
					"fontsize" : 9.0,
					"numoutlets" : 1
				}

			}
, 			{
				"box" : 				{
					"maxclass" : "comment",
					"text" : "FEEDB/CUT",
					"presentation_linecount" : 2,
					"patching_rect" : [ 179.0, 594.0, 63.0, 17.0 ],
					"presentation" : 1,
					"fontname" : "Arial",
					"id" : "obj-12",
					"numinlets" : 1,
					"presentation_rect" : [ 61.0, 112.0, 55.0, 27.0 ],
					"fontsize" : 9.0,
					"numoutlets" : 0
				}

			}
, 			{
				"box" : 				{
					"maxclass" : "comment",
					"text" : "FEED",
					"patching_rect" : [ 302.0, 288.0, 39.0, 17.0 ],
					"presentation" : 1,
					"fontname" : "Arial",
					"id" : "obj-13",
					"numinlets" : 1,
					"presentation_rect" : [ 30.0, 92.0, 37.0, 17.0 ],
					"fontsize" : 9.0,
					"numoutlets" : 0
				}

			}
, 			{
				"box" : 				{
					"maxclass" : "comment",
					"text" : "DEL",
					"patching_rect" : [ 180.0, 330.0, 27.0, 17.0 ],
					"presentation" : 1,
					"fontname" : "Arial",
					"id" : "obj-14",
					"numinlets" : 1,
					"presentation_rect" : [ 4.0, 92.0, 27.0, 17.0 ],
					"fontsize" : 9.0,
					"numoutlets" : 0
				}

			}
, 			{
				"box" : 				{
					"maxclass" : "comment",
					"text" : "GAIN",
					"presentation_linecount" : 2,
					"patching_rect" : [ 75.0, 890.0, 31.0, 17.0 ],
					"presentation" : 1,
					"fontname" : "Arial",
					"id" : "obj-15",
					"numinlets" : 1,
					"presentation_rect" : [ 86.0, 36.0, 27.0, 27.0 ],
					"fontsize" : 9.0,
					"numoutlets" : 0
				}

			}
, 			{
				"box" : 				{
					"maxclass" : "comment",
					"text" : "FEED",
					"patching_rect" : [ 49.0, 281.0, 37.0, 17.0 ],
					"presentation" : 1,
					"fontname" : "Arial",
					"id" : "obj-16",
					"numinlets" : 1,
					"presentation_rect" : [ 43.0, 36.0, 33.0, 17.0 ],
					"fontsize" : 9.0,
					"numoutlets" : 0
				}

			}
, 			{
				"box" : 				{
					"maxclass" : "flonum",
					"patching_rect" : [ -99.0, 213.0, 29.0, 17.0 ],
					"outlettype" : [ "float", "bang" ],
					"presentation" : 1,
					"triscale" : 0.9,
					"fontname" : "Arial",
					"id" : "obj-17",
					"numinlets" : 1,
					"presentation_rect" : [ 88.0, 18.0, 29.0, 17.0 ],
					"hbgcolor" : [ 1.0, 1.0, 1.0, 1.0 ],
					"minimum" : 0.0,
					"triangle" : 0,
					"fontsize" : 9.0,
					"numoutlets" : 2,
					"htextcolor" : [ 0.627451, 0.0, 0.0, 1.0 ]
				}

			}
, 			{
				"box" : 				{
					"maxclass" : "message",
					"text" : "2",
					"patching_rect" : [ -85.0, 114.0, 16.0, 15.0 ],
					"outlettype" : [ "" ],
					"presentation" : 1,
					"fontname" : "Arial",
					"id" : "obj-18",
					"numinlets" : 2,
					"presentation_rect" : [ 51.0, 18.0, 16.0, 15.0 ],
					"fontsize" : 9.0,
					"numoutlets" : 1
				}

			}
, 			{
				"box" : 				{
					"maxclass" : "message",
					"text" : "0.5",
					"patching_rect" : [ -106.0, 100.0, 22.0, 15.0 ],
					"outlettype" : [ "" ],
					"presentation" : 1,
					"fontname" : "Arial",
					"id" : "obj-19",
					"numinlets" : 2,
					"presentation_rect" : [ 30.0, 4.0, 22.0, 15.0 ],
					"fontsize" : 9.0,
					"numoutlets" : 1
				}

			}
, 			{
				"box" : 				{
					"maxclass" : "message",
					"text" : "0.25",
					"patching_rect" : [ -132.0, 100.0, 29.0, 15.0 ],
					"outlettype" : [ "" ],
					"presentation" : 1,
					"fontname" : "Arial",
					"id" : "obj-20",
					"numinlets" : 2,
					"presentation_rect" : [ 4.0, 4.0, 29.0, 15.0 ],
					"fontsize" : 9.0,
					"numoutlets" : 1
				}

			}
, 			{
				"box" : 				{
					"maxclass" : "newobj",
					"text" : "r masterquant",
					"patching_rect" : [ -48.0, -126.0, 72.0, 17.0 ],
					"outlettype" : [ "" ],
					"fontname" : "Arial",
					"id" : "obj-21",
					"numinlets" : 0,
					"fontsize" : 9.0,
					"numoutlets" : 1
				}

			}
, 			{
				"box" : 				{
					"maxclass" : "flonum",
					"maximum" : 1.5,
					"patching_rect" : [ 100.0, 913.0, 30.0, 17.0 ],
					"outlettype" : [ "float", "bang" ],
					"presentation" : 1,
					"triscale" : 0.9,
					"fontname" : "Arial",
					"id" : "obj-22",
					"numinlets" : 1,
					"presentation_rect" : [ 87.0, 47.0, 30.0, 17.0 ],
					"hbgcolor" : [ 1.0, 1.0, 1.0, 1.0 ],
					"minimum" : 0.0,
					"triangle" : 0,
					"fontsize" : 9.0,
					"numoutlets" : 2,
					"htextcolor" : [ 0.627451, 0.0, 0.0, 1.0 ]
				}

			}
, 			{
				"box" : 				{
					"maxclass" : "newobj",
					"text" : "send~ dm_bussmain_r",
					"patching_rect" : [ 130.0, 988.0, 108.0, 17.0 ],
					"fontname" : "Arial",
					"id" : "obj-23",
					"numinlets" : 1,
					"fontsize" : 9.0,
					"numoutlets" : 0
				}

			}
, 			{
				"box" : 				{
					"maxclass" : "newobj",
					"text" : "send~ dm_bussmain_l",
					"patching_rect" : [ 10.0, 988.0, 105.0, 17.0 ],
					"fontname" : "Arial",
					"id" : "obj-24",
					"numinlets" : 1,
					"fontsize" : 9.0,
					"numoutlets" : 0
				}

			}
, 			{
				"box" : 				{
					"maxclass" : "newobj",
					"text" : "*~ 1.",
					"patching_rect" : [ 130.0, 946.0, 33.0, 17.0 ],
					"outlettype" : [ "signal" ],
					"fontname" : "Arial",
					"id" : "obj-25",
					"numinlets" : 2,
					"fontsize" : 9.0,
					"numoutlets" : 1
				}

			}
, 			{
				"box" : 				{
					"maxclass" : "newobj",
					"text" : "*~ 1.",
					"patching_rect" : [ 10.0, 944.0, 33.0, 17.0 ],
					"outlettype" : [ "signal" ],
					"fontname" : "Arial",
					"id" : "obj-26",
					"numinlets" : 2,
					"fontsize" : 9.0,
					"numoutlets" : 1
				}

			}
, 			{
				"box" : 				{
					"maxclass" : "button",
					"patching_rect" : [ 432.0, 127.0, 15.0, 15.0 ],
					"outlettype" : [ "bang" ],
					"id" : "obj-27",
					"numinlets" : 1,
					"numoutlets" : 1
				}

			}
, 			{
				"box" : 				{
					"maxclass" : "button",
					"patching_rect" : [ 404.0, 241.0, 15.0, 15.0 ],
					"outlettype" : [ "bang" ],
					"id" : "obj-28",
					"numinlets" : 1,
					"numoutlets" : 1
				}

			}
, 			{
				"box" : 				{
					"maxclass" : "message",
					"text" : "0.3",
					"patching_rect" : [ 424.0, 194.0, 23.0, 15.0 ],
					"outlettype" : [ "" ],
					"fontname" : "Arial",
					"id" : "obj-29",
					"numinlets" : 2,
					"fontsize" : 9.0,
					"numoutlets" : 1
				}

			}
, 			{
				"box" : 				{
					"maxclass" : "newobj",
					"text" : "delay 200",
					"patching_rect" : [ 424.0, 158.0, 53.0, 17.0 ],
					"outlettype" : [ "bang" ],
					"fontname" : "Arial",
					"id" : "obj-30",
					"numinlets" : 2,
					"fontsize" : 9.0,
					"numoutlets" : 1
				}

			}
, 			{
				"box" : 				{
					"maxclass" : "message",
					"text" : "0.99",
					"patching_rect" : [ 454.0, 105.0, 38.0, 15.0 ],
					"outlettype" : [ "" ],
					"fontname" : "Arial",
					"id" : "obj-31",
					"numinlets" : 2,
					"fontsize" : 9.0,
					"numoutlets" : 1
				}

			}
, 			{
				"box" : 				{
					"maxclass" : "message",
					"text" : "0",
					"patching_rect" : [ 424.0, 100.0, 16.0, 15.0 ],
					"outlettype" : [ "" ],
					"fontname" : "Arial",
					"id" : "obj-32",
					"numinlets" : 2,
					"fontsize" : 9.0,
					"numoutlets" : 1
				}

			}
, 			{
				"box" : 				{
					"maxclass" : "newobj",
					"text" : "select 0 127",
					"patching_rect" : [ 431.0, 73.0, 65.0, 17.0 ],
					"outlettype" : [ "bang", "bang", "" ],
					"fontname" : "Arial",
					"id" : "obj-33",
					"numinlets" : 1,
					"fontsize" : 9.0,
					"numoutlets" : 3
				}

			}
, 			{
				"box" : 				{
					"maxclass" : "newobj",
					"text" : "r fullfeed",
					"patching_rect" : [ 431.0, 42.0, 50.0, 17.0 ],
					"outlettype" : [ "" ],
					"fontname" : "Arial",
					"id" : "obj-34",
					"numinlets" : 0,
					"fontsize" : 9.0,
					"numoutlets" : 1
				}

			}
, 			{
				"box" : 				{
					"maxclass" : "multislider",
					"patching_rect" : [ 163.0, 612.0, 55.0, 14.0 ],
					"outlettype" : [ "", "" ],
					"presentation" : 1,
					"setstyle" : 1,
					"orientation" : 0,
					"id" : "obj-35",
					"numinlets" : 1,
					"presentation_rect" : [ 62.0, 124.0, 55.0, 14.0 ],
					"peakcolor" : [ 0.498039, 0.498039, 0.498039, 1.0 ],
					"setminmax" : [ 0.0, 1.0 ],
					"numoutlets" : 2,
					"contdata" : 1
				}

			}
, 			{
				"box" : 				{
					"maxclass" : "multislider",
					"varname" : "feed",
					"patching_rect" : [ 274.0, 215.0, 57.0, 14.0 ],
					"outlettype" : [ "", "" ],
					"presentation" : 1,
					"setstyle" : 1,
					"orientation" : 0,
					"id" : "obj-36",
					"numinlets" : 1,
					"presentation_rect" : [ 4.0, 124.0, 57.0, 14.0 ],
					"peakcolor" : [ 0.498039, 0.498039, 0.498039, 1.0 ],
					"setminmax" : [ 0.0, 1.0 ],
					"numoutlets" : 2,
					"contdata" : 1
				}

			}
, 			{
				"box" : 				{
					"maxclass" : "flonum",
					"patching_rect" : [ 428.0, 16.0, 69.0, 17.0 ],
					"outlettype" : [ "float", "bang" ],
					"triscale" : 0.9,
					"fontname" : "Arial",
					"id" : "obj-37",
					"numinlets" : 1,
					"bgcolor" : [ 0.866667, 0.866667, 0.866667, 1.0 ],
					"fontsize" : 9.0,
					"numoutlets" : 2,
					"htextcolor" : [ 0.870588, 0.870588, 0.870588, 1.0 ]
				}

			}
, 			{
				"box" : 				{
					"maxclass" : "newobj",
					"text" : "scale 0 127 32 2048",
					"patching_rect" : [ 429.0, -24.0, 103.0, 17.0 ],
					"outlettype" : [ "int" ],
					"fontname" : "Arial",
					"id" : "obj-38",
					"numinlets" : 6,
					"fontsize" : 9.0,
					"numoutlets" : 1
				}

			}
, 			{
				"box" : 				{
					"maxclass" : "newobj",
					"text" : "ctlin 7 17",
					"patching_rect" : [ 428.0, -50.0, 52.0, 17.0 ],
					"outlettype" : [ "int", "int" ],
					"fontname" : "Arial",
					"id" : "obj-39",
					"numinlets" : 1,
					"fontsize" : 9.0,
					"numoutlets" : 2
				}

			}
, 			{
				"box" : 				{
					"maxclass" : "newobj",
					"text" : "delay 2500",
					"patching_rect" : [ 96.0, -72.0, 59.0, 17.0 ],
					"outlettype" : [ "bang" ],
					"fontname" : "Arial",
					"id" : "obj-40",
					"numinlets" : 2,
					"fontsize" : 9.0,
					"numoutlets" : 1
				}

			}
, 			{
				"box" : 				{
					"maxclass" : "message",
					"text" : "0",
					"patching_rect" : [ 74.0, 621.0, 16.0, 15.0 ],
					"outlettype" : [ "" ],
					"fontname" : "Arial",
					"id" : "obj-41",
					"numinlets" : 2,
					"fontsize" : 9.0,
					"numoutlets" : 1
				}

			}
, 			{
				"box" : 				{
					"maxclass" : "newobj",
					"text" : "select 0 1",
					"patching_rect" : [ 53.0, 591.0, 53.0, 17.0 ],
					"outlettype" : [ "bang", "bang", "" ],
					"fontname" : "Arial",
					"id" : "obj-42",
					"numinlets" : 1,
					"fontsize" : 9.0,
					"numoutlets" : 3
				}

			}
, 			{
				"box" : 				{
					"maxclass" : "message",
					"text" : "1",
					"patching_rect" : [ 53.0, 621.0, 16.0, 15.0 ],
					"outlettype" : [ "" ],
					"fontname" : "Arial",
					"id" : "obj-43",
					"numinlets" : 2,
					"fontsize" : 9.0,
					"numoutlets" : 1
				}

			}
, 			{
				"box" : 				{
					"maxclass" : "umenu",
					"patching_rect" : [ 53.0, 552.0, 46.0, 17.0 ],
					"outlettype" : [ "int", "", "" ],
					"items" : [ "lowpass", ",", "highpass", ",", "bandpass", ",", "bandstop" ],
					"fontname" : "Arial",
					"types" : [  ],
					"id" : "obj-44",
					"numinlets" : 1,
					"fontsize" : 9.0,
					"numoutlets" : 3
				}

			}
, 			{
				"box" : 				{
					"maxclass" : "comment",
					"text" : "DEL",
					"patching_rect" : [ -120.0, 293.0, 27.0, 17.0 ],
					"presentation" : 1,
					"fontname" : "Arial",
					"id" : "obj-45",
					"numinlets" : 1,
					"presentation_rect" : [ 4.0, 36.0, 27.0, 17.0 ],
					"fontsize" : 9.0,
					"numoutlets" : 0
				}

			}
, 			{
				"box" : 				{
					"maxclass" : "message",
					"text" : "0.3",
					"patching_rect" : [ 275.0, 100.0, 23.0, 15.0 ],
					"outlettype" : [ "" ],
					"fontname" : "Arial",
					"id" : "obj-46",
					"numinlets" : 2,
					"fontsize" : 9.0,
					"numoutlets" : 1
				}

			}
, 			{
				"box" : 				{
					"maxclass" : "newobj",
					"text" : "loadbang",
					"patching_rect" : [ 231.0, -122.0, 53.0, 17.0 ],
					"outlettype" : [ "bang" ],
					"fontname" : "Arial",
					"id" : "obj-48",
					"numinlets" : 1,
					"fontsize" : 9.0,
					"numoutlets" : 1
				}

			}
, 			{
				"box" : 				{
					"maxclass" : "newobj",
					"text" : "receive~ dm_buss2",
					"patching_rect" : [ 36.0, 179.0, 95.0, 17.0 ],
					"outlettype" : [ "signal" ],
					"fontname" : "Arial",
					"id" : "obj-49",
					"numinlets" : 1,
					"fontsize" : 9.0,
					"numoutlets" : 1
				}

			}
, 			{
				"box" : 				{
					"maxclass" : "flonum",
					"maximum" : 1.0,
					"patching_rect" : [ 274.0, 287.0, 29.0, 17.0 ],
					"outlettype" : [ "float", "bang" ],
					"presentation" : 1,
					"triscale" : 0.9,
					"fontname" : "Arial",
					"id" : "obj-50",
					"numinlets" : 1,
					"presentation_rect" : [ 62.0, 92.0, 29.0, 17.0 ],
					"minimum" : 0.0,
					"triangle" : 0,
					"fontsize" : 9.0,
					"numoutlets" : 2,
					"htextcolor" : [ 0.870588, 0.870588, 0.870588, 1.0 ]
				}

			}
, 			{
				"box" : 				{
					"maxclass" : "newobj",
					"text" : "dm_delay 30000 500",
					"patching_rect" : [ 151.0, 381.0, 95.0, 17.0 ],
					"outlettype" : [ "signal" ],
					"fontname" : "Arial",
					"id" : "obj-51",
					"numinlets" : 6,
					"fontsize" : 9.0,
					"numoutlets" : 1
				}

			}
, 			{
				"box" : 				{
					"maxclass" : "flonum",
					"maximum" : 1.0,
					"patching_rect" : [ 9.0, 289.0, 29.0, 17.0 ],
					"outlettype" : [ "float", "bang" ],
					"presentation" : 1,
					"triscale" : 0.9,
					"fontname" : "Arial",
					"id" : "obj-52",
					"numinlets" : 1,
					"presentation_rect" : [ 45.0, 47.0, 29.0, 17.0 ],
					"minimum" : 0.0,
					"bgcolor" : [ 0.968627, 0.968627, 0.968627, 1.0 ],
					"triangle" : 0,
					"fontsize" : 9.0,
					"numoutlets" : 2,
					"htextcolor" : [ 0.870588, 0.870588, 0.870588, 1.0 ]
				}

			}
, 			{
				"box" : 				{
					"maxclass" : "newobj",
					"text" : "dm_delay 30000 500",
					"patching_rect" : [ -21.0, 377.0, 95.0, 17.0 ],
					"outlettype" : [ "signal" ],
					"fontname" : "Arial",
					"id" : "obj-53",
					"numinlets" : 6,
					"fontsize" : 9.0,
					"numoutlets" : 1
				}

			}
, 			{
				"box" : 				{
					"maxclass" : "newobj",
					"text" : "expr $f2/$f1",
					"patching_rect" : [ -99.0, 257.0, 70.0, 17.0 ],
					"outlettype" : [ "" ],
					"fontname" : "Arial",
					"id" : "obj-54",
					"numinlets" : 2,
					"fontsize" : 9.0,
					"numoutlets" : 1
				}

			}
, 			{
				"box" : 				{
					"maxclass" : "message",
					"text" : "1.4",
					"patching_rect" : [ -132.0, 114.0, 21.0, 15.0 ],
					"outlettype" : [ "" ],
					"presentation" : 1,
					"fontname" : "Arial",
					"id" : "obj-55",
					"numinlets" : 2,
					"presentation_rect" : [ 4.0, 18.0, 21.0, 15.0 ],
					"fontsize" : 9.0,
					"numoutlets" : 1
				}

			}
, 			{
				"box" : 				{
					"maxclass" : "message",
					"text" : "1",
					"patching_rect" : [ -59.0, 100.0, 16.0, 15.0 ],
					"outlettype" : [ "" ],
					"presentation" : 1,
					"fontname" : "Arial",
					"id" : "obj-56",
					"numinlets" : 2,
					"presentation_rect" : [ 77.0, 4.0, 16.0, 15.0 ],
					"fontsize" : 9.0,
					"numoutlets" : 1
				}

			}
, 			{
				"box" : 				{
					"maxclass" : "message",
					"text" : "100",
					"patching_rect" : [ -73.0, 114.0, 26.0, 15.0 ],
					"outlettype" : [ "" ],
					"presentation" : 1,
					"fontname" : "Arial",
					"id" : "obj-57",
					"numinlets" : 2,
					"presentation_rect" : [ 63.0, 18.0, 26.0, 15.0 ],
					"fontsize" : 9.0,
					"numoutlets" : 1
				}

			}
, 			{
				"box" : 				{
					"maxclass" : "message",
					"text" : "1.8",
					"patching_rect" : [ -112.0, 114.0, 28.0, 15.0 ],
					"outlettype" : [ "" ],
					"presentation" : 1,
					"fontname" : "Arial",
					"id" : "obj-58",
					"numinlets" : 2,
					"presentation_rect" : [ 24.0, 18.0, 28.0, 15.0 ],
					"fontsize" : 9.0,
					"numoutlets" : 1
				}

			}
, 			{
				"box" : 				{
					"maxclass" : "message",
					"text" : "1.25",
					"patching_rect" : [ -47.0, 100.0, 28.0, 15.0 ],
					"outlettype" : [ "" ],
					"presentation" : 1,
					"fontname" : "Arial",
					"id" : "obj-59",
					"numinlets" : 2,
					"presentation_rect" : [ 89.0, 4.0, 28.0, 15.0 ],
					"fontsize" : 9.0,
					"numoutlets" : 1
				}

			}
, 			{
				"box" : 				{
					"maxclass" : "message",
					"text" : "0.75",
					"patching_rect" : [ -85.0, 100.0, 27.0, 15.0 ],
					"outlettype" : [ "" ],
					"presentation" : 1,
					"fontname" : "Arial",
					"id" : "obj-60",
					"numinlets" : 2,
					"presentation_rect" : [ 51.0, 4.0, 27.0, 15.0 ],
					"fontsize" : 9.0,
					"numoutlets" : 1
				}

			}
, 			{
				"box" : 				{
					"maxclass" : "flonum",
					"maximum" : 10.0,
					"patching_rect" : [ -48.0, 692.0, 35.0, 17.0 ],
					"outlettype" : [ "float", "bang" ],
					"triscale" : 0.9,
					"fontname" : "Arial",
					"id" : "obj-61",
					"numinlets" : 1,
					"minimum" : 0.0,
					"bgcolor" : [ 0.866667, 0.866667, 0.866667, 1.0 ],
					"fontsize" : 9.0,
					"numoutlets" : 2,
					"htextcolor" : [ 0.870588, 0.870588, 0.870588, 1.0 ]
				}

			}
, 			{
				"box" : 				{
					"maxclass" : "flonum",
					"maximum" : 1.0,
					"patching_rect" : [ -85.0, 695.0, 35.0, 17.0 ],
					"outlettype" : [ "float", "bang" ],
					"triscale" : 0.9,
					"fontname" : "Arial",
					"id" : "obj-62",
					"numinlets" : 1,
					"minimum" : 0.0,
					"bgcolor" : [ 0.866667, 0.866667, 0.866667, 1.0 ],
					"fontsize" : 9.0,
					"numoutlets" : 2,
					"htextcolor" : [ 0.870588, 0.870588, 0.870588, 1.0 ]
				}

			}
, 			{
				"box" : 				{
					"maxclass" : "newobj",
					"text" : "filter_wrap",
					"patching_rect" : [ 14.0, 778.0, 90.0, 17.0 ],
					"outlettype" : [ "signal" ],
					"fontname" : "Arial",
					"id" : "obj-63",
					"numinlets" : 5,
					"fontsize" : 9.0,
					"numoutlets" : 1
				}

			}
, 			{
				"box" : 				{
					"maxclass" : "flonum",
					"patching_rect" : [ -99.0, 312.0, 29.0, 17.0 ],
					"outlettype" : [ "float", "bang" ],
					"presentation" : 1,
					"triscale" : 0.9,
					"fontname" : "Arial",
					"id" : "obj-64",
					"numinlets" : 1,
					"presentation_rect" : [ 4.0, 47.0, 43.0, 17.0 ],
					"bgcolor" : [ 0.968627, 0.968627, 0.968627, 1.0 ],
					"triangle" : 0,
					"fontsize" : 9.0,
					"numoutlets" : 2,
					"htextcolor" : [ 0.870588, 0.870588, 0.870588, 1.0 ]
				}

			}
, 			{
				"box" : 				{
					"maxclass" : "newobj",
					"text" : "expr $f2/$f1",
					"patching_rect" : [ 166.0, 299.0, 70.0, 17.0 ],
					"outlettype" : [ "" ],
					"fontname" : "Arial",
					"id" : "obj-65",
					"numinlets" : 2,
					"fontsize" : 9.0,
					"numoutlets" : 1
				}

			}
, 			{
				"box" : 				{
					"maxclass" : "flonum",
					"maximum" : 10.0,
					"patching_rect" : [ 311.0, 681.0, 35.0, 17.0 ],
					"outlettype" : [ "float", "bang" ],
					"triscale" : 0.9,
					"fontname" : "Arial",
					"id" : "obj-66",
					"numinlets" : 1,
					"minimum" : 0.0,
					"bgcolor" : [ 0.866667, 0.866667, 0.866667, 1.0 ],
					"fontsize" : 9.0,
					"numoutlets" : 2,
					"htextcolor" : [ 0.870588, 0.870588, 0.870588, 1.0 ]
				}

			}
, 			{
				"box" : 				{
					"maxclass" : "flonum",
					"maximum" : 1.0,
					"patching_rect" : [ 276.0, 680.0, 35.0, 17.0 ],
					"outlettype" : [ "float", "bang" ],
					"triscale" : 0.9,
					"fontname" : "Arial",
					"id" : "obj-67",
					"numinlets" : 1,
					"minimum" : 0.0,
					"bgcolor" : [ 0.866667, 0.866667, 0.866667, 1.0 ],
					"fontsize" : 9.0,
					"numoutlets" : 2,
					"htextcolor" : [ 0.870588, 0.870588, 0.870588, 1.0 ]
				}

			}
, 			{
				"box" : 				{
					"maxclass" : "newobj",
					"text" : "filter_wrap",
					"patching_rect" : [ 134.0, 779.0, 90.0, 17.0 ],
					"outlettype" : [ "signal" ],
					"fontname" : "Arial",
					"id" : "obj-68",
					"numinlets" : 5,
					"fontsize" : 9.0,
					"numoutlets" : 1
				}

			}
, 			{
				"box" : 				{
					"maxclass" : "flonum",
					"patching_rect" : [ 166.0, 346.0, 29.0, 17.0 ],
					"outlettype" : [ "float", "bang" ],
					"presentation" : 1,
					"triscale" : 0.9,
					"fontname" : "Arial",
					"id" : "obj-69",
					"numinlets" : 1,
					"presentation_rect" : [ 4.0, 106.0, 56.0, 17.0 ],
					"bgcolor" : [ 0.968627, 0.968627, 0.968627, 1.0 ],
					"triangle" : 0,
					"fontsize" : 9.0,
					"numoutlets" : 2,
					"htextcolor" : [ 0.870588, 0.870588, 0.870588, 1.0 ]
				}

			}
, 			{
				"box" : 				{
					"maxclass" : "panel",
					"patching_rect" : [ 1.0, 1.0, 119.0, 141.0 ],
					"presentation" : 1,
					"rounded" : 0,
					"id" : "obj-70",
					"numinlets" : 1,
					"presentation_rect" : [ 1.0, 1.0, 119.0, 141.0 ],
					"bordercolor" : [ 0.517647, 0.517647, 0.517647, 1.0 ],
					"bgcolor" : [ 0.545098, 0.517647, 0.427451, 1.0 ],
					"numoutlets" : 0
				}

			}
 ],
		"lines" : [ 			{
				"patchline" : 				{
					"source" : [ "obj-44", 1 ],
					"destination" : [ "obj-68", 1 ],
					"hidden" : 0,
					"midpoints" : [ 76.0, 584.0, 365.0, 584.0, 365.0, 739.0, 161.25, 739.0 ]
				}

			}
, 			{
				"patchline" : 				{
					"source" : [ "obj-44", 1 ],
					"destination" : [ "obj-63", 1 ],
					"hidden" : 0,
					"midpoints" : [ 76.0, 584.0, -101.0, 584.0, -101.0, 740.0, 41.25, 740.0 ]
				}

			}
, 			{
				"patchline" : 				{
					"source" : [ "obj-43", 0 ],
					"destination" : [ "obj-67", 0 ],
					"hidden" : 0,
					"midpoints" : [ 62.5, 646.0, 285.5, 646.0 ]
				}

			}
, 			{
				"patchline" : 				{
					"source" : [ "obj-41", 0 ],
					"destination" : [ "obj-67", 0 ],
					"hidden" : 0,
					"midpoints" : [ 83.5, 650.0, 285.5, 650.0 ]
				}

			}
, 			{
				"patchline" : 				{
					"source" : [ "obj-35", 0 ],
					"destination" : [ "obj-67", 0 ],
					"hidden" : 0,
					"midpoints" : [ 172.5, 670.0, 285.5, 670.0 ]
				}

			}
, 			{
				"patchline" : 				{
					"source" : [ "obj-35", 0 ],
					"destination" : [ "obj-62", 0 ],
					"hidden" : 0,
					"midpoints" : [ 172.5, 670.0, -75.5, 670.0 ]
				}

			}
, 			{
				"patchline" : 				{
					"source" : [ "obj-72", 0 ],
					"destination" : [ "obj-44", 0 ],
					"hidden" : 0,
					"midpoints" : [ 174.5, 513.0, 62.5, 513.0 ]
				}

			}
, 			{
				"patchline" : 				{
					"source" : [ "obj-41", 0 ],
					"destination" : [ "obj-62", 0 ],
					"hidden" : 0,
					"midpoints" : [ 83.5, 658.0, -75.5, 658.0 ]
				}

			}
, 			{
				"patchline" : 				{
					"source" : [ "obj-43", 0 ],
					"destination" : [ "obj-62", 0 ],
					"hidden" : 0,
					"midpoints" : [ 62.5, 651.0, -75.5, 651.0 ]
				}

			}
, 			{
				"patchline" : 				{
					"source" : [ "obj-62", 0 ],
					"destination" : [ "obj-63", 2 ],
					"hidden" : 0,
					"midpoints" : [ -75.5, 730.0, 59.0, 730.0 ]
				}

			}
, 			{
				"patchline" : 				{
					"source" : [ "obj-61", 0 ],
					"destination" : [ "obj-63", 3 ],
					"hidden" : 0,
					"midpoints" : [ -38.5, 721.0, 76.75, 721.0 ]
				}

			}
, 			{
				"patchline" : 				{
					"source" : [ "obj-67", 0 ],
					"destination" : [ "obj-68", 2 ],
					"hidden" : 0,
					"midpoints" : [ 285.5, 724.0, 179.0, 724.0 ]
				}

			}
, 			{
				"patchline" : 				{
					"source" : [ "obj-66", 0 ],
					"destination" : [ "obj-68", 3 ],
					"hidden" : 0,
					"midpoints" : [ 320.5, 731.0, 196.75, 731.0 ]
				}

			}
, 			{
				"patchline" : 				{
					"source" : [ "obj-69", 0 ],
					"destination" : [ "obj-51", 1 ],
					"hidden" : 0,
					"midpoints" : [  ]
				}

			}
, 			{
				"patchline" : 				{
					"source" : [ "obj-51", 0 ],
					"destination" : [ "obj-68", 0 ],
					"hidden" : 0,
					"midpoints" : [  ]
				}

			}
, 			{
				"patchline" : 				{
					"source" : [ "obj-52", 0 ],
					"destination" : [ "obj-53", 2 ],
					"hidden" : 0,
					"midpoints" : [  ]
				}

			}
, 			{
				"patchline" : 				{
					"source" : [ "obj-53", 0 ],
					"destination" : [ "obj-63", 0 ],
					"hidden" : 0,
					"midpoints" : [  ]
				}

			}
, 			{
				"patchline" : 				{
					"source" : [ "obj-33", 1 ],
					"destination" : [ "obj-31", 0 ],
					"hidden" : 0,
					"midpoints" : [  ]
				}

			}
, 			{
				"patchline" : 				{
					"source" : [ "obj-33", 0 ],
					"destination" : [ "obj-27", 0 ],
					"hidden" : 0,
					"midpoints" : [  ]
				}

			}
, 			{
				"patchline" : 				{
					"source" : [ "obj-34", 0 ],
					"destination" : [ "obj-33", 0 ],
					"hidden" : 0,
					"midpoints" : [  ]
				}

			}
, 			{
				"patchline" : 				{
					"source" : [ "obj-39", 0 ],
					"destination" : [ "obj-38", 0 ],
					"hidden" : 0,
					"midpoints" : [  ]
				}

			}
, 			{
				"patchline" : 				{
					"source" : [ "obj-38", 0 ],
					"destination" : [ "obj-37", 0 ],
					"hidden" : 0,
					"midpoints" : [  ]
				}

			}
, 			{
				"patchline" : 				{
					"source" : [ "obj-30", 0 ],
					"destination" : [ "obj-29", 0 ],
					"hidden" : 0,
					"midpoints" : [  ]
				}

			}
, 			{
				"patchline" : 				{
					"source" : [ "obj-27", 0 ],
					"destination" : [ "obj-30", 0 ],
					"hidden" : 0,
					"midpoints" : [  ]
				}

			}
, 			{
				"patchline" : 				{
					"source" : [ "obj-33", 0 ],
					"destination" : [ "obj-32", 0 ],
					"hidden" : 0,
					"midpoints" : [  ]
				}

			}
, 			{
				"patchline" : 				{
					"source" : [ "obj-30", 0 ],
					"destination" : [ "obj-28", 0 ],
					"hidden" : 0,
					"midpoints" : [  ]
				}

			}
, 			{
				"patchline" : 				{
					"source" : [ "obj-48", 0 ],
					"destination" : [ "obj-46", 0 ],
					"hidden" : 0,
					"midpoints" : [ 240.5, 87.0, 284.5, 87.0 ]
				}

			}
, 			{
				"patchline" : 				{
					"source" : [ "obj-22", 0 ],
					"destination" : [ "obj-25", 1 ],
					"hidden" : 0,
					"midpoints" : [  ]
				}

			}
, 			{
				"patchline" : 				{
					"source" : [ "obj-1", 0 ],
					"destination" : [ "obj-65", 0 ],
					"hidden" : 0,
					"midpoints" : [  ]
				}

			}
, 			{
				"patchline" : 				{
					"source" : [ "obj-25", 0 ],
					"destination" : [ "obj-23", 0 ],
					"hidden" : 0,
					"midpoints" : [  ]
				}

			}
, 			{
				"patchline" : 				{
					"source" : [ "obj-68", 0 ],
					"destination" : [ "obj-25", 0 ],
					"hidden" : 0,
					"midpoints" : [  ]
				}

			}
, 			{
				"patchline" : 				{
					"source" : [ "obj-42", 1 ],
					"destination" : [ "obj-41", 0 ],
					"hidden" : 0,
					"midpoints" : [  ]
				}

			}
, 			{
				"patchline" : 				{
					"source" : [ "obj-9", 0 ],
					"destination" : [ "obj-1", 0 ],
					"hidden" : 0,
					"midpoints" : [  ]
				}

			}
, 			{
				"patchline" : 				{
					"source" : [ "obj-5", 0 ],
					"destination" : [ "obj-1", 0 ],
					"hidden" : 0,
					"midpoints" : [  ]
				}

			}
, 			{
				"patchline" : 				{
					"source" : [ "obj-8", 0 ],
					"destination" : [ "obj-1", 0 ],
					"hidden" : 0,
					"midpoints" : [  ]
				}

			}
, 			{
				"patchline" : 				{
					"source" : [ "obj-2", 0 ],
					"destination" : [ "obj-1", 0 ],
					"hidden" : 0,
					"midpoints" : [  ]
				}

			}
, 			{
				"patchline" : 				{
					"source" : [ "obj-10", 0 ],
					"destination" : [ "obj-1", 0 ],
					"hidden" : 0,
					"midpoints" : [  ]
				}

			}
, 			{
				"patchline" : 				{
					"source" : [ "obj-6", 0 ],
					"destination" : [ "obj-1", 0 ],
					"hidden" : 0,
					"midpoints" : [  ]
				}

			}
, 			{
				"patchline" : 				{
					"source" : [ "obj-3", 0 ],
					"destination" : [ "obj-1", 0 ],
					"hidden" : 0,
					"midpoints" : [  ]
				}

			}
, 			{
				"patchline" : 				{
					"source" : [ "obj-4", 0 ],
					"destination" : [ "obj-1", 0 ],
					"hidden" : 0,
					"midpoints" : [  ]
				}

			}
, 			{
				"patchline" : 				{
					"source" : [ "obj-7", 0 ],
					"destination" : [ "obj-1", 0 ],
					"hidden" : 0,
					"midpoints" : [  ]
				}

			}
, 			{
				"patchline" : 				{
					"source" : [ "obj-38", 0 ],
					"destination" : [ "obj-1", 0 ],
					"hidden" : 0,
					"midpoints" : [ 438.5, 3.0, 336.0, 3.0, 336.0, 259.0, 175.5, 259.0 ]
				}

			}
, 			{
				"patchline" : 				{
					"source" : [ "obj-57", 0 ],
					"destination" : [ "obj-17", 0 ],
					"hidden" : 0,
					"midpoints" : [  ]
				}

			}
, 			{
				"patchline" : 				{
					"source" : [ "obj-20", 0 ],
					"destination" : [ "obj-17", 0 ],
					"hidden" : 0,
					"midpoints" : [  ]
				}

			}
, 			{
				"patchline" : 				{
					"source" : [ "obj-19", 0 ],
					"destination" : [ "obj-17", 0 ],
					"hidden" : 0,
					"midpoints" : [  ]
				}

			}
, 			{
				"patchline" : 				{
					"source" : [ "obj-56", 0 ],
					"destination" : [ "obj-17", 0 ],
					"hidden" : 0,
					"midpoints" : [  ]
				}

			}
, 			{
				"patchline" : 				{
					"source" : [ "obj-60", 0 ],
					"destination" : [ "obj-17", 0 ],
					"hidden" : 0,
					"midpoints" : [  ]
				}

			}
, 			{
				"patchline" : 				{
					"source" : [ "obj-18", 0 ],
					"destination" : [ "obj-17", 0 ],
					"hidden" : 0,
					"midpoints" : [  ]
				}

			}
, 			{
				"patchline" : 				{
					"source" : [ "obj-58", 0 ],
					"destination" : [ "obj-17", 0 ],
					"hidden" : 0,
					"midpoints" : [  ]
				}

			}
, 			{
				"patchline" : 				{
					"source" : [ "obj-55", 0 ],
					"destination" : [ "obj-17", 0 ],
					"hidden" : 0,
					"midpoints" : [  ]
				}

			}
, 			{
				"patchline" : 				{
					"source" : [ "obj-59", 0 ],
					"destination" : [ "obj-17", 0 ],
					"hidden" : 0,
					"midpoints" : [  ]
				}

			}
, 			{
				"patchline" : 				{
					"source" : [ "obj-38", 0 ],
					"destination" : [ "obj-17", 0 ],
					"hidden" : 0,
					"midpoints" : [ 438.5, 3.0, 300.0, 3.0, 300.0, 201.0, 141.0, 201.0, 141.0, 210.0, -89.5, 210.0 ]
				}

			}
, 			{
				"patchline" : 				{
					"source" : [ "obj-42", 0 ],
					"destination" : [ "obj-43", 0 ],
					"hidden" : 0,
					"midpoints" : [  ]
				}

			}
, 			{
				"patchline" : 				{
					"source" : [ "obj-44", 0 ],
					"destination" : [ "obj-42", 0 ],
					"hidden" : 0,
					"midpoints" : [  ]
				}

			}
, 			{
				"patchline" : 				{
					"source" : [ "obj-22", 0 ],
					"destination" : [ "obj-26", 1 ],
					"hidden" : 0,
					"midpoints" : [  ]
				}

			}
, 			{
				"patchline" : 				{
					"source" : [ "obj-36", 0 ],
					"destination" : [ "obj-50", 0 ],
					"hidden" : 0,
					"midpoints" : [  ]
				}

			}
, 			{
				"patchline" : 				{
					"source" : [ "obj-26", 0 ],
					"destination" : [ "obj-24", 0 ],
					"hidden" : 0,
					"midpoints" : [  ]
				}

			}
, 			{
				"patchline" : 				{
					"source" : [ "obj-63", 0 ],
					"destination" : [ "obj-26", 0 ],
					"hidden" : 0,
					"midpoints" : [  ]
				}

			}
, 			{
				"patchline" : 				{
					"source" : [ "obj-29", 0 ],
					"destination" : [ "obj-36", 0 ],
					"hidden" : 0,
					"midpoints" : [  ]
				}

			}
, 			{
				"patchline" : 				{
					"source" : [ "obj-31", 0 ],
					"destination" : [ "obj-36", 0 ],
					"hidden" : 0,
					"midpoints" : [ 463.5, 144.0, 279.0, 144.0, 279.0, 210.0, 283.5, 210.0 ]
				}

			}
, 			{
				"patchline" : 				{
					"source" : [ "obj-32", 0 ],
					"destination" : [ "obj-36", 0 ],
					"hidden" : 0,
					"midpoints" : [ 433.5, 117.0, 300.0, 117.0, 300.0, 201.0, 283.5, 201.0 ]
				}

			}
, 			{
				"patchline" : 				{
					"source" : [ "obj-46", 0 ],
					"destination" : [ "obj-36", 0 ],
					"hidden" : 0,
					"midpoints" : [  ]
				}

			}
, 			{
				"patchline" : 				{
					"source" : [ "obj-65", 0 ],
					"destination" : [ "obj-69", 0 ],
					"hidden" : 0,
					"midpoints" : [  ]
				}

			}
, 			{
				"patchline" : 				{
					"source" : [ "obj-54", 0 ],
					"destination" : [ "obj-64", 0 ],
					"hidden" : 0,
					"midpoints" : [  ]
				}

			}
, 			{
				"patchline" : 				{
					"source" : [ "obj-21", 0 ],
					"destination" : [ "obj-11", 0 ],
					"hidden" : 0,
					"midpoints" : [  ]
				}

			}
, 			{
				"patchline" : 				{
					"source" : [ "obj-11", 0 ],
					"destination" : [ "obj-54", 1 ],
					"hidden" : 0,
					"midpoints" : [  ]
				}

			}
, 			{
				"patchline" : 				{
					"source" : [ "obj-17", 0 ],
					"destination" : [ "obj-54", 0 ],
					"hidden" : 0,
					"midpoints" : [  ]
				}

			}
, 			{
				"patchline" : 				{
					"source" : [ "obj-71", 0 ],
					"destination" : [ "obj-22", 0 ],
					"hidden" : 0,
					"midpoints" : [  ]
				}

			}
, 			{
				"patchline" : 				{
					"source" : [ "obj-72", 0 ],
					"destination" : [ "obj-35", 0 ],
					"hidden" : 0,
					"midpoints" : [  ]
				}

			}
, 			{
				"patchline" : 				{
					"source" : [ "obj-50", 0 ],
					"destination" : [ "obj-51", 2 ],
					"hidden" : 0,
					"midpoints" : [ 283.5, 366.0, 190.899994, 366.0 ]
				}

			}
, 			{
				"patchline" : 				{
					"source" : [ "obj-64", 0 ],
					"destination" : [ "obj-53", 1 ],
					"hidden" : 0,
					"midpoints" : [ -89.5, 349.0, 3.7, 349.0 ]
				}

			}
, 			{
				"patchline" : 				{
					"source" : [ "obj-40", 0 ],
					"destination" : [ "obj-5", 0 ],
					"hidden" : 0,
					"midpoints" : [ 105.5, -27.0, 147.5, -27.0 ]
				}

			}
, 			{
				"patchline" : 				{
					"source" : [ "obj-49", 0 ],
					"destination" : [ "obj-51", 0 ],
					"hidden" : 0,
					"midpoints" : [ 45.5, 247.0, 160.5, 247.0 ]
				}

			}
, 			{
				"patchline" : 				{
					"source" : [ "obj-49", 0 ],
					"destination" : [ "obj-53", 0 ],
					"hidden" : 0,
					"midpoints" : [ 45.5, 246.0, -11.5, 246.0 ]
				}

			}
, 			{
				"patchline" : 				{
					"source" : [ "obj-36", 0 ],
					"destination" : [ "obj-52", 0 ],
					"hidden" : 0,
					"midpoints" : [ 283.5, 259.0, 18.5, 259.0 ]
				}

			}
, 			{
				"patchline" : 				{
					"source" : [ "obj-40", 0 ],
					"destination" : [ "obj-19", 0 ],
					"hidden" : 0,
					"midpoints" : [ 105.5, -30.0, -97.0, -30.0 ]
				}

			}
, 			{
				"patchline" : 				{
					"source" : [ "obj-11", 0 ],
					"destination" : [ "obj-65", 1 ],
					"hidden" : 0,
					"midpoints" : [ -38.5, -7.0, 226.5, -7.0 ]
				}

			}
, 			{
				"patchline" : 				{
					"source" : [ "obj-48", 0 ],
					"destination" : [ "obj-40", 0 ],
					"hidden" : 0,
					"midpoints" : [ 240.5, -88.0, 105.5, -88.0 ]
				}

			}
 ]
	}

}
