{
	"patcher" : 	{
		"fileversion" : 1,
		"rect" : [ 8.0, 48.0, 1280.0, 679.0 ],
		"bglocked" : 0,
		"defrect" : [ 8.0, 48.0, 1280.0, 679.0 ],
		"openrect" : [ 0.0, 0.0, 0.0, 0.0 ],
		"openinpresentation" : 1,
		"default_fontsize" : 12.0,
		"default_fontface" : 0,
		"default_fontname" : "Arial",
		"gridonopen" : 0,
		"gridsize" : [ 15.0, 15.0 ],
		"gridsnaponopen" : 0,
		"toolbarvisible" : 1,
		"boxanimatetime" : 200,
		"imprint" : 0,
		"metadata" : [  ],
		"boxes" : [ 			{
				"box" : 				{
					"maxclass" : "bpatcher",
					"numinlets" : 1,
					"numoutlets" : 2,
					"presentation_rect" : [ 1.0, 591.0, 293.0, 59.0 ],
					"id" : "obj-18",
					"name" : "pitchpage.maxpat",
					"outlettype" : [ "", "" ],
					"patching_rect" : [ 896.0, 486.0, 57.0, 29.0 ],
					"args" : [  ],
					"presentation" : 1
				}

			}
, 			{
				"box" : 				{
					"maxclass" : "inlet",
					"numinlets" : 0,
					"numoutlets" : 1,
					"id" : "obj-17",
					"outlettype" : [ "" ],
					"patching_rect" : [ 452.0, 28.0, 25.0, 25.0 ],
					"comment" : ""
				}

			}
, 			{
				"box" : 				{
					"maxclass" : "newobj",
					"text" : "thispatcher",
					"numinlets" : 1,
					"numoutlets" : 2,
					"id" : "obj-23",
					"fontsize" : 12.0,
					"outlettype" : [ "", "" ],
					"patching_rect" : [ 452.0, 79.0, 69.0, 20.0 ],
					"fontname" : "Arial",
					"save" : [ "#N", "thispatcher", ";", "#Q", "end", ";" ]
				}

			}
, 			{
				"box" : 				{
					"maxclass" : "bpatcher",
					"numinlets" : 1,
					"numoutlets" : 2,
					"presentation_rect" : [ 1.0, 532.0, 293.0, 59.0 ],
					"id" : "obj-16",
					"name" : "channelFXpage.maxpat",
					"outlettype" : [ "", "" ],
					"patching_rect" : [ 824.0, 486.0, 57.0, 29.0 ],
					"args" : [  ],
					"presentation" : 1
				}

			}
, 			{
				"box" : 				{
					"maxclass" : "bpatcher",
					"numinlets" : 1,
					"numoutlets" : 2,
					"presentation_rect" : [ 1.0, 473.0, 293.0, 59.0 ],
					"id" : "obj-14",
					"name" : "volFX5page.maxpat",
					"outlettype" : [ "", "" ],
					"patching_rect" : [ 755.0, 486.0, 51.0, 25.0 ],
					"args" : [  ],
					"presentation" : 1
				}

			}
, 			{
				"box" : 				{
					"maxclass" : "bpatcher",
					"numinlets" : 1,
					"numoutlets" : 2,
					"presentation_rect" : [ 1.0, 414.0, 293.0, 59.0 ],
					"id" : "obj-13",
					"name" : "volFX4page.maxpat",
					"outlettype" : [ "", "" ],
					"patching_rect" : [ 698.0, 486.0, 47.0, 25.0 ],
					"args" : [  ],
					"presentation" : 1
				}

			}
, 			{
				"box" : 				{
					"maxclass" : "bpatcher",
					"numinlets" : 1,
					"numoutlets" : 2,
					"presentation_rect" : [ 1.0, 355.0, 293.0, 59.0 ],
					"id" : "obj-12",
					"name" : "volFX3page.maxpat",
					"outlettype" : [ "", "" ],
					"patching_rect" : [ 632.0, 486.0, 60.0, 28.0 ],
					"args" : [  ],
					"presentation" : 1
				}

			}
, 			{
				"box" : 				{
					"maxclass" : "bpatcher",
					"numinlets" : 1,
					"numoutlets" : 2,
					"presentation_rect" : [ 1.0, 296.0, 293.0, 59.0 ],
					"id" : "obj-11",
					"name" : "volFX2page.maxpat",
					"outlettype" : [ "", "" ],
					"patching_rect" : [ 561.0, 488.0, 49.0, 19.0 ],
					"args" : [  ],
					"presentation" : 1
				}

			}
, 			{
				"box" : 				{
					"maxclass" : "bpatcher",
					"numinlets" : 1,
					"numoutlets" : 2,
					"presentation_rect" : [ 1.0, 178.0, 293.0, 59.0 ],
					"id" : "obj-9",
					"name" : "mainVolumepage.maxpat",
					"outlettype" : [ "", "" ],
					"patching_rect" : [ 417.0, 484.0, 65.0, 29.0 ],
					"args" : [  ],
					"presentation" : 1
				}

			}
, 			{
				"box" : 				{
					"maxclass" : "bpatcher",
					"numinlets" : 1,
					"numoutlets" : 2,
					"presentation_rect" : [ 1.0, 237.0, 293.0, 59.0 ],
					"id" : "obj-8",
					"name" : "volFX1page.maxpat",
					"outlettype" : [ "", "" ],
					"patching_rect" : [ 511.0, 485.0, 37.0, 26.0 ],
					"args" : [  ],
					"presentation" : 1
				}

			}
, 			{
				"box" : 				{
					"maxclass" : "bpatcher",
					"numinlets" : 1,
					"numoutlets" : 2,
					"presentation_rect" : [ 1.0, 119.0, 293.0, 59.0 ],
					"id" : "obj-10",
					"name" : "stutterpage.maxpat",
					"outlettype" : [ "", "" ],
					"patching_rect" : [ 344.0, 484.0, 59.0, 30.0 ],
					"args" : [  ],
					"presentation" : 1
				}

			}
, 			{
				"box" : 				{
					"maxclass" : "newobj",
					"text" : "p isVisible",
					"numinlets" : 1,
					"numoutlets" : 1,
					"id" : "obj-25",
					"fontsize" : 12.0,
					"outlettype" : [ "" ],
					"patching_rect" : [ 97.0, 375.0, 64.0, 20.0 ],
					"fontname" : "Arial",
					"patcher" : 					{
						"fileversion" : 1,
						"rect" : [ 33.0, 73.0, 640.0, 480.0 ],
						"bglocked" : 0,
						"defrect" : [ 33.0, 73.0, 640.0, 480.0 ],
						"openrect" : [ 0.0, 0.0, 0.0, 0.0 ],
						"openinpresentation" : 0,
						"default_fontsize" : 12.0,
						"default_fontface" : 0,
						"default_fontname" : "Arial",
						"gridonopen" : 0,
						"gridsize" : [ 15.0, 15.0 ],
						"gridsnaponopen" : 0,
						"toolbarvisible" : 1,
						"boxanimatetime" : 200,
						"imprint" : 0,
						"metadata" : [  ],
						"boxes" : [ 							{
								"box" : 								{
									"maxclass" : "outlet",
									"numinlets" : 1,
									"numoutlets" : 0,
									"id" : "obj-1",
									"patching_rect" : [ 55.0, 208.0, 25.0, 25.0 ],
									"comment" : ""
								}

							}
, 							{
								"box" : 								{
									"maxclass" : "newobj",
									"text" : "pack 0 0 0 0",
									"numinlets" : 4,
									"numoutlets" : 1,
									"id" : "obj-22",
									"fontsize" : 9.012004,
									"outlettype" : [ "" ],
									"patching_rect" : [ 88.991455, 137.009888, 63.008549, 17.0 ],
									"fontname" : "Arial"
								}

							}
, 							{
								"box" : 								{
									"maxclass" : "newobj",
									"text" : ">= 2",
									"numinlets" : 2,
									"numoutlets" : 1,
									"id" : "obj-23",
									"fontsize" : 9.012004,
									"outlettype" : [ "int" ],
									"patching_rect" : [ 55.0, 136.128723, 29.017094, 17.0 ],
									"fontname" : "Arial"
								}

							}
, 							{
								"box" : 								{
									"maxclass" : "newobj",
									"text" : "gate",
									"numinlets" : 2,
									"numoutlets" : 1,
									"id" : "obj-12",
									"fontsize" : 9.012004,
									"outlettype" : [ "" ],
									"patching_rect" : [ 55.0, 171.376251, 28.188034, 17.0 ],
									"fontname" : "Arial"
								}

							}
, 							{
								"box" : 								{
									"maxclass" : "newobj",
									"text" : "unpack 0 0 0 0",
									"numinlets" : 1,
									"numoutlets" : 4,
									"id" : "obj-16",
									"fontsize" : 9.012004,
									"outlettype" : [ "int", "int", "int", "int" ],
									"patching_rect" : [ 68.264954, 100.0, 73.786324, 17.0 ],
									"fontname" : "Arial"
								}

							}
, 							{
								"box" : 								{
									"maxclass" : "inlet",
									"numinlets" : 0,
									"numoutlets" : 1,
									"id" : "obj-24",
									"outlettype" : [ "" ],
									"patching_rect" : [ 68.0, 40.0, 25.0, 25.0 ],
									"comment" : ""
								}

							}
 ],
						"lines" : [ 							{
								"patchline" : 								{
									"source" : [ "obj-12", 0 ],
									"destination" : [ "obj-1", 0 ],
									"hidden" : 0,
									"midpoints" : [  ]
								}

							}
, 							{
								"patchline" : 								{
									"source" : [ "obj-23", 0 ],
									"destination" : [ "obj-12", 0 ],
									"hidden" : 0,
									"midpoints" : [  ]
								}

							}
, 							{
								"patchline" : 								{
									"source" : [ "obj-16", 0 ],
									"destination" : [ "obj-22", 0 ],
									"hidden" : 0,
									"midpoints" : [ 77.764954, 126.435638, 98.491455, 126.435638 ]
								}

							}
, 							{
								"patchline" : 								{
									"source" : [ "obj-22", 0 ],
									"destination" : [ "obj-12", 1 ],
									"hidden" : 0,
									"midpoints" : [ 98.491455, 161.683167, 73.688034, 161.683167 ]
								}

							}
, 							{
								"patchline" : 								{
									"source" : [ "obj-16", 3 ],
									"destination" : [ "obj-22", 3 ],
									"hidden" : 0,
									"midpoints" : [  ]
								}

							}
, 							{
								"patchline" : 								{
									"source" : [ "obj-16", 2 ],
									"destination" : [ "obj-22", 2 ],
									"hidden" : 0,
									"midpoints" : [  ]
								}

							}
, 							{
								"patchline" : 								{
									"source" : [ "obj-16", 1 ],
									"destination" : [ "obj-22", 1 ],
									"hidden" : 0,
									"midpoints" : [  ]
								}

							}
, 							{
								"patchline" : 								{
									"source" : [ "obj-16", 2 ],
									"destination" : [ "obj-23", 0 ],
									"hidden" : 0,
									"midpoints" : [ 114.289169, 129.079193, 64.5, 129.079193 ]
								}

							}
, 							{
								"patchline" : 								{
									"source" : [ "obj-24", 0 ],
									"destination" : [ "obj-16", 0 ],
									"hidden" : 0,
									"midpoints" : [  ]
								}

							}
 ]
					}
,
					"saved_object_attributes" : 					{
						"default_fontface" : 0,
						"fontface" : 0,
						"default_fontname" : "Arial",
						"fontsize" : 12.0,
						"globalpatchername" : "",
						"default_fontsize" : 12.0,
						"fontname" : "Arial"
					}

				}

			}
, 			{
				"box" : 				{
					"maxclass" : "newobj",
					"text" : "s deoffset",
					"numinlets" : 1,
					"numoutlets" : 0,
					"id" : "obj-21",
					"fontsize" : 12.0,
					"patching_rect" : [ 201.0, 665.0, 62.0, 20.0 ],
					"fontname" : "Arial"
				}

			}
, 			{
				"box" : 				{
					"maxclass" : "newobj",
					"text" : "r deoffset",
					"numinlets" : 0,
					"numoutlets" : 1,
					"id" : "obj-20",
					"fontsize" : 12.0,
					"outlettype" : [ "" ],
					"patching_rect" : [ 97.0, 272.0, 60.0, 20.0 ],
					"fontname" : "Arial"
				}

			}
, 			{
				"box" : 				{
					"maxclass" : "newobj",
					"text" : "p offsetButton",
					"numinlets" : 2,
					"numoutlets" : 2,
					"id" : "obj-19",
					"fontsize" : 12.0,
					"outlettype" : [ "", "" ],
					"patching_rect" : [ 32.0, 328.0, 84.0, 20.0 ],
					"fontname" : "Arial",
					"patcher" : 					{
						"fileversion" : 1,
						"rect" : [ 640.0, 119.0, 640.0, 480.0 ],
						"bglocked" : 0,
						"defrect" : [ 640.0, 119.0, 640.0, 480.0 ],
						"openrect" : [ 0.0, 0.0, 0.0, 0.0 ],
						"openinpresentation" : 0,
						"default_fontsize" : 12.0,
						"default_fontface" : 0,
						"default_fontname" : "Arial",
						"gridonopen" : 0,
						"gridsize" : [ 15.0, 15.0 ],
						"gridsnaponopen" : 0,
						"toolbarvisible" : 1,
						"boxanimatetime" : 200,
						"imprint" : 0,
						"metadata" : [  ],
						"boxes" : [ 							{
								"box" : 								{
									"maxclass" : "outlet",
									"numinlets" : 1,
									"numoutlets" : 0,
									"id" : "obj-6",
									"patching_rect" : [ 304.0, 333.0, 25.0, 25.0 ],
									"comment" : "de-offsetted led output (x,y,z)"
								}

							}
, 							{
								"box" : 								{
									"maxclass" : "newobj",
									"text" : "pack 0 0 0 0",
									"numinlets" : 4,
									"numoutlets" : 1,
									"id" : "obj-5",
									"fontsize" : 12.0,
									"outlettype" : [ "" ],
									"patching_rect" : [ 304.0, 271.0, 89.0, 20.0 ],
									"fontname" : "Arial"
								}

							}
, 							{
								"box" : 								{
									"maxclass" : "newobj",
									"text" : "- 1",
									"numinlets" : 2,
									"numoutlets" : 1,
									"id" : "obj-4",
									"fontsize" : 12.0,
									"outlettype" : [ "int" ],
									"patching_rect" : [ 351.0, 219.0, 32.5, 20.0 ],
									"fontname" : "Arial"
								}

							}
, 							{
								"box" : 								{
									"maxclass" : "newobj",
									"text" : "- 1",
									"numinlets" : 2,
									"numoutlets" : 1,
									"id" : "obj-3",
									"fontsize" : 12.0,
									"outlettype" : [ "int" ],
									"patching_rect" : [ 327.0, 187.0, 32.5, 20.0 ],
									"fontname" : "Arial"
								}

							}
, 							{
								"box" : 								{
									"maxclass" : "newobj",
									"text" : "unpack 0 0 0 0",
									"numinlets" : 1,
									"numoutlets" : 4,
									"id" : "obj-2",
									"fontsize" : 12.0,
									"outlettype" : [ "int", "int", "int", "int" ],
									"patching_rect" : [ 304.0, 103.0, 89.0, 20.0 ],
									"fontname" : "Arial"
								}

							}
, 							{
								"box" : 								{
									"maxclass" : "inlet",
									"numinlets" : 0,
									"numoutlets" : 1,
									"id" : "obj-1",
									"outlettype" : [ "" ],
									"patching_rect" : [ 304.0, 44.0, 25.0, 25.0 ],
									"comment" : "button output to be de-offsetted (x,y,val)"
								}

							}
, 							{
								"box" : 								{
									"maxclass" : "newobj",
									"text" : "pack 0 0 0",
									"numinlets" : 3,
									"numoutlets" : 1,
									"id" : "obj-16",
									"fontsize" : 12.0,
									"outlettype" : [ "" ],
									"patching_rect" : [ 50.0, 267.0, 66.0, 20.0 ],
									"fontname" : "Arial"
								}

							}
, 							{
								"box" : 								{
									"maxclass" : "newobj",
									"text" : "unpack 0 0 0",
									"numinlets" : 1,
									"numoutlets" : 3,
									"id" : "obj-14",
									"fontsize" : 12.0,
									"outlettype" : [ "int", "int", "int" ],
									"patching_rect" : [ 50.0, 100.0, 159.0, 20.0 ],
									"fontname" : "Arial"
								}

							}
, 							{
								"box" : 								{
									"maxclass" : "newobj",
									"text" : "+ 1",
									"numinlets" : 2,
									"numoutlets" : 1,
									"id" : "obj-8",
									"fontsize" : 12.0,
									"outlettype" : [ "int" ],
									"patching_rect" : [ 120.0, 223.0, 32.5, 20.0 ],
									"fontname" : "Arial"
								}

							}
, 							{
								"box" : 								{
									"maxclass" : "newobj",
									"text" : "* 8",
									"numinlets" : 2,
									"numoutlets" : 1,
									"id" : "obj-9",
									"fontsize" : 12.0,
									"outlettype" : [ "int" ],
									"patching_rect" : [ 134.0, 154.0, 32.5, 20.0 ],
									"fontname" : "Arial"
								}

							}
, 							{
								"box" : 								{
									"maxclass" : "newobj",
									"text" : "+ 1",
									"numinlets" : 2,
									"numoutlets" : 1,
									"id" : "obj-10",
									"fontsize" : 12.0,
									"outlettype" : [ "int" ],
									"patching_rect" : [ 50.0, 223.0, 32.5, 20.0 ],
									"fontname" : "Arial"
								}

							}
, 							{
								"box" : 								{
									"maxclass" : "newobj",
									"text" : "- 2",
									"numinlets" : 2,
									"numoutlets" : 1,
									"id" : "obj-11",
									"fontsize" : 12.0,
									"outlettype" : [ "int" ],
									"patching_rect" : [ 64.0, 168.0, 32.5, 20.0 ],
									"fontname" : "Arial"
								}

							}
, 							{
								"box" : 								{
									"maxclass" : "newobj",
									"text" : "r y_offset",
									"linecount" : 2,
									"numinlets" : 0,
									"numoutlets" : 1,
									"id" : "obj-12",
									"fontsize" : 12.0,
									"outlettype" : [ "" ],
									"patching_rect" : [ 64.0, 127.0, 51.0, 34.0 ],
									"fontname" : "Arial"
								}

							}
, 							{
								"box" : 								{
									"maxclass" : "newobj",
									"text" : "r x_offset",
									"numinlets" : 0,
									"numoutlets" : 1,
									"id" : "obj-13",
									"fontsize" : 12.0,
									"outlettype" : [ "" ],
									"patching_rect" : [ 134.0, 126.0, 60.0, 20.0 ],
									"fontname" : "Arial"
								}

							}
, 							{
								"box" : 								{
									"maxclass" : "inlet",
									"numinlets" : 0,
									"numoutlets" : 1,
									"id" : "obj-17",
									"outlettype" : [ "" ],
									"patching_rect" : [ 50.0, 40.0, 25.0, 25.0 ],
									"comment" : "button input (y,x,val) to be offsetted"
								}

							}
, 							{
								"box" : 								{
									"maxclass" : "outlet",
									"numinlets" : 1,
									"numoutlets" : 0,
									"id" : "obj-18",
									"patching_rect" : [ 50.0, 334.0, 25.0, 25.0 ],
									"comment" : "offsetted button press (y,x,val)"
								}

							}
 ],
						"lines" : [ 							{
								"patchline" : 								{
									"source" : [ "obj-11", 0 ],
									"destination" : [ "obj-4", 1 ],
									"hidden" : 0,
									"midpoints" : [ 73.5, 212.0, 374.0, 212.0 ]
								}

							}
, 							{
								"patchline" : 								{
									"source" : [ "obj-9", 0 ],
									"destination" : [ "obj-3", 1 ],
									"hidden" : 0,
									"midpoints" : [ 143.5, 180.0, 350.0, 180.0 ]
								}

							}
, 							{
								"patchline" : 								{
									"source" : [ "obj-9", 0 ],
									"destination" : [ "obj-8", 1 ],
									"hidden" : 0,
									"midpoints" : [  ]
								}

							}
, 							{
								"patchline" : 								{
									"source" : [ "obj-13", 0 ],
									"destination" : [ "obj-9", 0 ],
									"hidden" : 0,
									"midpoints" : [  ]
								}

							}
, 							{
								"patchline" : 								{
									"source" : [ "obj-14", 0 ],
									"destination" : [ "obj-10", 0 ],
									"hidden" : 0,
									"midpoints" : [  ]
								}

							}
, 							{
								"patchline" : 								{
									"source" : [ "obj-14", 1 ],
									"destination" : [ "obj-8", 0 ],
									"hidden" : 0,
									"midpoints" : [  ]
								}

							}
, 							{
								"patchline" : 								{
									"source" : [ "obj-12", 0 ],
									"destination" : [ "obj-11", 0 ],
									"hidden" : 0,
									"midpoints" : [  ]
								}

							}
, 							{
								"patchline" : 								{
									"source" : [ "obj-11", 0 ],
									"destination" : [ "obj-10", 1 ],
									"hidden" : 0,
									"midpoints" : [ 73.5, 198.0, 73.0, 198.0 ]
								}

							}
, 							{
								"patchline" : 								{
									"source" : [ "obj-10", 0 ],
									"destination" : [ "obj-16", 0 ],
									"hidden" : 0,
									"midpoints" : [  ]
								}

							}
, 							{
								"patchline" : 								{
									"source" : [ "obj-8", 0 ],
									"destination" : [ "obj-16", 1 ],
									"hidden" : 0,
									"midpoints" : [ 129.5, 251.0, 83.0, 251.0 ]
								}

							}
, 							{
								"patchline" : 								{
									"source" : [ "obj-14", 2 ],
									"destination" : [ "obj-16", 2 ],
									"hidden" : 0,
									"midpoints" : [ 199.5, 258.0, 106.5, 258.0 ]
								}

							}
, 							{
								"patchline" : 								{
									"source" : [ "obj-17", 0 ],
									"destination" : [ "obj-14", 0 ],
									"hidden" : 0,
									"midpoints" : [  ]
								}

							}
, 							{
								"patchline" : 								{
									"source" : [ "obj-16", 0 ],
									"destination" : [ "obj-18", 0 ],
									"hidden" : 0,
									"midpoints" : [  ]
								}

							}
, 							{
								"patchline" : 								{
									"source" : [ "obj-1", 0 ],
									"destination" : [ "obj-2", 0 ],
									"hidden" : 0,
									"midpoints" : [  ]
								}

							}
, 							{
								"patchline" : 								{
									"source" : [ "obj-5", 0 ],
									"destination" : [ "obj-6", 0 ],
									"hidden" : 0,
									"midpoints" : [  ]
								}

							}
, 							{
								"patchline" : 								{
									"source" : [ "obj-2", 3 ],
									"destination" : [ "obj-5", 3 ],
									"hidden" : 0,
									"midpoints" : [  ]
								}

							}
, 							{
								"patchline" : 								{
									"source" : [ "obj-2", 2 ],
									"destination" : [ "obj-4", 0 ],
									"hidden" : 0,
									"midpoints" : [  ]
								}

							}
, 							{
								"patchline" : 								{
									"source" : [ "obj-4", 0 ],
									"destination" : [ "obj-5", 2 ],
									"hidden" : 0,
									"midpoints" : [  ]
								}

							}
, 							{
								"patchline" : 								{
									"source" : [ "obj-2", 1 ],
									"destination" : [ "obj-3", 0 ],
									"hidden" : 0,
									"midpoints" : [  ]
								}

							}
, 							{
								"patchline" : 								{
									"source" : [ "obj-3", 0 ],
									"destination" : [ "obj-5", 1 ],
									"hidden" : 0,
									"midpoints" : [  ]
								}

							}
, 							{
								"patchline" : 								{
									"source" : [ "obj-2", 0 ],
									"destination" : [ "obj-5", 0 ],
									"hidden" : 0,
									"midpoints" : [  ]
								}

							}
 ]
					}
,
					"saved_object_attributes" : 					{
						"default_fontface" : 0,
						"fontface" : 0,
						"default_fontname" : "Arial",
						"fontsize" : 12.0,
						"globalpatchername" : "",
						"default_fontsize" : 12.0,
						"fontname" : "Arial"
					}

				}

			}
, 			{
				"box" : 				{
					"maxclass" : "number",
					"numinlets" : 1,
					"numoutlets" : 2,
					"id" : "obj-15",
					"fontsize" : 12.0,
					"outlettype" : [ "int", "bang" ],
					"patching_rect" : [ 285.0, 90.0, 50.0, 20.0 ],
					"fontname" : "Arial"
				}

			}
, 			{
				"box" : 				{
					"maxclass" : "newobj",
					"text" : "p drummer",
					"linecount" : 2,
					"numinlets" : 1,
					"numoutlets" : 2,
					"id" : "obj-7",
					"fontsize" : 12.0,
					"outlettype" : [ "", "" ],
					"patching_rect" : [ 276.0, 481.0, 57.0, 34.0 ],
					"fontname" : "Arial",
					"patcher" : 					{
						"fileversion" : 1,
						"rect" : [ 387.0, 95.0, 893.0, 595.0 ],
						"bglocked" : 0,
						"defrect" : [ 387.0, 95.0, 893.0, 595.0 ],
						"openrect" : [ 0.0, 0.0, 0.0, 0.0 ],
						"openinpresentation" : 0,
						"default_fontsize" : 12.0,
						"default_fontface" : 0,
						"default_fontname" : "Arial",
						"gridonopen" : 0,
						"gridsize" : [ 15.0, 15.0 ],
						"gridsnaponopen" : 0,
						"toolbarvisible" : 1,
						"boxanimatetime" : 200,
						"imprint" : 0,
						"metadata" : [  ],
						"boxes" : [ 							{
								"box" : 								{
									"maxclass" : "newobj",
									"text" : "prepend 1",
									"numinlets" : 1,
									"numoutlets" : 1,
									"id" : "obj-5",
									"fontsize" : 12.0,
									"outlettype" : [ "" ],
									"patching_rect" : [ 514.0, 355.0, 65.0, 20.0 ],
									"fontname" : "Arial"
								}

							}
, 							{
								"box" : 								{
									"maxclass" : "newobj",
									"text" : "prepend 1",
									"numinlets" : 1,
									"numoutlets" : 1,
									"id" : "obj-2",
									"fontsize" : 12.0,
									"outlettype" : [ "" ],
									"patching_rect" : [ 365.0, 356.0, 65.0, 20.0 ],
									"fontname" : "Arial"
								}

							}
, 							{
								"box" : 								{
									"maxclass" : "newobj",
									"text" : "p manageDrummerBtns",
									"numinlets" : 1,
									"numoutlets" : 0,
									"id" : "obj-3",
									"fontsize" : 12.0,
									"patching_rect" : [ 224.0, 490.0, 138.0, 20.0 ],
									"fontname" : "Arial",
									"patcher" : 									{
										"fileversion" : 1,
										"rect" : [ 265.0, 136.0, 640.0, 480.0 ],
										"bglocked" : 0,
										"defrect" : [ 265.0, 136.0, 640.0, 480.0 ],
										"openrect" : [ 0.0, 0.0, 0.0, 0.0 ],
										"openinpresentation" : 0,
										"default_fontsize" : 12.0,
										"default_fontface" : 0,
										"default_fontname" : "Arial",
										"gridonopen" : 0,
										"gridsize" : [ 15.0, 15.0 ],
										"gridsnaponopen" : 0,
										"toolbarvisible" : 1,
										"boxanimatetime" : 200,
										"imprint" : 0,
										"visible" : 1,
										"metadata" : [  ],
										"boxes" : [ 											{
												"box" : 												{
													"maxclass" : "newobj",
													"text" : "s pad4_1shot",
													"numinlets" : 1,
													"numoutlets" : 0,
													"id" : "obj-22",
													"fontsize" : 12.0,
													"patching_rect" : [ 465.0, 306.0, 83.0, 20.0 ],
													"fontname" : "Arial"
												}

											}
, 											{
												"box" : 												{
													"maxclass" : "newobj",
													"text" : "s pad3_1shot",
													"numinlets" : 1,
													"numoutlets" : 0,
													"id" : "obj-21",
													"fontsize" : 12.0,
													"patching_rect" : [ 425.0, 330.0, 83.0, 20.0 ],
													"fontname" : "Arial"
												}

											}
, 											{
												"box" : 												{
													"maxclass" : "newobj",
													"text" : "s pad2_1shot",
													"numinlets" : 1,
													"numoutlets" : 0,
													"id" : "obj-20",
													"fontsize" : 12.0,
													"patching_rect" : [ 384.0, 355.0, 83.0, 20.0 ],
													"fontname" : "Arial"
												}

											}
, 											{
												"box" : 												{
													"maxclass" : "newobj",
													"text" : "s pad1_1shot",
													"numinlets" : 1,
													"numoutlets" : 0,
													"id" : "obj-19",
													"fontsize" : 12.0,
													"patching_rect" : [ 343.0, 379.0, 83.0, 20.0 ],
													"fontname" : "Arial"
												}

											}
, 											{
												"box" : 												{
													"maxclass" : "message",
													"text" : "100",
													"numinlets" : 2,
													"numoutlets" : 1,
													"id" : "obj-18",
													"fontsize" : 12.0,
													"outlettype" : [ "" ],
													"patching_rect" : [ 465.0, 233.0, 32.5, 18.0 ],
													"fontname" : "Arial"
												}

											}
, 											{
												"box" : 												{
													"maxclass" : "message",
													"text" : "100",
													"numinlets" : 2,
													"numoutlets" : 1,
													"id" : "obj-17",
													"fontsize" : 12.0,
													"outlettype" : [ "" ],
													"patching_rect" : [ 425.0, 233.0, 32.5, 18.0 ],
													"fontname" : "Arial"
												}

											}
, 											{
												"box" : 												{
													"maxclass" : "message",
													"text" : "100",
													"numinlets" : 2,
													"numoutlets" : 1,
													"id" : "obj-16",
													"fontsize" : 12.0,
													"outlettype" : [ "" ],
													"patching_rect" : [ 384.0, 231.0, 32.5, 18.0 ],
													"fontname" : "Arial"
												}

											}
, 											{
												"box" : 												{
													"maxclass" : "message",
													"text" : "100",
													"numinlets" : 2,
													"numoutlets" : 1,
													"id" : "obj-15",
													"fontsize" : 12.0,
													"outlettype" : [ "" ],
													"patching_rect" : [ 343.0, 231.0, 32.5, 18.0 ],
													"fontname" : "Arial"
												}

											}
, 											{
												"box" : 												{
													"maxclass" : "newobj",
													"text" : "s pad1_clear",
													"linecount" : 2,
													"numinlets" : 1,
													"numoutlets" : 0,
													"id" : "obj-13",
													"fontsize" : 12.0,
													"patching_rect" : [ 221.0, 334.0, 70.0, 34.0 ],
													"fontname" : "Arial"
												}

											}
, 											{
												"box" : 												{
													"maxclass" : "newobj",
													"text" : "s pad2_clear",
													"linecount" : 2,
													"numinlets" : 1,
													"numoutlets" : 0,
													"id" : "obj-12",
													"fontsize" : 12.0,
													"patching_rect" : [ 235.0, 296.0, 69.0, 34.0 ],
													"fontname" : "Arial"
												}

											}
, 											{
												"box" : 												{
													"maxclass" : "newobj",
													"text" : "s pad3_clear",
													"linecount" : 2,
													"numinlets" : 1,
													"numoutlets" : 0,
													"id" : "obj-11",
													"fontsize" : 12.0,
													"patching_rect" : [ 248.0, 256.0, 69.0, 34.0 ],
													"fontname" : "Arial"
												}

											}
, 											{
												"box" : 												{
													"maxclass" : "newobj",
													"text" : "s pad4_clear",
													"linecount" : 2,
													"numinlets" : 1,
													"numoutlets" : 0,
													"id" : "obj-10",
													"fontsize" : 12.0,
													"patching_rect" : [ 262.0, 219.0, 68.0, 34.0 ],
													"fontname" : "Arial"
												}

											}
, 											{
												"box" : 												{
													"maxclass" : "newobj",
													"text" : "route 1",
													"numinlets" : 1,
													"numoutlets" : 2,
													"id" : "obj-7",
													"fontsize" : 12.0,
													"outlettype" : [ "", "" ],
													"patching_rect" : [ 221.0, 124.0, 48.0, 20.0 ],
													"fontname" : "Arial"
												}

											}
, 											{
												"box" : 												{
													"maxclass" : "newobj",
													"text" : "zl rev",
													"numinlets" : 2,
													"numoutlets" : 2,
													"id" : "obj-6",
													"fontsize" : 12.0,
													"outlettype" : [ "", "" ],
													"patching_rect" : [ 221.0, 90.0, 39.0, 20.0 ],
													"fontname" : "Arial"
												}

											}
, 											{
												"box" : 												{
													"maxclass" : "newobj",
													"text" : "route 0 1 2 3 4 5 6 7",
													"numinlets" : 1,
													"numoutlets" : 9,
													"id" : "obj-5",
													"fontsize" : 12.0,
													"outlettype" : [ "", "", "", "", "", "", "", "", "" ],
													"patching_rect" : [ 221.0, 156.0, 127.0, 20.0 ],
													"fontname" : "Arial"
												}

											}
, 											{
												"box" : 												{
													"maxclass" : "newobj",
													"text" : "pack 0 9 0",
													"numinlets" : 3,
													"numoutlets" : 1,
													"id" : "obj-4",
													"fontsize" : 12.0,
													"outlettype" : [ "" ],
													"patching_rect" : [ 84.0, 361.0, 66.0, 20.0 ],
													"fontname" : "Arial"
												}

											}
, 											{
												"box" : 												{
													"maxclass" : "newobj",
													"text" : "s drummer_led",
													"numinlets" : 1,
													"numoutlets" : 0,
													"id" : "obj-3",
													"fontsize" : 12.0,
													"patching_rect" : [ 84.0, 395.0, 91.0, 20.0 ],
													"fontname" : "Arial"
												}

											}
, 											{
												"box" : 												{
													"maxclass" : "newobj",
													"text" : "unpack 0 0",
													"numinlets" : 1,
													"numoutlets" : 2,
													"id" : "obj-2",
													"fontsize" : 12.0,
													"outlettype" : [ "int", "int" ],
													"patching_rect" : [ 84.0, 96.0, 69.0, 20.0 ],
													"fontname" : "Arial"
												}

											}
, 											{
												"box" : 												{
													"maxclass" : "inlet",
													"numinlets" : 0,
													"numoutlets" : 1,
													"id" : "obj-1",
													"outlettype" : [ "" ],
													"patching_rect" : [ 84.0, 43.0, 25.0, 25.0 ],
													"comment" : ""
												}

											}
 ],
										"lines" : [ 											{
												"patchline" : 												{
													"source" : [ "obj-2", 0 ],
													"destination" : [ "obj-4", 0 ],
													"hidden" : 0,
													"midpoints" : [  ]
												}

											}
, 											{
												"patchline" : 												{
													"source" : [ "obj-2", 1 ],
													"destination" : [ "obj-4", 2 ],
													"hidden" : 0,
													"midpoints" : [  ]
												}

											}
, 											{
												"patchline" : 												{
													"source" : [ "obj-4", 0 ],
													"destination" : [ "obj-3", 0 ],
													"hidden" : 0,
													"midpoints" : [  ]
												}

											}
, 											{
												"patchline" : 												{
													"source" : [ "obj-18", 0 ],
													"destination" : [ "obj-22", 0 ],
													"hidden" : 0,
													"midpoints" : [  ]
												}

											}
, 											{
												"patchline" : 												{
													"source" : [ "obj-17", 0 ],
													"destination" : [ "obj-21", 0 ],
													"hidden" : 0,
													"midpoints" : [  ]
												}

											}
, 											{
												"patchline" : 												{
													"source" : [ "obj-16", 0 ],
													"destination" : [ "obj-20", 0 ],
													"hidden" : 0,
													"midpoints" : [  ]
												}

											}
, 											{
												"patchline" : 												{
													"source" : [ "obj-15", 0 ],
													"destination" : [ "obj-19", 0 ],
													"hidden" : 0,
													"midpoints" : [  ]
												}

											}
, 											{
												"patchline" : 												{
													"source" : [ "obj-5", 7 ],
													"destination" : [ "obj-18", 0 ],
													"hidden" : 0,
													"midpoints" : [ 325.0, 193.0, 474.5, 193.0 ]
												}

											}
, 											{
												"patchline" : 												{
													"source" : [ "obj-5", 6 ],
													"destination" : [ "obj-17", 0 ],
													"hidden" : 0,
													"midpoints" : [ 311.5, 199.0, 434.5, 199.0 ]
												}

											}
, 											{
												"patchline" : 												{
													"source" : [ "obj-5", 5 ],
													"destination" : [ "obj-16", 0 ],
													"hidden" : 0,
													"midpoints" : [ 298.0, 204.0, 393.5, 204.0 ]
												}

											}
, 											{
												"patchline" : 												{
													"source" : [ "obj-5", 4 ],
													"destination" : [ "obj-15", 0 ],
													"hidden" : 0,
													"midpoints" : [ 284.5, 208.0, 352.5, 208.0 ]
												}

											}
, 											{
												"patchline" : 												{
													"source" : [ "obj-5", 3 ],
													"destination" : [ "obj-10", 0 ],
													"hidden" : 0,
													"midpoints" : [  ]
												}

											}
, 											{
												"patchline" : 												{
													"source" : [ "obj-5", 2 ],
													"destination" : [ "obj-11", 0 ],
													"hidden" : 0,
													"midpoints" : [  ]
												}

											}
, 											{
												"patchline" : 												{
													"source" : [ "obj-5", 1 ],
													"destination" : [ "obj-12", 0 ],
													"hidden" : 0,
													"midpoints" : [  ]
												}

											}
, 											{
												"patchline" : 												{
													"source" : [ "obj-5", 0 ],
													"destination" : [ "obj-13", 0 ],
													"hidden" : 0,
													"midpoints" : [  ]
												}

											}
, 											{
												"patchline" : 												{
													"source" : [ "obj-7", 0 ],
													"destination" : [ "obj-5", 0 ],
													"hidden" : 0,
													"midpoints" : [  ]
												}

											}
, 											{
												"patchline" : 												{
													"source" : [ "obj-6", 0 ],
													"destination" : [ "obj-7", 0 ],
													"hidden" : 0,
													"midpoints" : [  ]
												}

											}
, 											{
												"patchline" : 												{
													"source" : [ "obj-1", 0 ],
													"destination" : [ "obj-6", 0 ],
													"hidden" : 0,
													"midpoints" : [ 93.5, 73.0, 230.5, 73.0 ]
												}

											}
, 											{
												"patchline" : 												{
													"source" : [ "obj-1", 0 ],
													"destination" : [ "obj-2", 0 ],
													"hidden" : 0,
													"midpoints" : [  ]
												}

											}
 ]
									}
,
									"saved_object_attributes" : 									{
										"default_fontface" : 0,
										"fontface" : 0,
										"default_fontname" : "Arial",
										"fontsize" : 12.0,
										"globalpatchername" : "",
										"default_fontsize" : 12.0,
										"fontname" : "Arial"
									}

								}

							}
, 							{
								"box" : 								{
									"maxclass" : "newobj",
									"text" : "s ch9_pad_vol",
									"numinlets" : 1,
									"numoutlets" : 0,
									"id" : "obj-28",
									"fontsize" : 12.0,
									"patching_rect" : [ 238.0, 462.0, 88.0, 20.0 ],
									"fontname" : "Arial"
								}

							}
, 							{
								"box" : 								{
									"maxclass" : "newobj",
									"text" : "pack 0 0 0",
									"numinlets" : 3,
									"numoutlets" : 1,
									"id" : "obj-16",
									"fontsize" : 12.0,
									"outlettype" : [ "" ],
									"patching_rect" : [ 365.0, 318.0, 79.0, 20.0 ],
									"fontname" : "Arial"
								}

							}
, 							{
								"box" : 								{
									"maxclass" : "newobj",
									"text" : "- 1",
									"numinlets" : 2,
									"numoutlets" : 1,
									"id" : "obj-4",
									"fontsize" : 12.0,
									"outlettype" : [ "int" ],
									"patching_rect" : [ 395.0, 270.0, 32.5, 20.0 ],
									"fontname" : "Arial"
								}

							}
, 							{
								"box" : 								{
									"maxclass" : "newobj",
									"text" : "unpack 0 0 0",
									"numinlets" : 1,
									"numoutlets" : 3,
									"id" : "obj-6",
									"fontsize" : 12.0,
									"outlettype" : [ "int", "int", "int" ],
									"patching_rect" : [ 365.0, 228.0, 79.0, 20.0 ],
									"fontname" : "Arial"
								}

							}
, 							{
								"box" : 								{
									"maxclass" : "outlet",
									"numinlets" : 1,
									"numoutlets" : 0,
									"id" : "obj-18",
									"patching_rect" : [ 514.0, 403.0, 25.0, 25.0 ],
									"comment" : "offscreen matrix output"
								}

							}
, 							{
								"box" : 								{
									"maxclass" : "newobj",
									"text" : "pack 0 0 0",
									"numinlets" : 3,
									"numoutlets" : 1,
									"id" : "obj-19",
									"fontsize" : 12.0,
									"outlettype" : [ "" ],
									"patching_rect" : [ 514.0, 314.0, 80.0, 20.0 ],
									"fontname" : "Arial"
								}

							}
, 							{
								"box" : 								{
									"maxclass" : "newobj",
									"text" : "+ 1",
									"numinlets" : 2,
									"numoutlets" : 1,
									"id" : "obj-15",
									"fontsize" : 12.0,
									"outlettype" : [ "int" ],
									"patching_rect" : [ 545.0, 221.0, 32.5, 20.0 ],
									"fontname" : "Arial"
								}

							}
, 							{
								"box" : 								{
									"maxclass" : "newobj",
									"text" : "unpack 0 0 0",
									"numinlets" : 1,
									"numoutlets" : 3,
									"id" : "obj-20",
									"fontsize" : 12.0,
									"outlettype" : [ "int", "int", "int" ],
									"patching_rect" : [ 515.0, 189.0, 79.0, 20.0 ],
									"fontname" : "Arial"
								}

							}
, 							{
								"box" : 								{
									"maxclass" : "outlet",
									"numinlets" : 1,
									"numoutlets" : 0,
									"id" : "obj-21",
									"patching_rect" : [ 365.0, 399.0, 25.0, 25.0 ],
									"comment" : "led output"
								}

							}
, 							{
								"box" : 								{
									"maxclass" : "newobj",
									"text" : "r drummer_led",
									"numinlets" : 0,
									"numoutlets" : 1,
									"id" : "obj-22",
									"fontsize" : 12.0,
									"outlettype" : [ "" ],
									"patching_rect" : [ 365.0, 155.0, 89.0, 20.0 ],
									"fontname" : "Arial"
								}

							}
, 							{
								"box" : 								{
									"maxclass" : "newobj",
									"text" : "s pad4_rec_mono",
									"linecount" : 2,
									"numinlets" : 1,
									"numoutlets" : 0,
									"id" : "obj-14",
									"fontsize" : 12.0,
									"patching_rect" : [ 18.0, 453.0, 95.0, 34.0 ],
									"fontname" : "Arial"
								}

							}
, 							{
								"box" : 								{
									"maxclass" : "newobj",
									"text" : "s pad3_rec_mono",
									"linecount" : 2,
									"numinlets" : 1,
									"numoutlets" : 0,
									"id" : "obj-13",
									"fontsize" : 12.0,
									"patching_rect" : [ 18.0, 390.0, 95.0, 34.0 ],
									"fontname" : "Arial"
								}

							}
, 							{
								"box" : 								{
									"maxclass" : "newobj",
									"text" : "s pad2_rec_mono",
									"linecount" : 2,
									"numinlets" : 1,
									"numoutlets" : 0,
									"id" : "obj-12",
									"fontsize" : 12.0,
									"patching_rect" : [ 16.0, 325.0, 96.0, 34.0 ],
									"fontname" : "Arial"
								}

							}
, 							{
								"box" : 								{
									"maxclass" : "newobj",
									"text" : "s pad1_rec_mono",
									"linecount" : 2,
									"numinlets" : 1,
									"numoutlets" : 0,
									"id" : "obj-11",
									"fontsize" : 12.0,
									"patching_rect" : [ 17.0, 268.0, 97.0, 34.0 ],
									"fontname" : "Arial"
								}

							}
, 							{
								"box" : 								{
									"maxclass" : "newobj",
									"text" : "route 0 1 2 3 8",
									"numinlets" : 1,
									"numoutlets" : 6,
									"id" : "obj-10",
									"fontsize" : 12.0,
									"outlettype" : [ "", "", "", "", "", "" ],
									"patching_rect" : [ 169.0, 213.0, 88.0, 20.0 ],
									"fontname" : "Arial"
								}

							}
, 							{
								"box" : 								{
									"maxclass" : "inlet",
									"numinlets" : 0,
									"numoutlets" : 1,
									"id" : "obj-1",
									"outlettype" : [ "" ],
									"patching_rect" : [ 169.0, 76.0, 25.0, 25.0 ],
									"comment" : "button press (y,x,val)"
								}

							}
 ],
						"lines" : [ 							{
								"patchline" : 								{
									"source" : [ "obj-10", 4 ],
									"destination" : [ "obj-3", 0 ],
									"hidden" : 0,
									"midpoints" : [  ]
								}

							}
, 							{
								"patchline" : 								{
									"source" : [ "obj-10", 5 ],
									"destination" : [ "obj-28", 0 ],
									"hidden" : 0,
									"midpoints" : [  ]
								}

							}
, 							{
								"patchline" : 								{
									"source" : [ "obj-10", 0 ],
									"destination" : [ "obj-11", 0 ],
									"hidden" : 0,
									"midpoints" : [ 178.5, 251.0, 26.5, 251.0 ]
								}

							}
, 							{
								"patchline" : 								{
									"source" : [ "obj-10", 1 ],
									"destination" : [ "obj-12", 0 ],
									"hidden" : 0,
									"midpoints" : [ 192.300003, 313.0, 25.5, 313.0 ]
								}

							}
, 							{
								"patchline" : 								{
									"source" : [ "obj-10", 2 ],
									"destination" : [ "obj-13", 0 ],
									"hidden" : 0,
									"midpoints" : [ 206.100006, 373.0, 27.5, 373.0 ]
								}

							}
, 							{
								"patchline" : 								{
									"source" : [ "obj-10", 3 ],
									"destination" : [ "obj-14", 0 ],
									"hidden" : 0,
									"midpoints" : [ 219.899994, 441.0, 27.5, 441.0 ]
								}

							}
, 							{
								"patchline" : 								{
									"source" : [ "obj-1", 0 ],
									"destination" : [ "obj-10", 0 ],
									"hidden" : 0,
									"midpoints" : [  ]
								}

							}
, 							{
								"patchline" : 								{
									"source" : [ "obj-22", 0 ],
									"destination" : [ "obj-6", 0 ],
									"hidden" : 0,
									"midpoints" : [  ]
								}

							}
, 							{
								"patchline" : 								{
									"source" : [ "obj-22", 0 ],
									"destination" : [ "obj-20", 0 ],
									"hidden" : 0,
									"midpoints" : [ 374.5, 179.0, 524.5, 179.0 ]
								}

							}
, 							{
								"patchline" : 								{
									"source" : [ "obj-20", 2 ],
									"destination" : [ "obj-19", 2 ],
									"hidden" : 0,
									"midpoints" : [  ]
								}

							}
, 							{
								"patchline" : 								{
									"source" : [ "obj-15", 0 ],
									"destination" : [ "obj-19", 1 ],
									"hidden" : 0,
									"midpoints" : [  ]
								}

							}
, 							{
								"patchline" : 								{
									"source" : [ "obj-20", 0 ],
									"destination" : [ "obj-19", 0 ],
									"hidden" : 0,
									"midpoints" : [  ]
								}

							}
, 							{
								"patchline" : 								{
									"source" : [ "obj-20", 1 ],
									"destination" : [ "obj-15", 0 ],
									"hidden" : 0,
									"midpoints" : [  ]
								}

							}
, 							{
								"patchline" : 								{
									"source" : [ "obj-6", 2 ],
									"destination" : [ "obj-16", 2 ],
									"hidden" : 0,
									"midpoints" : [  ]
								}

							}
, 							{
								"patchline" : 								{
									"source" : [ "obj-4", 0 ],
									"destination" : [ "obj-16", 1 ],
									"hidden" : 0,
									"midpoints" : [  ]
								}

							}
, 							{
								"patchline" : 								{
									"source" : [ "obj-6", 1 ],
									"destination" : [ "obj-4", 0 ],
									"hidden" : 0,
									"midpoints" : [  ]
								}

							}
, 							{
								"patchline" : 								{
									"source" : [ "obj-6", 0 ],
									"destination" : [ "obj-16", 0 ],
									"hidden" : 0,
									"midpoints" : [  ]
								}

							}
, 							{
								"patchline" : 								{
									"source" : [ "obj-19", 0 ],
									"destination" : [ "obj-5", 0 ],
									"hidden" : 0,
									"midpoints" : [  ]
								}

							}
, 							{
								"patchline" : 								{
									"source" : [ "obj-5", 0 ],
									"destination" : [ "obj-18", 0 ],
									"hidden" : 0,
									"midpoints" : [  ]
								}

							}
, 							{
								"patchline" : 								{
									"source" : [ "obj-16", 0 ],
									"destination" : [ "obj-2", 0 ],
									"hidden" : 0,
									"midpoints" : [  ]
								}

							}
, 							{
								"patchline" : 								{
									"source" : [ "obj-2", 0 ],
									"destination" : [ "obj-21", 0 ],
									"hidden" : 0,
									"midpoints" : [  ]
								}

							}
 ]
					}
,
					"saved_object_attributes" : 					{
						"default_fontface" : 0,
						"fontface" : 0,
						"default_fontname" : "Arial",
						"fontsize" : 12.0,
						"globalpatchername" : "",
						"default_fontsize" : 12.0,
						"fontname" : "Arial"
					}

				}

			}
, 			{
				"box" : 				{
					"maxclass" : "outlet",
					"numinlets" : 1,
					"numoutlets" : 0,
					"id" : "obj-6",
					"patching_rect" : [ 370.0, 661.0, 25.0, 25.0 ],
					"comment" : "offscreen output matrix"
				}

			}
, 			{
				"box" : 				{
					"maxclass" : "outlet",
					"numinlets" : 1,
					"numoutlets" : 0,
					"id" : "obj-2",
					"patching_rect" : [ 97.0, 489.0, 25.0, 25.0 ],
					"comment" : "led output"
				}

			}
, 			{
				"box" : 				{
					"maxclass" : "newobj",
					"text" : "+ 1",
					"numinlets" : 2,
					"numoutlets" : 1,
					"id" : "obj-5",
					"fontsize" : 12.0,
					"outlettype" : [ "int" ],
					"patching_rect" : [ 285.0, 194.0, 32.5, 20.0 ],
					"fontname" : "Arial"
				}

			}
, 			{
				"box" : 				{
					"maxclass" : "newobj",
					"text" : "gate 15",
					"numinlets" : 2,
					"numoutlets" : 15,
					"id" : "obj-4",
					"fontsize" : 12.0,
					"outlettype" : [ "", "", "", "", "", "", "", "", "", "", "", "", "", "", "" ],
					"patching_rect" : [ 201.0, 315.0, 282.0, 20.0 ],
					"fontname" : "Arial"
				}

			}
, 			{
				"box" : 				{
					"maxclass" : "bpatcher",
					"numinlets" : 1,
					"numoutlets" : 2,
					"presentation_rect" : [ 1.0, 1.0, 293.0, 59.0 ],
					"id" : "obj-3",
					"name" : "manageSlicer.maxpat",
					"outlettype" : [ "", "" ],
					"patching_rect" : [ 201.0, 480.0, 61.0, 44.0 ],
					"args" : [  ],
					"presentation" : 1
				}

			}
, 			{
				"box" : 				{
					"maxclass" : "inlet",
					"numinlets" : 0,
					"numoutlets" : 1,
					"id" : "obj-1",
					"outlettype" : [ "" ],
					"patching_rect" : [ 285.0, 33.0, 25.0, 25.0 ],
					"comment" : "pagenumber"
				}

			}
, 			{
				"box" : 				{
					"maxclass" : "inlet",
					"numinlets" : 0,
					"numoutlets" : 1,
					"id" : "obj-37",
					"outlettype" : [ "" ],
					"patching_rect" : [ 32.0, 40.0, 25.0, 25.0 ],
					"comment" : "matrix button press (y, x, val)"
				}

			}
 ],
		"lines" : [ 			{
				"patchline" : 				{
					"source" : [ "obj-4", 10 ],
					"destination" : [ "obj-18", 0 ],
					"hidden" : 0,
					"midpoints" : [ 398.357147, 424.0, 905.5, 424.0 ]
				}

			}
, 			{
				"patchline" : 				{
					"source" : [ "obj-18", 0 ],
					"destination" : [ "obj-21", 0 ],
					"hidden" : 0,
					"midpoints" : [ 905.5, 635.0, 210.5, 635.0 ]
				}

			}
, 			{
				"patchline" : 				{
					"source" : [ "obj-18", 1 ],
					"destination" : [ "obj-6", 0 ],
					"hidden" : 0,
					"midpoints" : [ 943.5, 643.0, 379.5, 643.0 ]
				}

			}
, 			{
				"patchline" : 				{
					"source" : [ "obj-10", 1 ],
					"destination" : [ "obj-6", 0 ],
					"hidden" : 0,
					"midpoints" : [ 393.5, 545.0, 379.5, 545.0 ]
				}

			}
, 			{
				"patchline" : 				{
					"source" : [ "obj-10", 0 ],
					"destination" : [ "obj-21", 0 ],
					"hidden" : 0,
					"midpoints" : [ 353.5, 544.0, 210.5, 544.0 ]
				}

			}
, 			{
				"patchline" : 				{
					"source" : [ "obj-4", 2 ],
					"destination" : [ "obj-10", 0 ],
					"hidden" : 0,
					"midpoints" : [ 248.071426, 467.0, 353.5, 467.0 ]
				}

			}
, 			{
				"patchline" : 				{
					"source" : [ "obj-25", 0 ],
					"destination" : [ "obj-2", 0 ],
					"hidden" : 0,
					"midpoints" : [  ]
				}

			}
, 			{
				"patchline" : 				{
					"source" : [ "obj-19", 1 ],
					"destination" : [ "obj-25", 0 ],
					"hidden" : 0,
					"midpoints" : [  ]
				}

			}
, 			{
				"patchline" : 				{
					"source" : [ "obj-20", 0 ],
					"destination" : [ "obj-19", 1 ],
					"hidden" : 0,
					"midpoints" : [  ]
				}

			}
, 			{
				"patchline" : 				{
					"source" : [ "obj-19", 0 ],
					"destination" : [ "obj-4", 1 ],
					"hidden" : 0,
					"midpoints" : [ 41.5, 359.0, 196.0, 359.0, 196.0, 293.0, 473.5, 293.0 ]
				}

			}
, 			{
				"patchline" : 				{
					"source" : [ "obj-37", 0 ],
					"destination" : [ "obj-19", 0 ],
					"hidden" : 0,
					"midpoints" : [  ]
				}

			}
, 			{
				"patchline" : 				{
					"source" : [ "obj-15", 0 ],
					"destination" : [ "obj-5", 0 ],
					"hidden" : 0,
					"midpoints" : [  ]
				}

			}
, 			{
				"patchline" : 				{
					"source" : [ "obj-1", 0 ],
					"destination" : [ "obj-15", 0 ],
					"hidden" : 0,
					"midpoints" : [  ]
				}

			}
, 			{
				"patchline" : 				{
					"source" : [ "obj-4", 1 ],
					"destination" : [ "obj-7", 0 ],
					"hidden" : 0,
					"midpoints" : [ 229.285721, 471.0, 285.5, 471.0 ]
				}

			}
, 			{
				"patchline" : 				{
					"source" : [ "obj-5", 0 ],
					"destination" : [ "obj-4", 0 ],
					"hidden" : 0,
					"midpoints" : [ 294.5, 301.0, 210.5, 301.0 ]
				}

			}
, 			{
				"patchline" : 				{
					"source" : [ "obj-7", 0 ],
					"destination" : [ "obj-21", 0 ],
					"hidden" : 0,
					"midpoints" : [ 285.5, 561.0, 210.5, 561.0 ]
				}

			}
, 			{
				"patchline" : 				{
					"source" : [ "obj-7", 1 ],
					"destination" : [ "obj-6", 0 ],
					"hidden" : 0,
					"midpoints" : [ 323.5, 557.0, 379.5, 557.0 ]
				}

			}
, 			{
				"patchline" : 				{
					"source" : [ "obj-4", 0 ],
					"destination" : [ "obj-3", 0 ],
					"hidden" : 0,
					"midpoints" : [  ]
				}

			}
, 			{
				"patchline" : 				{
					"source" : [ "obj-3", 0 ],
					"destination" : [ "obj-21", 0 ],
					"hidden" : 0,
					"midpoints" : [  ]
				}

			}
, 			{
				"patchline" : 				{
					"source" : [ "obj-3", 1 ],
					"destination" : [ "obj-6", 0 ],
					"hidden" : 0,
					"midpoints" : [ 252.5, 561.0, 379.5, 561.0 ]
				}

			}
, 			{
				"patchline" : 				{
					"source" : [ "obj-9", 1 ],
					"destination" : [ "obj-6", 0 ],
					"hidden" : 0,
					"midpoints" : [ 472.5, 556.0, 379.5, 556.0 ]
				}

			}
, 			{
				"patchline" : 				{
					"source" : [ "obj-9", 0 ],
					"destination" : [ "obj-21", 0 ],
					"hidden" : 0,
					"midpoints" : [ 426.5, 551.0, 210.5, 551.0 ]
				}

			}
, 			{
				"patchline" : 				{
					"source" : [ "obj-4", 3 ],
					"destination" : [ "obj-9", 0 ],
					"hidden" : 0,
					"midpoints" : [ 266.857147, 463.0, 426.5, 463.0 ]
				}

			}
, 			{
				"patchline" : 				{
					"source" : [ "obj-4", 4 ],
					"destination" : [ "obj-8", 0 ],
					"hidden" : 0,
					"midpoints" : [ 285.642853, 458.0, 520.5, 458.0 ]
				}

			}
, 			{
				"patchline" : 				{
					"source" : [ "obj-8", 0 ],
					"destination" : [ "obj-21", 0 ],
					"hidden" : 0,
					"midpoints" : [ 520.5, 614.0, 210.5, 614.0 ]
				}

			}
, 			{
				"patchline" : 				{
					"source" : [ "obj-8", 1 ],
					"destination" : [ "obj-6", 0 ],
					"hidden" : 0,
					"midpoints" : [ 538.5, 560.0, 379.5, 560.0 ]
				}

			}
, 			{
				"patchline" : 				{
					"source" : [ "obj-11", 0 ],
					"destination" : [ "obj-21", 0 ],
					"hidden" : 0,
					"midpoints" : [ 570.5, 566.0, 210.5, 566.0 ]
				}

			}
, 			{
				"patchline" : 				{
					"source" : [ "obj-11", 1 ],
					"destination" : [ "obj-6", 0 ],
					"hidden" : 0,
					"midpoints" : [ 600.5, 572.0, 379.5, 572.0 ]
				}

			}
, 			{
				"patchline" : 				{
					"source" : [ "obj-4", 5 ],
					"destination" : [ "obj-11", 0 ],
					"hidden" : 0,
					"midpoints" : [ 304.428558, 454.0, 570.5, 454.0 ]
				}

			}
, 			{
				"patchline" : 				{
					"source" : [ "obj-12", 0 ],
					"destination" : [ "obj-21", 0 ],
					"hidden" : 0,
					"midpoints" : [ 641.5, 578.0, 210.5, 578.0 ]
				}

			}
, 			{
				"patchline" : 				{
					"source" : [ "obj-12", 1 ],
					"destination" : [ "obj-6", 0 ],
					"hidden" : 0,
					"midpoints" : [ 682.5, 586.0, 378.0, 586.0, 379.5, 551.0 ]
				}

			}
, 			{
				"patchline" : 				{
					"source" : [ "obj-4", 6 ],
					"destination" : [ "obj-12", 0 ],
					"hidden" : 0,
					"midpoints" : [ 323.214294, 449.0, 641.5, 449.0 ]
				}

			}
, 			{
				"patchline" : 				{
					"source" : [ "obj-13", 0 ],
					"destination" : [ "obj-21", 0 ],
					"hidden" : 0,
					"midpoints" : [ 707.5, 593.0, 210.5, 593.0 ]
				}

			}
, 			{
				"patchline" : 				{
					"source" : [ "obj-13", 1 ],
					"destination" : [ "obj-6", 0 ],
					"hidden" : 0,
					"midpoints" : [ 735.5, 601.0, 379.5, 601.0 ]
				}

			}
, 			{
				"patchline" : 				{
					"source" : [ "obj-4", 7 ],
					"destination" : [ "obj-13", 0 ],
					"hidden" : 0,
					"midpoints" : [ 342.0, 443.0, 707.5, 443.0 ]
				}

			}
, 			{
				"patchline" : 				{
					"source" : [ "obj-14", 0 ],
					"destination" : [ "obj-21", 0 ],
					"hidden" : 0,
					"midpoints" : [ 764.5, 608.0, 210.5, 608.0 ]
				}

			}
, 			{
				"patchline" : 				{
					"source" : [ "obj-14", 1 ],
					"destination" : [ "obj-6", 0 ],
					"hidden" : 0,
					"midpoints" : [ 796.5, 614.0, 379.5, 614.0 ]
				}

			}
, 			{
				"patchline" : 				{
					"source" : [ "obj-4", 8 ],
					"destination" : [ "obj-14", 0 ],
					"hidden" : 0,
					"midpoints" : [ 360.785706, 437.0, 764.5, 437.0 ]
				}

			}
, 			{
				"patchline" : 				{
					"source" : [ "obj-4", 9 ],
					"destination" : [ "obj-16", 0 ],
					"hidden" : 0,
					"midpoints" : [ 379.571442, 431.0, 833.5, 431.0 ]
				}

			}
, 			{
				"patchline" : 				{
					"source" : [ "obj-16", 0 ],
					"destination" : [ "obj-21", 0 ],
					"hidden" : 0,
					"midpoints" : [ 833.5, 621.0, 210.5, 621.0 ]
				}

			}
, 			{
				"patchline" : 				{
					"source" : [ "obj-16", 1 ],
					"destination" : [ "obj-6", 0 ],
					"hidden" : 0,
					"midpoints" : [ 871.5, 628.0, 379.5, 628.0 ]
				}

			}
, 			{
				"patchline" : 				{
					"source" : [ "obj-17", 0 ],
					"destination" : [ "obj-23", 0 ],
					"hidden" : 0,
					"midpoints" : [  ]
				}

			}
 ]
	}

}
