{
	"patcher" : 	{
		"fileversion" : 1,
		"rect" : [ 200.0, 48.0, 1089.0, 727.0 ],
		"bglocked" : 0,
		"defrect" : [ 200.0, 48.0, 1089.0, 727.0 ],
		"openrect" : [ 0.0, 0.0, 0.0, 0.0 ],
		"openinpresentation" : 0,
		"default_fontsize" : 12.0,
		"default_fontface" : 0,
		"default_fontname" : "Arial",
		"gridonopen" : 0,
		"gridsize" : [ 15.0, 15.0 ],
		"gridsnaponopen" : 0,
		"toolbarvisible" : 1,
		"boxanimatetime" : 200,
		"imprint" : 0,
		"metadata" : [  ],
		"boxes" : [ 			{
				"box" : 				{
					"maxclass" : "message",
					"text" : "stop",
					"outlettype" : [ "" ],
					"patching_rect" : [ 137.0, 1005.0, 27.0, 15.0 ],
					"fontsize" : 9.0,
					"numinlets" : 2,
					"id" : "obj-1",
					"fontname" : "Arial",
					"numoutlets" : 1
				}

			}
, 			{
				"box" : 				{
					"maxclass" : "message",
					"text" : "record",
					"outlettype" : [ "" ],
					"patching_rect" : [ 69.0, 1005.0, 39.0, 15.0 ],
					"fontsize" : 9.0,
					"numinlets" : 2,
					"id" : "obj-2",
					"fontname" : "Arial",
					"numoutlets" : 1
				}

			}
, 			{
				"box" : 				{
					"maxclass" : "newobj",
					"text" : "mtr 8",
					"outlettype" : [ "", "", "", "", "", "", "", "", "" ],
					"patching_rect" : [ 2.0, 1089.0, 420.0, 17.0 ],
					"fontsize" : 9.0,
					"numinlets" : 9,
					"id" : "obj-3",
					"fontname" : "Arial",
					"numoutlets" : 9
				}

			}
, 			{
				"box" : 				{
					"maxclass" : "newobj",
					"text" : "r ch1_fx2",
					"outlettype" : [ "" ],
					"patching_rect" : [ 53.0, 1031.0, 54.0, 17.0 ],
					"fontsize" : 9.0,
					"numinlets" : 0,
					"id" : "obj-4",
					"fontname" : "Arial",
					"numoutlets" : 1
				}

			}
, 			{
				"box" : 				{
					"maxclass" : "newobj",
					"text" : "r ch2_fx2",
					"outlettype" : [ "" ],
					"patching_rect" : [ 104.0, 1053.0, 54.0, 17.0 ],
					"fontsize" : 9.0,
					"numinlets" : 0,
					"id" : "obj-5",
					"fontname" : "Arial",
					"numoutlets" : 1
				}

			}
, 			{
				"box" : 				{
					"maxclass" : "newobj",
					"text" : "r ch3_fx2",
					"outlettype" : [ "" ],
					"patching_rect" : [ 155.0, 1031.0, 54.0, 17.0 ],
					"fontsize" : 9.0,
					"numinlets" : 0,
					"id" : "obj-6",
					"fontname" : "Arial",
					"numoutlets" : 1
				}

			}
, 			{
				"box" : 				{
					"maxclass" : "newobj",
					"text" : "r ch4_fx2",
					"outlettype" : [ "" ],
					"patching_rect" : [ 206.0, 1052.0, 54.0, 17.0 ],
					"fontsize" : 9.0,
					"numinlets" : 0,
					"id" : "obj-7",
					"fontname" : "Arial",
					"numoutlets" : 1
				}

			}
, 			{
				"box" : 				{
					"maxclass" : "newobj",
					"text" : "r ch5_fx2",
					"outlettype" : [ "" ],
					"patching_rect" : [ 257.0, 1030.0, 54.0, 17.0 ],
					"fontsize" : 9.0,
					"numinlets" : 0,
					"id" : "obj-8",
					"fontname" : "Arial",
					"numoutlets" : 1
				}

			}
, 			{
				"box" : 				{
					"maxclass" : "newobj",
					"text" : "r ch6_fx2",
					"outlettype" : [ "" ],
					"patching_rect" : [ 308.0, 1052.0, 54.0, 17.0 ],
					"fontsize" : 9.0,
					"numinlets" : 0,
					"id" : "obj-9",
					"fontname" : "Arial",
					"numoutlets" : 1
				}

			}
, 			{
				"box" : 				{
					"maxclass" : "newobj",
					"text" : "r ch7_fx2",
					"outlettype" : [ "" ],
					"patching_rect" : [ 359.0, 1031.0, 54.0, 17.0 ],
					"fontsize" : 9.0,
					"numinlets" : 0,
					"id" : "obj-10",
					"fontname" : "Arial",
					"numoutlets" : 1
				}

			}
, 			{
				"box" : 				{
					"maxclass" : "newobj",
					"text" : "r ch8_fx2",
					"outlettype" : [ "" ],
					"patching_rect" : [ 410.0, 1051.0, 54.0, 17.0 ],
					"fontsize" : 9.0,
					"numinlets" : 0,
					"id" : "obj-11",
					"fontname" : "Arial",
					"numoutlets" : 1
				}

			}
, 			{
				"box" : 				{
					"maxclass" : "newobj",
					"text" : "s ch1_fx2",
					"patching_rect" : [ 53.0, 1143.0, 54.0, 17.0 ],
					"fontsize" : 9.0,
					"numinlets" : 1,
					"id" : "obj-12",
					"fontname" : "Arial",
					"numoutlets" : 0
				}

			}
, 			{
				"box" : 				{
					"maxclass" : "newobj",
					"text" : "s ch2_fx2",
					"patching_rect" : [ 104.0, 1121.0, 54.0, 17.0 ],
					"fontsize" : 9.0,
					"numinlets" : 1,
					"id" : "obj-13",
					"fontname" : "Arial",
					"numoutlets" : 0
				}

			}
, 			{
				"box" : 				{
					"maxclass" : "newobj",
					"text" : "s ch3_fx2",
					"patching_rect" : [ 155.0, 1143.0, 54.0, 17.0 ],
					"fontsize" : 9.0,
					"numinlets" : 1,
					"id" : "obj-14",
					"fontname" : "Arial",
					"numoutlets" : 0
				}

			}
, 			{
				"box" : 				{
					"maxclass" : "newobj",
					"text" : "s ch4_fx2",
					"patching_rect" : [ 206.0, 1122.0, 54.0, 17.0 ],
					"fontsize" : 9.0,
					"numinlets" : 1,
					"id" : "obj-15",
					"fontname" : "Arial",
					"numoutlets" : 0
				}

			}
, 			{
				"box" : 				{
					"maxclass" : "newobj",
					"text" : "s ch5_fx2",
					"patching_rect" : [ 257.0, 1144.0, 54.0, 17.0 ],
					"fontsize" : 9.0,
					"numinlets" : 1,
					"id" : "obj-16",
					"fontname" : "Arial",
					"numoutlets" : 0
				}

			}
, 			{
				"box" : 				{
					"maxclass" : "newobj",
					"text" : "s ch6_fx2",
					"patching_rect" : [ 308.0, 1122.0, 54.0, 17.0 ],
					"fontsize" : 9.0,
					"numinlets" : 1,
					"id" : "obj-17",
					"fontname" : "Arial",
					"numoutlets" : 0
				}

			}
, 			{
				"box" : 				{
					"maxclass" : "newobj",
					"text" : "s ch7_fx2",
					"patching_rect" : [ 359.0, 1145.0, 54.0, 17.0 ],
					"fontsize" : 9.0,
					"numinlets" : 1,
					"id" : "obj-18",
					"fontname" : "Arial",
					"numoutlets" : 0
				}

			}
, 			{
				"box" : 				{
					"maxclass" : "newobj",
					"text" : "s ch8_fx2",
					"patching_rect" : [ 410.0, 1123.0, 54.0, 17.0 ],
					"fontsize" : 9.0,
					"numinlets" : 1,
					"id" : "obj-19",
					"fontname" : "Arial",
					"numoutlets" : 0
				}

			}
, 			{
				"box" : 				{
					"maxclass" : "message",
					"text" : "play",
					"outlettype" : [ "" ],
					"patching_rect" : [ 2.0, 1004.0, 30.0, 15.0 ],
					"fontsize" : 9.0,
					"numinlets" : 2,
					"id" : "obj-20",
					"fontname" : "Arial",
					"numoutlets" : 1
				}

			}
, 			{
				"box" : 				{
					"maxclass" : "newobj",
					"text" : "r mrecplay",
					"outlettype" : [ "" ],
					"patching_rect" : [ 2.0, 976.0, 58.0, 17.0 ],
					"fontsize" : 9.0,
					"numinlets" : 0,
					"id" : "obj-21",
					"fontname" : "Arial",
					"numoutlets" : 1
				}

			}
, 			{
				"box" : 				{
					"maxclass" : "newobj",
					"text" : "r mrecstop",
					"outlettype" : [ "" ],
					"patching_rect" : [ 137.0, 976.0, 58.0, 17.0 ],
					"fontsize" : 9.0,
					"numinlets" : 0,
					"id" : "obj-22",
					"fontname" : "Arial",
					"numoutlets" : 1
				}

			}
, 			{
				"box" : 				{
					"maxclass" : "newobj",
					"text" : "r mrecstart",
					"outlettype" : [ "" ],
					"patching_rect" : [ 69.0, 976.0, 62.0, 17.0 ],
					"fontsize" : 9.0,
					"numinlets" : 0,
					"id" : "obj-23",
					"fontname" : "Arial",
					"numoutlets" : 1
				}

			}
, 			{
				"box" : 				{
					"maxclass" : "message",
					"text" : "stop",
					"outlettype" : [ "" ],
					"patching_rect" : [ 137.0, 784.0, 27.0, 15.0 ],
					"fontsize" : 9.0,
					"numinlets" : 2,
					"id" : "obj-24",
					"fontname" : "Arial",
					"numoutlets" : 1
				}

			}
, 			{
				"box" : 				{
					"maxclass" : "message",
					"text" : "record",
					"outlettype" : [ "" ],
					"patching_rect" : [ 69.0, 784.0, 39.0, 15.0 ],
					"fontsize" : 9.0,
					"numinlets" : 2,
					"id" : "obj-25",
					"fontname" : "Arial",
					"numoutlets" : 1
				}

			}
, 			{
				"box" : 				{
					"maxclass" : "newobj",
					"text" : "mtr 8",
					"outlettype" : [ "", "", "", "", "", "", "", "", "" ],
					"patching_rect" : [ 2.0, 868.0, 420.0, 17.0 ],
					"fontsize" : 9.0,
					"numinlets" : 9,
					"id" : "obj-26",
					"fontname" : "Arial",
					"numoutlets" : 9
				}

			}
, 			{
				"box" : 				{
					"maxclass" : "newobj",
					"text" : "r ch1_fx1",
					"outlettype" : [ "" ],
					"patching_rect" : [ 53.0, 810.0, 54.0, 17.0 ],
					"fontsize" : 9.0,
					"numinlets" : 0,
					"id" : "obj-27",
					"fontname" : "Arial",
					"numoutlets" : 1
				}

			}
, 			{
				"box" : 				{
					"maxclass" : "newobj",
					"text" : "r ch2_fx1",
					"outlettype" : [ "" ],
					"patching_rect" : [ 104.0, 832.0, 54.0, 17.0 ],
					"fontsize" : 9.0,
					"numinlets" : 0,
					"id" : "obj-28",
					"fontname" : "Arial",
					"numoutlets" : 1
				}

			}
, 			{
				"box" : 				{
					"maxclass" : "newobj",
					"text" : "r ch3_fx1",
					"outlettype" : [ "" ],
					"patching_rect" : [ 155.0, 810.0, 54.0, 17.0 ],
					"fontsize" : 9.0,
					"numinlets" : 0,
					"id" : "obj-29",
					"fontname" : "Arial",
					"numoutlets" : 1
				}

			}
, 			{
				"box" : 				{
					"maxclass" : "newobj",
					"text" : "r ch4_fx1",
					"outlettype" : [ "" ],
					"patching_rect" : [ 206.0, 831.0, 54.0, 17.0 ],
					"fontsize" : 9.0,
					"numinlets" : 0,
					"id" : "obj-30",
					"fontname" : "Arial",
					"numoutlets" : 1
				}

			}
, 			{
				"box" : 				{
					"maxclass" : "newobj",
					"text" : "r ch5_fx1",
					"outlettype" : [ "" ],
					"patching_rect" : [ 257.0, 809.0, 54.0, 17.0 ],
					"fontsize" : 9.0,
					"numinlets" : 0,
					"id" : "obj-31",
					"fontname" : "Arial",
					"numoutlets" : 1
				}

			}
, 			{
				"box" : 				{
					"maxclass" : "newobj",
					"text" : "r ch6_fx1",
					"outlettype" : [ "" ],
					"patching_rect" : [ 308.0, 831.0, 54.0, 17.0 ],
					"fontsize" : 9.0,
					"numinlets" : 0,
					"id" : "obj-32",
					"fontname" : "Arial",
					"numoutlets" : 1
				}

			}
, 			{
				"box" : 				{
					"maxclass" : "newobj",
					"text" : "r ch7_fx1",
					"outlettype" : [ "" ],
					"patching_rect" : [ 359.0, 810.0, 54.0, 17.0 ],
					"fontsize" : 9.0,
					"numinlets" : 0,
					"id" : "obj-33",
					"fontname" : "Arial",
					"numoutlets" : 1
				}

			}
, 			{
				"box" : 				{
					"maxclass" : "newobj",
					"text" : "r ch8_fx1",
					"outlettype" : [ "" ],
					"patching_rect" : [ 410.0, 830.0, 54.0, 17.0 ],
					"fontsize" : 9.0,
					"numinlets" : 0,
					"id" : "obj-34",
					"fontname" : "Arial",
					"numoutlets" : 1
				}

			}
, 			{
				"box" : 				{
					"maxclass" : "newobj",
					"text" : "s ch1_fx1",
					"patching_rect" : [ 53.0, 922.0, 54.0, 17.0 ],
					"fontsize" : 9.0,
					"numinlets" : 1,
					"id" : "obj-35",
					"fontname" : "Arial",
					"numoutlets" : 0
				}

			}
, 			{
				"box" : 				{
					"maxclass" : "newobj",
					"text" : "s ch2_fx1",
					"patching_rect" : [ 104.0, 900.0, 54.0, 17.0 ],
					"fontsize" : 9.0,
					"numinlets" : 1,
					"id" : "obj-36",
					"fontname" : "Arial",
					"numoutlets" : 0
				}

			}
, 			{
				"box" : 				{
					"maxclass" : "newobj",
					"text" : "s ch3_fx1",
					"patching_rect" : [ 155.0, 922.0, 54.0, 17.0 ],
					"fontsize" : 9.0,
					"numinlets" : 1,
					"id" : "obj-37",
					"fontname" : "Arial",
					"numoutlets" : 0
				}

			}
, 			{
				"box" : 				{
					"maxclass" : "newobj",
					"text" : "s ch4_fx1",
					"patching_rect" : [ 206.0, 901.0, 54.0, 17.0 ],
					"fontsize" : 9.0,
					"numinlets" : 1,
					"id" : "obj-38",
					"fontname" : "Arial",
					"numoutlets" : 0
				}

			}
, 			{
				"box" : 				{
					"maxclass" : "newobj",
					"text" : "s ch5_fx1",
					"patching_rect" : [ 257.0, 923.0, 54.0, 17.0 ],
					"fontsize" : 9.0,
					"numinlets" : 1,
					"id" : "obj-39",
					"fontname" : "Arial",
					"numoutlets" : 0
				}

			}
, 			{
				"box" : 				{
					"maxclass" : "newobj",
					"text" : "s ch6_fx1",
					"patching_rect" : [ 308.0, 901.0, 54.0, 17.0 ],
					"fontsize" : 9.0,
					"numinlets" : 1,
					"id" : "obj-40",
					"fontname" : "Arial",
					"numoutlets" : 0
				}

			}
, 			{
				"box" : 				{
					"maxclass" : "newobj",
					"text" : "s ch7_fx1",
					"patching_rect" : [ 359.0, 924.0, 54.0, 17.0 ],
					"fontsize" : 9.0,
					"numinlets" : 1,
					"id" : "obj-41",
					"fontname" : "Arial",
					"numoutlets" : 0
				}

			}
, 			{
				"box" : 				{
					"maxclass" : "newobj",
					"text" : "s ch8_fx1",
					"patching_rect" : [ 410.0, 902.0, 54.0, 17.0 ],
					"fontsize" : 9.0,
					"numinlets" : 1,
					"id" : "obj-42",
					"fontname" : "Arial",
					"numoutlets" : 0
				}

			}
, 			{
				"box" : 				{
					"maxclass" : "message",
					"text" : "play",
					"outlettype" : [ "" ],
					"patching_rect" : [ 2.0, 783.0, 30.0, 15.0 ],
					"fontsize" : 9.0,
					"numinlets" : 2,
					"id" : "obj-43",
					"fontname" : "Arial",
					"numoutlets" : 1
				}

			}
, 			{
				"box" : 				{
					"maxclass" : "newobj",
					"text" : "r mrecplay",
					"outlettype" : [ "" ],
					"patching_rect" : [ 2.0, 755.0, 58.0, 17.0 ],
					"fontsize" : 9.0,
					"numinlets" : 0,
					"id" : "obj-44",
					"fontname" : "Arial",
					"numoutlets" : 1
				}

			}
, 			{
				"box" : 				{
					"maxclass" : "newobj",
					"text" : "r mrecstop",
					"outlettype" : [ "" ],
					"patching_rect" : [ 137.0, 755.0, 58.0, 17.0 ],
					"fontsize" : 9.0,
					"numinlets" : 0,
					"id" : "obj-45",
					"fontname" : "Arial",
					"numoutlets" : 1
				}

			}
, 			{
				"box" : 				{
					"maxclass" : "newobj",
					"text" : "r mrecstart",
					"outlettype" : [ "" ],
					"patching_rect" : [ 69.0, 755.0, 62.0, 17.0 ],
					"fontsize" : 9.0,
					"numinlets" : 0,
					"id" : "obj-46",
					"fontname" : "Arial",
					"numoutlets" : 1
				}

			}
, 			{
				"box" : 				{
					"maxclass" : "comment",
					"text" : "play",
					"patching_rect" : [ 807.0, 297.0, 34.0, 17.0 ],
					"fontsize" : 9.0,
					"numinlets" : 1,
					"id" : "obj-47",
					"fontname" : "Arial",
					"numoutlets" : 0
				}

			}
, 			{
				"box" : 				{
					"maxclass" : "newobj",
					"text" : "select 1 0",
					"outlettype" : [ "bang", "bang", "" ],
					"patching_rect" : [ 612.0, 375.0, 53.0, 17.0 ],
					"fontsize" : 9.0,
					"numinlets" : 1,
					"id" : "obj-48",
					"fontname" : "Arial",
					"numoutlets" : 3
				}

			}
, 			{
				"box" : 				{
					"maxclass" : "newobj",
					"text" : "delay 50",
					"outlettype" : [ "bang" ],
					"patching_rect" : [ 556.0, 385.0, 45.0, 17.0 ],
					"fontsize" : 9.0,
					"numinlets" : 2,
					"id" : "obj-49",
					"fontname" : "Arial",
					"numoutlets" : 1
				}

			}
, 			{
				"box" : 				{
					"maxclass" : "message",
					"text" : "1",
					"outlettype" : [ "" ],
					"patching_rect" : [ 612.0, 244.0, 17.0, 15.0 ],
					"fontsize" : 9.0,
					"numinlets" : 2,
					"id" : "obj-50",
					"fontname" : "Arial",
					"numoutlets" : 1
				}

			}
, 			{
				"box" : 				{
					"maxclass" : "newobj",
					"text" : "select 0",
					"outlettype" : [ "bang", "" ],
					"patching_rect" : [ 556.0, 358.0, 44.0, 17.0 ],
					"fontsize" : 9.0,
					"numinlets" : 2,
					"id" : "obj-51",
					"fontname" : "Arial",
					"numoutlets" : 2
				}

			}
, 			{
				"box" : 				{
					"maxclass" : "newobj",
					"text" : "s mreclampe",
					"patching_rect" : [ 675.0, 376.0, 65.0, 17.0 ],
					"fontsize" : 9.0,
					"numinlets" : 1,
					"id" : "obj-52",
					"fontname" : "Arial",
					"numoutlets" : 0
				}

			}
, 			{
				"box" : 				{
					"maxclass" : "toggle",
					"outlettype" : [ "int" ],
					"patching_rect" : [ 612.0, 336.0, 15.0, 15.0 ],
					"numinlets" : 1,
					"id" : "obj-53",
					"numoutlets" : 1
				}

			}
, 			{
				"box" : 				{
					"maxclass" : "newobj",
					"text" : "gate",
					"outlettype" : [ "" ],
					"patching_rect" : [ 612.0, 301.0, 47.0, 17.0 ],
					"fontsize" : 9.0,
					"numinlets" : 2,
					"id" : "obj-54",
					"fontname" : "Arial",
					"numoutlets" : 1
				}

			}
, 			{
				"box" : 				{
					"maxclass" : "toggle",
					"outlettype" : [ "int" ],
					"patching_rect" : [ 612.0, 272.0, 15.0, 15.0 ],
					"numinlets" : 1,
					"id" : "obj-55",
					"numoutlets" : 1
				}

			}
, 			{
				"box" : 				{
					"maxclass" : "comment",
					"text" : "record",
					"patching_rect" : [ 630.0, 337.0, 34.0, 17.0 ],
					"fontsize" : 9.0,
					"numinlets" : 1,
					"id" : "obj-56",
					"fontname" : "Arial",
					"numoutlets" : 0
				}

			}
, 			{
				"box" : 				{
					"maxclass" : "message",
					"text" : "3",
					"outlettype" : [ "" ],
					"patching_rect" : [ 875.0, 51.0, 16.0, 15.0 ],
					"fontsize" : 9.0,
					"numinlets" : 2,
					"id" : "obj-57",
					"fontname" : "Arial",
					"numoutlets" : 1
				}

			}
, 			{
				"box" : 				{
					"maxclass" : "newobj",
					"text" : "loadbang",
					"outlettype" : [ "bang" ],
					"patching_rect" : [ 872.0, 22.0, 48.0, 17.0 ],
					"fontsize" : 9.0,
					"numinlets" : 1,
					"id" : "obj-58",
					"fontname" : "Arial",
					"numoutlets" : 1
				}

			}
, 			{
				"box" : 				{
					"maxclass" : "message",
					"text" : "stop",
					"outlettype" : [ "" ],
					"patching_rect" : [ 137.0, 564.0, 27.0, 15.0 ],
					"fontsize" : 9.0,
					"numinlets" : 2,
					"id" : "obj-59",
					"fontname" : "Arial",
					"numoutlets" : 1
				}

			}
, 			{
				"box" : 				{
					"maxclass" : "message",
					"text" : "record",
					"outlettype" : [ "" ],
					"patching_rect" : [ 69.0, 564.0, 39.0, 15.0 ],
					"fontsize" : 9.0,
					"numinlets" : 2,
					"id" : "obj-60",
					"fontname" : "Arial",
					"numoutlets" : 1
				}

			}
, 			{
				"box" : 				{
					"maxclass" : "newobj",
					"text" : "mtr 8",
					"outlettype" : [ "", "", "", "", "", "", "", "", "" ],
					"patching_rect" : [ 2.0, 648.0, 420.0, 17.0 ],
					"fontsize" : 9.0,
					"numinlets" : 9,
					"id" : "obj-61",
					"fontname" : "Arial",
					"numoutlets" : 9
				}

			}
, 			{
				"box" : 				{
					"maxclass" : "newobj",
					"text" : "r ch1_cutoff",
					"outlettype" : [ "" ],
					"patching_rect" : [ 53.0, 590.0, 65.0, 17.0 ],
					"fontsize" : 9.0,
					"numinlets" : 0,
					"id" : "obj-62",
					"fontname" : "Arial",
					"numoutlets" : 1
				}

			}
, 			{
				"box" : 				{
					"maxclass" : "newobj",
					"text" : "r ch2_cutoff",
					"outlettype" : [ "" ],
					"patching_rect" : [ 104.0, 612.0, 65.0, 17.0 ],
					"fontsize" : 9.0,
					"numinlets" : 0,
					"id" : "obj-63",
					"fontname" : "Arial",
					"numoutlets" : 1
				}

			}
, 			{
				"box" : 				{
					"maxclass" : "newobj",
					"text" : "r ch3_cutoff",
					"outlettype" : [ "" ],
					"patching_rect" : [ 155.0, 590.0, 65.0, 17.0 ],
					"fontsize" : 9.0,
					"numinlets" : 0,
					"id" : "obj-64",
					"fontname" : "Arial",
					"numoutlets" : 1
				}

			}
, 			{
				"box" : 				{
					"maxclass" : "newobj",
					"text" : "r ch4_cutoff",
					"outlettype" : [ "" ],
					"patching_rect" : [ 206.0, 611.0, 65.0, 17.0 ],
					"fontsize" : 9.0,
					"numinlets" : 0,
					"id" : "obj-65",
					"fontname" : "Arial",
					"numoutlets" : 1
				}

			}
, 			{
				"box" : 				{
					"maxclass" : "newobj",
					"text" : "r ch5_cutoff",
					"outlettype" : [ "" ],
					"patching_rect" : [ 257.0, 589.0, 65.0, 17.0 ],
					"fontsize" : 9.0,
					"numinlets" : 0,
					"id" : "obj-66",
					"fontname" : "Arial",
					"numoutlets" : 1
				}

			}
, 			{
				"box" : 				{
					"maxclass" : "newobj",
					"text" : "r ch6_cutoff",
					"outlettype" : [ "" ],
					"patching_rect" : [ 308.0, 611.0, 65.0, 17.0 ],
					"fontsize" : 9.0,
					"numinlets" : 0,
					"id" : "obj-67",
					"fontname" : "Arial",
					"numoutlets" : 1
				}

			}
, 			{
				"box" : 				{
					"maxclass" : "newobj",
					"text" : "r ch7_cutoff",
					"outlettype" : [ "" ],
					"patching_rect" : [ 359.0, 590.0, 65.0, 17.0 ],
					"fontsize" : 9.0,
					"numinlets" : 0,
					"id" : "obj-68",
					"fontname" : "Arial",
					"numoutlets" : 1
				}

			}
, 			{
				"box" : 				{
					"maxclass" : "newobj",
					"text" : "r ch8_cutoff",
					"outlettype" : [ "" ],
					"patching_rect" : [ 410.0, 610.0, 65.0, 17.0 ],
					"fontsize" : 9.0,
					"numinlets" : 0,
					"id" : "obj-69",
					"fontname" : "Arial",
					"numoutlets" : 1
				}

			}
, 			{
				"box" : 				{
					"maxclass" : "newobj",
					"text" : "s ch1_cutoff",
					"patching_rect" : [ 53.0, 702.0, 65.0, 17.0 ],
					"fontsize" : 9.0,
					"numinlets" : 1,
					"id" : "obj-70",
					"fontname" : "Arial",
					"numoutlets" : 0
				}

			}
, 			{
				"box" : 				{
					"maxclass" : "newobj",
					"text" : "s ch2_cutoff",
					"patching_rect" : [ 104.0, 680.0, 65.0, 17.0 ],
					"fontsize" : 9.0,
					"numinlets" : 1,
					"id" : "obj-71",
					"fontname" : "Arial",
					"numoutlets" : 0
				}

			}
, 			{
				"box" : 				{
					"maxclass" : "newobj",
					"text" : "s ch3_cutoff",
					"patching_rect" : [ 155.0, 702.0, 65.0, 17.0 ],
					"fontsize" : 9.0,
					"numinlets" : 1,
					"id" : "obj-72",
					"fontname" : "Arial",
					"numoutlets" : 0
				}

			}
, 			{
				"box" : 				{
					"maxclass" : "newobj",
					"text" : "s ch4_cutoff",
					"patching_rect" : [ 206.0, 681.0, 65.0, 17.0 ],
					"fontsize" : 9.0,
					"numinlets" : 1,
					"id" : "obj-73",
					"fontname" : "Arial",
					"numoutlets" : 0
				}

			}
, 			{
				"box" : 				{
					"maxclass" : "newobj",
					"text" : "s ch5_cutoff",
					"patching_rect" : [ 257.0, 703.0, 65.0, 17.0 ],
					"fontsize" : 9.0,
					"numinlets" : 1,
					"id" : "obj-74",
					"fontname" : "Arial",
					"numoutlets" : 0
				}

			}
, 			{
				"box" : 				{
					"maxclass" : "newobj",
					"text" : "s ch6_cutoff",
					"patching_rect" : [ 308.0, 681.0, 65.0, 17.0 ],
					"fontsize" : 9.0,
					"numinlets" : 1,
					"id" : "obj-75",
					"fontname" : "Arial",
					"numoutlets" : 0
				}

			}
, 			{
				"box" : 				{
					"maxclass" : "newobj",
					"text" : "s ch7_cutoff",
					"patching_rect" : [ 359.0, 704.0, 65.0, 17.0 ],
					"fontsize" : 9.0,
					"numinlets" : 1,
					"id" : "obj-76",
					"fontname" : "Arial",
					"numoutlets" : 0
				}

			}
, 			{
				"box" : 				{
					"maxclass" : "newobj",
					"text" : "s ch8_cutoff",
					"patching_rect" : [ 410.0, 682.0, 65.0, 17.0 ],
					"fontsize" : 9.0,
					"numinlets" : 1,
					"id" : "obj-77",
					"fontname" : "Arial",
					"numoutlets" : 0
				}

			}
, 			{
				"box" : 				{
					"maxclass" : "message",
					"text" : "play",
					"outlettype" : [ "" ],
					"patching_rect" : [ 2.0, 563.0, 30.0, 15.0 ],
					"fontsize" : 9.0,
					"numinlets" : 2,
					"id" : "obj-78",
					"fontname" : "Arial",
					"numoutlets" : 1
				}

			}
, 			{
				"box" : 				{
					"maxclass" : "newobj",
					"text" : "r mrecplay",
					"outlettype" : [ "" ],
					"patching_rect" : [ 2.0, 535.0, 58.0, 17.0 ],
					"fontsize" : 9.0,
					"numinlets" : 0,
					"id" : "obj-79",
					"fontname" : "Arial",
					"numoutlets" : 1
				}

			}
, 			{
				"box" : 				{
					"maxclass" : "newobj",
					"text" : "r mrecstop",
					"outlettype" : [ "" ],
					"patching_rect" : [ 137.0, 535.0, 58.0, 17.0 ],
					"fontsize" : 9.0,
					"numinlets" : 0,
					"id" : "obj-80",
					"fontname" : "Arial",
					"numoutlets" : 1
				}

			}
, 			{
				"box" : 				{
					"maxclass" : "newobj",
					"text" : "r mrecstart",
					"outlettype" : [ "" ],
					"patching_rect" : [ 69.0, 535.0, 62.0, 17.0 ],
					"fontsize" : 9.0,
					"numinlets" : 0,
					"id" : "obj-81",
					"fontname" : "Arial",
					"numoutlets" : 1
				}

			}
, 			{
				"box" : 				{
					"maxclass" : "message",
					"text" : "stop",
					"outlettype" : [ "" ],
					"patching_rect" : [ 136.0, 357.0, 27.0, 15.0 ],
					"fontsize" : 9.0,
					"numinlets" : 2,
					"id" : "obj-82",
					"fontname" : "Arial",
					"numoutlets" : 1
				}

			}
, 			{
				"box" : 				{
					"maxclass" : "message",
					"text" : "record",
					"outlettype" : [ "" ],
					"patching_rect" : [ 68.0, 357.0, 39.0, 15.0 ],
					"fontsize" : 9.0,
					"numinlets" : 2,
					"id" : "obj-83",
					"fontname" : "Arial",
					"numoutlets" : 1
				}

			}
, 			{
				"box" : 				{
					"maxclass" : "newobj",
					"text" : "mtr 8",
					"outlettype" : [ "", "", "", "", "", "", "", "", "" ],
					"patching_rect" : [ 1.0, 441.0, 420.0, 17.0 ],
					"fontsize" : 9.0,
					"numinlets" : 9,
					"id" : "obj-84",
					"fontname" : "Arial",
					"numoutlets" : 9
				}

			}
, 			{
				"box" : 				{
					"maxclass" : "newobj",
					"text" : "r ch1_bit",
					"outlettype" : [ "" ],
					"patching_rect" : [ 52.0, 383.0, 50.0, 17.0 ],
					"fontsize" : 9.0,
					"numinlets" : 0,
					"id" : "obj-85",
					"fontname" : "Arial",
					"numoutlets" : 1
				}

			}
, 			{
				"box" : 				{
					"maxclass" : "newobj",
					"text" : "r ch2_bit",
					"outlettype" : [ "" ],
					"patching_rect" : [ 103.0, 405.0, 50.0, 17.0 ],
					"fontsize" : 9.0,
					"numinlets" : 0,
					"id" : "obj-86",
					"fontname" : "Arial",
					"numoutlets" : 1
				}

			}
, 			{
				"box" : 				{
					"maxclass" : "newobj",
					"text" : "r ch3_bit",
					"outlettype" : [ "" ],
					"patching_rect" : [ 154.0, 383.0, 50.0, 17.0 ],
					"fontsize" : 9.0,
					"numinlets" : 0,
					"id" : "obj-87",
					"fontname" : "Arial",
					"numoutlets" : 1
				}

			}
, 			{
				"box" : 				{
					"maxclass" : "newobj",
					"text" : "r ch4_bit",
					"outlettype" : [ "" ],
					"patching_rect" : [ 205.0, 404.0, 50.0, 17.0 ],
					"fontsize" : 9.0,
					"numinlets" : 0,
					"id" : "obj-88",
					"fontname" : "Arial",
					"numoutlets" : 1
				}

			}
, 			{
				"box" : 				{
					"maxclass" : "newobj",
					"text" : "r ch5_bit",
					"outlettype" : [ "" ],
					"patching_rect" : [ 256.0, 383.0, 50.0, 17.0 ],
					"fontsize" : 9.0,
					"numinlets" : 0,
					"id" : "obj-89",
					"fontname" : "Arial",
					"numoutlets" : 1
				}

			}
, 			{
				"box" : 				{
					"maxclass" : "newobj",
					"text" : "r ch6_bit",
					"outlettype" : [ "" ],
					"patching_rect" : [ 307.0, 404.0, 50.0, 17.0 ],
					"fontsize" : 9.0,
					"numinlets" : 0,
					"id" : "obj-90",
					"fontname" : "Arial",
					"numoutlets" : 1
				}

			}
, 			{
				"box" : 				{
					"maxclass" : "newobj",
					"text" : "r ch7_bit",
					"outlettype" : [ "" ],
					"patching_rect" : [ 358.0, 383.0, 50.0, 17.0 ],
					"fontsize" : 9.0,
					"numinlets" : 0,
					"id" : "obj-91",
					"fontname" : "Arial",
					"numoutlets" : 1
				}

			}
, 			{
				"box" : 				{
					"maxclass" : "newobj",
					"text" : "r ch8_bit",
					"outlettype" : [ "" ],
					"patching_rect" : [ 409.0, 403.0, 50.0, 17.0 ],
					"fontsize" : 9.0,
					"numinlets" : 0,
					"id" : "obj-92",
					"fontname" : "Arial",
					"numoutlets" : 1
				}

			}
, 			{
				"box" : 				{
					"maxclass" : "newobj",
					"text" : "s ch1_bit",
					"patching_rect" : [ 52.0, 495.0, 50.0, 17.0 ],
					"fontsize" : 9.0,
					"numinlets" : 1,
					"id" : "obj-93",
					"fontname" : "Arial",
					"numoutlets" : 0
				}

			}
, 			{
				"box" : 				{
					"maxclass" : "newobj",
					"text" : "s ch2_bit",
					"patching_rect" : [ 103.0, 473.0, 50.0, 17.0 ],
					"fontsize" : 9.0,
					"numinlets" : 1,
					"id" : "obj-94",
					"fontname" : "Arial",
					"numoutlets" : 0
				}

			}
, 			{
				"box" : 				{
					"maxclass" : "newobj",
					"text" : "s ch3_bit",
					"patching_rect" : [ 154.0, 495.0, 50.0, 17.0 ],
					"fontsize" : 9.0,
					"numinlets" : 1,
					"id" : "obj-95",
					"fontname" : "Arial",
					"numoutlets" : 0
				}

			}
, 			{
				"box" : 				{
					"maxclass" : "newobj",
					"text" : "s ch4_bit",
					"patching_rect" : [ 205.0, 474.0, 50.0, 17.0 ],
					"fontsize" : 9.0,
					"numinlets" : 1,
					"id" : "obj-96",
					"fontname" : "Arial",
					"numoutlets" : 0
				}

			}
, 			{
				"box" : 				{
					"maxclass" : "newobj",
					"text" : "s ch5_bit",
					"patching_rect" : [ 256.0, 496.0, 50.0, 17.0 ],
					"fontsize" : 9.0,
					"numinlets" : 1,
					"id" : "obj-97",
					"fontname" : "Arial",
					"numoutlets" : 0
				}

			}
, 			{
				"box" : 				{
					"maxclass" : "newobj",
					"text" : "s ch6_bit",
					"patching_rect" : [ 307.0, 474.0, 50.0, 17.0 ],
					"fontsize" : 9.0,
					"numinlets" : 1,
					"id" : "obj-98",
					"fontname" : "Arial",
					"numoutlets" : 0
				}

			}
, 			{
				"box" : 				{
					"maxclass" : "newobj",
					"text" : "s ch7_bit",
					"patching_rect" : [ 358.0, 497.0, 50.0, 17.0 ],
					"fontsize" : 9.0,
					"numinlets" : 1,
					"id" : "obj-99",
					"fontname" : "Arial",
					"numoutlets" : 0
				}

			}
, 			{
				"box" : 				{
					"maxclass" : "newobj",
					"text" : "s ch8_bit",
					"patching_rect" : [ 409.0, 475.0, 50.0, 17.0 ],
					"fontsize" : 9.0,
					"numinlets" : 1,
					"id" : "obj-100",
					"fontname" : "Arial",
					"numoutlets" : 0
				}

			}
, 			{
				"box" : 				{
					"maxclass" : "message",
					"text" : "play",
					"outlettype" : [ "" ],
					"patching_rect" : [ 1.0, 356.0, 30.0, 15.0 ],
					"fontsize" : 9.0,
					"numinlets" : 2,
					"id" : "obj-101",
					"fontname" : "Arial",
					"numoutlets" : 1
				}

			}
, 			{
				"box" : 				{
					"maxclass" : "newobj",
					"text" : "r mrecplay",
					"outlettype" : [ "" ],
					"patching_rect" : [ 1.0, 328.0, 58.0, 17.0 ],
					"fontsize" : 9.0,
					"numinlets" : 0,
					"id" : "obj-102",
					"fontname" : "Arial",
					"numoutlets" : 1
				}

			}
, 			{
				"box" : 				{
					"maxclass" : "newobj",
					"text" : "r mrecstop",
					"outlettype" : [ "" ],
					"patching_rect" : [ 136.0, 328.0, 58.0, 17.0 ],
					"fontsize" : 9.0,
					"numinlets" : 0,
					"id" : "obj-103",
					"fontname" : "Arial",
					"numoutlets" : 1
				}

			}
, 			{
				"box" : 				{
					"maxclass" : "newobj",
					"text" : "r mrecstart",
					"outlettype" : [ "" ],
					"patching_rect" : [ 68.0, 328.0, 62.0, 17.0 ],
					"fontsize" : 9.0,
					"numinlets" : 0,
					"id" : "obj-104",
					"fontname" : "Arial",
					"numoutlets" : 1
				}

			}
, 			{
				"box" : 				{
					"maxclass" : "inlet",
					"outlettype" : [ "" ],
					"patching_rect" : [ 737.0, 231.0, 15.0, 15.0 ],
					"numinlets" : 0,
					"id" : "obj-105",
					"numoutlets" : 1,
					"comment" : "ON/OFF"
				}

			}
, 			{
				"box" : 				{
					"maxclass" : "message",
					"text" : "stop",
					"outlettype" : [ "" ],
					"patching_rect" : [ 136.0, 128.0, 27.0, 15.0 ],
					"fontsize" : 9.0,
					"numinlets" : 2,
					"id" : "obj-106",
					"fontname" : "Arial",
					"numoutlets" : 1
				}

			}
, 			{
				"box" : 				{
					"maxclass" : "message",
					"text" : "record",
					"outlettype" : [ "" ],
					"patching_rect" : [ 68.0, 128.0, 39.0, 15.0 ],
					"fontsize" : 9.0,
					"numinlets" : 2,
					"id" : "obj-107",
					"fontname" : "Arial",
					"numoutlets" : 1
				}

			}
, 			{
				"box" : 				{
					"maxclass" : "newobj",
					"text" : "mtr 8",
					"outlettype" : [ "", "", "", "", "", "", "", "", "" ],
					"patching_rect" : [ 1.0, 212.0, 420.0, 17.0 ],
					"fontsize" : 9.0,
					"numinlets" : 9,
					"id" : "obj-108",
					"fontname" : "Arial",
					"numoutlets" : 9
				}

			}
, 			{
				"box" : 				{
					"maxclass" : "newobj",
					"text" : "r ch1_phaselength",
					"outlettype" : [ "" ],
					"patching_rect" : [ 52.0, 154.0, 85.0, 17.0 ],
					"fontsize" : 9.0,
					"numinlets" : 0,
					"id" : "obj-109",
					"fontname" : "Arial",
					"numoutlets" : 1
				}

			}
, 			{
				"box" : 				{
					"maxclass" : "newobj",
					"text" : "r ch2_phaselength",
					"outlettype" : [ "" ],
					"patching_rect" : [ 103.0, 176.0, 85.0, 17.0 ],
					"fontsize" : 9.0,
					"numinlets" : 0,
					"id" : "obj-110",
					"fontname" : "Arial",
					"numoutlets" : 1
				}

			}
, 			{
				"box" : 				{
					"maxclass" : "newobj",
					"text" : "r ch3_phaselength",
					"outlettype" : [ "" ],
					"patching_rect" : [ 154.0, 154.0, 85.0, 17.0 ],
					"fontsize" : 9.0,
					"numinlets" : 0,
					"id" : "obj-111",
					"fontname" : "Arial",
					"numoutlets" : 1
				}

			}
, 			{
				"box" : 				{
					"maxclass" : "newobj",
					"text" : "r ch4_phaselength",
					"outlettype" : [ "" ],
					"patching_rect" : [ 205.0, 175.0, 85.0, 17.0 ],
					"fontsize" : 9.0,
					"numinlets" : 0,
					"id" : "obj-112",
					"fontname" : "Arial",
					"numoutlets" : 1
				}

			}
, 			{
				"box" : 				{
					"maxclass" : "newobj",
					"text" : "r ch5_phaselength",
					"outlettype" : [ "" ],
					"patching_rect" : [ 256.0, 154.0, 85.0, 17.0 ],
					"fontsize" : 9.0,
					"numinlets" : 0,
					"id" : "obj-113",
					"fontname" : "Arial",
					"numoutlets" : 1
				}

			}
, 			{
				"box" : 				{
					"maxclass" : "newobj",
					"text" : "r ch6_phaselength",
					"outlettype" : [ "" ],
					"patching_rect" : [ 307.0, 175.0, 85.0, 17.0 ],
					"fontsize" : 9.0,
					"numinlets" : 0,
					"id" : "obj-114",
					"fontname" : "Arial",
					"numoutlets" : 1
				}

			}
, 			{
				"box" : 				{
					"maxclass" : "newobj",
					"text" : "r ch7_phaselength",
					"outlettype" : [ "" ],
					"patching_rect" : [ 358.0, 154.0, 85.0, 17.0 ],
					"fontsize" : 9.0,
					"numinlets" : 0,
					"id" : "obj-115",
					"fontname" : "Arial",
					"numoutlets" : 1
				}

			}
, 			{
				"box" : 				{
					"maxclass" : "newobj",
					"text" : "r ch8_phaselength",
					"outlettype" : [ "" ],
					"patching_rect" : [ 409.0, 174.0, 85.0, 17.0 ],
					"fontsize" : 9.0,
					"numinlets" : 0,
					"id" : "obj-116",
					"fontname" : "Arial",
					"numoutlets" : 1
				}

			}
, 			{
				"box" : 				{
					"maxclass" : "newobj",
					"text" : "s ch1_phaselength",
					"patching_rect" : [ 52.0, 266.0, 86.0, 17.0 ],
					"fontsize" : 9.0,
					"numinlets" : 1,
					"id" : "obj-117",
					"fontname" : "Arial",
					"numoutlets" : 0
				}

			}
, 			{
				"box" : 				{
					"maxclass" : "newobj",
					"text" : "s ch2_phaselength",
					"patching_rect" : [ 104.0, 244.0, 86.0, 17.0 ],
					"fontsize" : 9.0,
					"numinlets" : 1,
					"id" : "obj-118",
					"fontname" : "Arial",
					"numoutlets" : 0
				}

			}
, 			{
				"box" : 				{
					"maxclass" : "newobj",
					"text" : "s ch3_phaselength",
					"patching_rect" : [ 154.0, 266.0, 86.0, 17.0 ],
					"fontsize" : 9.0,
					"numinlets" : 1,
					"id" : "obj-119",
					"fontname" : "Arial",
					"numoutlets" : 0
				}

			}
, 			{
				"box" : 				{
					"maxclass" : "newobj",
					"text" : "s ch4_phaselength",
					"patching_rect" : [ 205.0, 245.0, 86.0, 17.0 ],
					"fontsize" : 9.0,
					"numinlets" : 1,
					"id" : "obj-120",
					"fontname" : "Arial",
					"numoutlets" : 0
				}

			}
, 			{
				"box" : 				{
					"maxclass" : "newobj",
					"text" : "s ch5_phaselength",
					"patching_rect" : [ 256.0, 267.0, 86.0, 17.0 ],
					"fontsize" : 9.0,
					"numinlets" : 1,
					"id" : "obj-121",
					"fontname" : "Arial",
					"numoutlets" : 0
				}

			}
, 			{
				"box" : 				{
					"maxclass" : "newobj",
					"text" : "s ch6_phaselength",
					"patching_rect" : [ 307.0, 245.0, 86.0, 17.0 ],
					"fontsize" : 9.0,
					"numinlets" : 1,
					"id" : "obj-122",
					"fontname" : "Arial",
					"numoutlets" : 0
				}

			}
, 			{
				"box" : 				{
					"maxclass" : "newobj",
					"text" : "s ch7_phaselength",
					"patching_rect" : [ 358.0, 268.0, 86.0, 17.0 ],
					"fontsize" : 9.0,
					"numinlets" : 1,
					"id" : "obj-123",
					"fontname" : "Arial",
					"numoutlets" : 0
				}

			}
, 			{
				"box" : 				{
					"maxclass" : "newobj",
					"text" : "s ch8_phaselength",
					"patching_rect" : [ 409.0, 246.0, 86.0, 17.0 ],
					"fontsize" : 9.0,
					"numinlets" : 1,
					"id" : "obj-124",
					"fontname" : "Arial",
					"numoutlets" : 0
				}

			}
, 			{
				"box" : 				{
					"maxclass" : "message",
					"text" : "play",
					"outlettype" : [ "" ],
					"patching_rect" : [ 1.0, 127.0, 30.0, 15.0 ],
					"fontsize" : 9.0,
					"numinlets" : 2,
					"id" : "obj-125",
					"fontname" : "Arial",
					"numoutlets" : 1
				}

			}
, 			{
				"box" : 				{
					"maxclass" : "newobj",
					"text" : "s mrecplay",
					"patching_rect" : [ 760.0, 339.0, 58.0, 17.0 ],
					"fontsize" : 9.0,
					"numinlets" : 1,
					"id" : "obj-126",
					"fontname" : "Arial",
					"numoutlets" : 0
				}

			}
, 			{
				"box" : 				{
					"maxclass" : "toggle",
					"outlettype" : [ "int" ],
					"patching_rect" : [ 737.0, 268.0, 15.0, 15.0 ],
					"numinlets" : 1,
					"id" : "obj-127",
					"numoutlets" : 1
				}

			}
, 			{
				"box" : 				{
					"maxclass" : "newobj",
					"text" : "gate",
					"outlettype" : [ "" ],
					"patching_rect" : [ 760.0, 315.0, 45.0, 17.0 ],
					"fontsize" : 9.0,
					"numinlets" : 2,
					"id" : "obj-128",
					"fontname" : "Arial",
					"numoutlets" : 1
				}

			}
, 			{
				"box" : 				{
					"maxclass" : "newobj",
					"text" : "delta~",
					"outlettype" : [ "signal" ],
					"patching_rect" : [ 764.0, 188.0, 49.0, 17.0 ],
					"fontsize" : 9.0,
					"numinlets" : 1,
					"id" : "obj-129",
					"fontname" : "Arial",
					"numoutlets" : 1
				}

			}
, 			{
				"box" : 				{
					"maxclass" : "newobj",
					"text" : "edge~",
					"outlettype" : [ "bang", "bang" ],
					"patching_rect" : [ 764.0, 230.0, 34.0, 17.0 ],
					"fontsize" : 9.0,
					"numinlets" : 1,
					"id" : "obj-130",
					"fontname" : "Arial",
					"numoutlets" : 2
				}

			}
, 			{
				"box" : 				{
					"maxclass" : "newobj",
					"text" : "<~ 0",
					"outlettype" : [ "signal" ],
					"patching_rect" : [ 764.0, 210.0, 43.0, 17.0 ],
					"fontsize" : 9.0,
					"numinlets" : 2,
					"id" : "obj-131",
					"fontname" : "Arial",
					"numoutlets" : 1
				}

			}
, 			{
				"box" : 				{
					"maxclass" : "button",
					"outlettype" : [ "bang" ],
					"patching_rect" : [ 764.0, 252.0, 15.0, 15.0 ],
					"numinlets" : 1,
					"id" : "obj-132",
					"numoutlets" : 1
				}

			}
, 			{
				"box" : 				{
					"maxclass" : "flonum",
					"outlettype" : [ "float", "bang" ],
					"patching_rect" : [ 875.0, 139.0, 21.0, 17.0 ],
					"fontsize" : 9.0,
					"triangle" : 0,
					"numinlets" : 1,
					"id" : "obj-133",
					"triscale" : 0.9,
					"fontname" : "Arial",
					"numoutlets" : 2,
					"bgcolor" : [ 0.866667, 0.866667, 0.866667, 1.0 ],
					"htextcolor" : [ 0.870588, 0.870588, 0.870588, 1.0 ]
				}

			}
, 			{
				"box" : 				{
					"maxclass" : "multislider",
					"outlettype" : [ "", "" ],
					"peakcolor" : [ 0.498039, 0.498039, 0.498039, 1.0 ],
					"patching_rect" : [ 875.0, 86.0, 24.0, 15.0 ],
					"orientation" : 0,
					"settype" : 0,
					"setminmax" : [ 2.0, 9.0 ],
					"numinlets" : 1,
					"id" : "obj-134",
					"numoutlets" : 2,
					"contdata" : 1
				}

			}
, 			{
				"box" : 				{
					"maxclass" : "newobj",
					"text" : "expr pow(2\\,$f1)",
					"outlettype" : [ "" ],
					"patching_rect" : [ 875.0, 117.0, 90.0, 17.0 ],
					"fontsize" : 9.0,
					"numinlets" : 1,
					"id" : "obj-135",
					"fontname" : "Arial",
					"numoutlets" : 1
				}

			}
, 			{
				"box" : 				{
					"maxclass" : "newobj",
					"text" : "receive~ phase2",
					"outlettype" : [ "signal" ],
					"patching_rect" : [ 764.0, 135.0, 82.0, 17.0 ],
					"fontsize" : 9.0,
					"numinlets" : 1,
					"id" : "obj-136",
					"fontname" : "Arial",
					"numoutlets" : 1
				}

			}
, 			{
				"box" : 				{
					"maxclass" : "newobj",
					"text" : "p_pong~",
					"outlettype" : [ "signal" ],
					"patching_rect" : [ 764.0, 166.0, 53.0, 17.0 ],
					"fontsize" : 9.0,
					"numinlets" : 4,
					"id" : "obj-137",
					"fontname" : "Arial",
					"numoutlets" : 1
				}

			}
, 			{
				"box" : 				{
					"maxclass" : "newobj",
					"text" : "r mrecplay",
					"outlettype" : [ "" ],
					"patching_rect" : [ 1.0, 99.0, 58.0, 17.0 ],
					"fontsize" : 9.0,
					"numinlets" : 0,
					"id" : "obj-138",
					"fontname" : "Arial",
					"numoutlets" : 1
				}

			}
, 			{
				"box" : 				{
					"maxclass" : "newobj",
					"text" : "r mrecstop",
					"outlettype" : [ "" ],
					"patching_rect" : [ 136.0, 99.0, 58.0, 17.0 ],
					"fontsize" : 9.0,
					"numinlets" : 0,
					"id" : "obj-139",
					"fontname" : "Arial",
					"numoutlets" : 1
				}

			}
, 			{
				"box" : 				{
					"maxclass" : "newobj",
					"text" : "r mrecstart",
					"outlettype" : [ "" ],
					"patching_rect" : [ 68.0, 99.0, 62.0, 17.0 ],
					"fontsize" : 9.0,
					"numinlets" : 0,
					"id" : "obj-140",
					"fontname" : "Arial",
					"numoutlets" : 1
				}

			}
, 			{
				"box" : 				{
					"maxclass" : "newobj",
					"text" : "s mrecstop",
					"patching_rect" : [ 633.0, 398.0, 58.0, 17.0 ],
					"fontsize" : 9.0,
					"numinlets" : 1,
					"id" : "obj-141",
					"fontname" : "Arial",
					"numoutlets" : 0
				}

			}
, 			{
				"box" : 				{
					"maxclass" : "newobj",
					"text" : "s mrecstart",
					"patching_rect" : [ 612.0, 419.0, 62.0, 17.0 ],
					"fontsize" : 9.0,
					"numinlets" : 1,
					"id" : "obj-142",
					"fontname" : "Arial",
					"numoutlets" : 0
				}

			}
, 			{
				"box" : 				{
					"maxclass" : "newobj",
					"text" : "select 1 0",
					"outlettype" : [ "bang", "bang", "" ],
					"patching_rect" : [ 612.0, 215.0, 53.0, 17.0 ],
					"fontsize" : 9.0,
					"numinlets" : 1,
					"id" : "obj-143",
					"fontname" : "Arial",
					"numoutlets" : 3
				}

			}
, 			{
				"box" : 				{
					"maxclass" : "newobj",
					"text" : "r mrec",
					"outlettype" : [ "" ],
					"patching_rect" : [ 612.0, 180.0, 39.0, 17.0 ],
					"fontsize" : 9.0,
					"numinlets" : 0,
					"id" : "obj-144",
					"fontname" : "Arial",
					"numoutlets" : 1
				}

			}
 ],
		"lines" : [ 			{
				"patchline" : 				{
					"source" : [ "obj-108", 2 ],
					"destination" : [ "obj-118", 0 ],
					"hidden" : 0,
					"midpoints" : [  ]
				}

			}
, 			{
				"patchline" : 				{
					"source" : [ "obj-108", 4 ],
					"destination" : [ "obj-120", 0 ],
					"hidden" : 0,
					"midpoints" : [  ]
				}

			}
, 			{
				"patchline" : 				{
					"source" : [ "obj-108", 6 ],
					"destination" : [ "obj-122", 0 ],
					"hidden" : 0,
					"midpoints" : [  ]
				}

			}
, 			{
				"patchline" : 				{
					"source" : [ "obj-108", 8 ],
					"destination" : [ "obj-124", 0 ],
					"hidden" : 0,
					"midpoints" : [  ]
				}

			}
, 			{
				"patchline" : 				{
					"source" : [ "obj-108", 7 ],
					"destination" : [ "obj-123", 0 ],
					"hidden" : 0,
					"midpoints" : [  ]
				}

			}
, 			{
				"patchline" : 				{
					"source" : [ "obj-108", 5 ],
					"destination" : [ "obj-121", 0 ],
					"hidden" : 0,
					"midpoints" : [  ]
				}

			}
, 			{
				"patchline" : 				{
					"source" : [ "obj-108", 3 ],
					"destination" : [ "obj-119", 0 ],
					"hidden" : 0,
					"midpoints" : [  ]
				}

			}
, 			{
				"patchline" : 				{
					"source" : [ "obj-108", 1 ],
					"destination" : [ "obj-117", 0 ],
					"hidden" : 0,
					"midpoints" : [  ]
				}

			}
, 			{
				"patchline" : 				{
					"source" : [ "obj-110", 0 ],
					"destination" : [ "obj-108", 2 ],
					"hidden" : 0,
					"midpoints" : [  ]
				}

			}
, 			{
				"patchline" : 				{
					"source" : [ "obj-112", 0 ],
					"destination" : [ "obj-108", 4 ],
					"hidden" : 0,
					"midpoints" : [  ]
				}

			}
, 			{
				"patchline" : 				{
					"source" : [ "obj-114", 0 ],
					"destination" : [ "obj-108", 6 ],
					"hidden" : 0,
					"midpoints" : [  ]
				}

			}
, 			{
				"patchline" : 				{
					"source" : [ "obj-116", 0 ],
					"destination" : [ "obj-108", 8 ],
					"hidden" : 0,
					"midpoints" : [  ]
				}

			}
, 			{
				"patchline" : 				{
					"source" : [ "obj-115", 0 ],
					"destination" : [ "obj-108", 7 ],
					"hidden" : 0,
					"midpoints" : [  ]
				}

			}
, 			{
				"patchline" : 				{
					"source" : [ "obj-113", 0 ],
					"destination" : [ "obj-108", 5 ],
					"hidden" : 0,
					"midpoints" : [  ]
				}

			}
, 			{
				"patchline" : 				{
					"source" : [ "obj-111", 0 ],
					"destination" : [ "obj-108", 3 ],
					"hidden" : 0,
					"midpoints" : [  ]
				}

			}
, 			{
				"patchline" : 				{
					"source" : [ "obj-109", 0 ],
					"destination" : [ "obj-108", 1 ],
					"hidden" : 0,
					"midpoints" : [  ]
				}

			}
, 			{
				"patchline" : 				{
					"source" : [ "obj-138", 0 ],
					"destination" : [ "obj-125", 0 ],
					"hidden" : 0,
					"midpoints" : [  ]
				}

			}
, 			{
				"patchline" : 				{
					"source" : [ "obj-106", 0 ],
					"destination" : [ "obj-108", 0 ],
					"hidden" : 0,
					"midpoints" : [  ]
				}

			}
, 			{
				"patchline" : 				{
					"source" : [ "obj-125", 0 ],
					"destination" : [ "obj-108", 0 ],
					"hidden" : 0,
					"midpoints" : [  ]
				}

			}
, 			{
				"patchline" : 				{
					"source" : [ "obj-107", 0 ],
					"destination" : [ "obj-108", 0 ],
					"hidden" : 0,
					"midpoints" : [  ]
				}

			}
, 			{
				"patchline" : 				{
					"source" : [ "obj-102", 0 ],
					"destination" : [ "obj-101", 0 ],
					"hidden" : 0,
					"midpoints" : [  ]
				}

			}
, 			{
				"patchline" : 				{
					"source" : [ "obj-83", 0 ],
					"destination" : [ "obj-84", 0 ],
					"hidden" : 0,
					"midpoints" : [  ]
				}

			}
, 			{
				"patchline" : 				{
					"source" : [ "obj-101", 0 ],
					"destination" : [ "obj-84", 0 ],
					"hidden" : 0,
					"midpoints" : [  ]
				}

			}
, 			{
				"patchline" : 				{
					"source" : [ "obj-82", 0 ],
					"destination" : [ "obj-84", 0 ],
					"hidden" : 0,
					"midpoints" : [  ]
				}

			}
, 			{
				"patchline" : 				{
					"source" : [ "obj-79", 0 ],
					"destination" : [ "obj-78", 0 ],
					"hidden" : 0,
					"midpoints" : [  ]
				}

			}
, 			{
				"patchline" : 				{
					"source" : [ "obj-59", 0 ],
					"destination" : [ "obj-61", 0 ],
					"hidden" : 0,
					"midpoints" : [  ]
				}

			}
, 			{
				"patchline" : 				{
					"source" : [ "obj-78", 0 ],
					"destination" : [ "obj-61", 0 ],
					"hidden" : 0,
					"midpoints" : [  ]
				}

			}
, 			{
				"patchline" : 				{
					"source" : [ "obj-60", 0 ],
					"destination" : [ "obj-61", 0 ],
					"hidden" : 0,
					"midpoints" : [  ]
				}

			}
, 			{
				"patchline" : 				{
					"source" : [ "obj-44", 0 ],
					"destination" : [ "obj-43", 0 ],
					"hidden" : 0,
					"midpoints" : [  ]
				}

			}
, 			{
				"patchline" : 				{
					"source" : [ "obj-25", 0 ],
					"destination" : [ "obj-26", 0 ],
					"hidden" : 0,
					"midpoints" : [  ]
				}

			}
, 			{
				"patchline" : 				{
					"source" : [ "obj-43", 0 ],
					"destination" : [ "obj-26", 0 ],
					"hidden" : 0,
					"midpoints" : [  ]
				}

			}
, 			{
				"patchline" : 				{
					"source" : [ "obj-24", 0 ],
					"destination" : [ "obj-26", 0 ],
					"hidden" : 0,
					"midpoints" : [  ]
				}

			}
, 			{
				"patchline" : 				{
					"source" : [ "obj-21", 0 ],
					"destination" : [ "obj-20", 0 ],
					"hidden" : 0,
					"midpoints" : [  ]
				}

			}
, 			{
				"patchline" : 				{
					"source" : [ "obj-1", 0 ],
					"destination" : [ "obj-3", 0 ],
					"hidden" : 0,
					"midpoints" : [  ]
				}

			}
, 			{
				"patchline" : 				{
					"source" : [ "obj-20", 0 ],
					"destination" : [ "obj-3", 0 ],
					"hidden" : 0,
					"midpoints" : [  ]
				}

			}
, 			{
				"patchline" : 				{
					"source" : [ "obj-2", 0 ],
					"destination" : [ "obj-3", 0 ],
					"hidden" : 0,
					"midpoints" : [  ]
				}

			}
, 			{
				"patchline" : 				{
					"source" : [ "obj-85", 0 ],
					"destination" : [ "obj-84", 1 ],
					"hidden" : 0,
					"midpoints" : [  ]
				}

			}
, 			{
				"patchline" : 				{
					"source" : [ "obj-84", 1 ],
					"destination" : [ "obj-93", 0 ],
					"hidden" : 0,
					"midpoints" : [  ]
				}

			}
, 			{
				"patchline" : 				{
					"source" : [ "obj-62", 0 ],
					"destination" : [ "obj-61", 1 ],
					"hidden" : 0,
					"midpoints" : [  ]
				}

			}
, 			{
				"patchline" : 				{
					"source" : [ "obj-61", 1 ],
					"destination" : [ "obj-70", 0 ],
					"hidden" : 0,
					"midpoints" : [  ]
				}

			}
, 			{
				"patchline" : 				{
					"source" : [ "obj-27", 0 ],
					"destination" : [ "obj-26", 1 ],
					"hidden" : 0,
					"midpoints" : [  ]
				}

			}
, 			{
				"patchline" : 				{
					"source" : [ "obj-26", 1 ],
					"destination" : [ "obj-35", 0 ],
					"hidden" : 0,
					"midpoints" : [  ]
				}

			}
, 			{
				"patchline" : 				{
					"source" : [ "obj-4", 0 ],
					"destination" : [ "obj-3", 1 ],
					"hidden" : 0,
					"midpoints" : [  ]
				}

			}
, 			{
				"patchline" : 				{
					"source" : [ "obj-3", 1 ],
					"destination" : [ "obj-12", 0 ],
					"hidden" : 0,
					"midpoints" : [  ]
				}

			}
, 			{
				"patchline" : 				{
					"source" : [ "obj-140", 0 ],
					"destination" : [ "obj-107", 0 ],
					"hidden" : 0,
					"midpoints" : [  ]
				}

			}
, 			{
				"patchline" : 				{
					"source" : [ "obj-104", 0 ],
					"destination" : [ "obj-83", 0 ],
					"hidden" : 0,
					"midpoints" : [  ]
				}

			}
, 			{
				"patchline" : 				{
					"source" : [ "obj-81", 0 ],
					"destination" : [ "obj-60", 0 ],
					"hidden" : 0,
					"midpoints" : [  ]
				}

			}
, 			{
				"patchline" : 				{
					"source" : [ "obj-46", 0 ],
					"destination" : [ "obj-25", 0 ],
					"hidden" : 0,
					"midpoints" : [  ]
				}

			}
, 			{
				"patchline" : 				{
					"source" : [ "obj-23", 0 ],
					"destination" : [ "obj-2", 0 ],
					"hidden" : 0,
					"midpoints" : [  ]
				}

			}
, 			{
				"patchline" : 				{
					"source" : [ "obj-86", 0 ],
					"destination" : [ "obj-84", 2 ],
					"hidden" : 0,
					"midpoints" : [  ]
				}

			}
, 			{
				"patchline" : 				{
					"source" : [ "obj-84", 2 ],
					"destination" : [ "obj-94", 0 ],
					"hidden" : 0,
					"midpoints" : [  ]
				}

			}
, 			{
				"patchline" : 				{
					"source" : [ "obj-63", 0 ],
					"destination" : [ "obj-61", 2 ],
					"hidden" : 0,
					"midpoints" : [  ]
				}

			}
, 			{
				"patchline" : 				{
					"source" : [ "obj-61", 2 ],
					"destination" : [ "obj-71", 0 ],
					"hidden" : 0,
					"midpoints" : [  ]
				}

			}
, 			{
				"patchline" : 				{
					"source" : [ "obj-28", 0 ],
					"destination" : [ "obj-26", 2 ],
					"hidden" : 0,
					"midpoints" : [  ]
				}

			}
, 			{
				"patchline" : 				{
					"source" : [ "obj-26", 2 ],
					"destination" : [ "obj-36", 0 ],
					"hidden" : 0,
					"midpoints" : [  ]
				}

			}
, 			{
				"patchline" : 				{
					"source" : [ "obj-5", 0 ],
					"destination" : [ "obj-3", 2 ],
					"hidden" : 0,
					"midpoints" : [  ]
				}

			}
, 			{
				"patchline" : 				{
					"source" : [ "obj-3", 2 ],
					"destination" : [ "obj-13", 0 ],
					"hidden" : 0,
					"midpoints" : [  ]
				}

			}
, 			{
				"patchline" : 				{
					"source" : [ "obj-139", 0 ],
					"destination" : [ "obj-106", 0 ],
					"hidden" : 0,
					"midpoints" : [  ]
				}

			}
, 			{
				"patchline" : 				{
					"source" : [ "obj-103", 0 ],
					"destination" : [ "obj-82", 0 ],
					"hidden" : 0,
					"midpoints" : [  ]
				}

			}
, 			{
				"patchline" : 				{
					"source" : [ "obj-80", 0 ],
					"destination" : [ "obj-59", 0 ],
					"hidden" : 0,
					"midpoints" : [  ]
				}

			}
, 			{
				"patchline" : 				{
					"source" : [ "obj-45", 0 ],
					"destination" : [ "obj-24", 0 ],
					"hidden" : 0,
					"midpoints" : [  ]
				}

			}
, 			{
				"patchline" : 				{
					"source" : [ "obj-22", 0 ],
					"destination" : [ "obj-1", 0 ],
					"hidden" : 0,
					"midpoints" : [  ]
				}

			}
, 			{
				"patchline" : 				{
					"source" : [ "obj-87", 0 ],
					"destination" : [ "obj-84", 3 ],
					"hidden" : 0,
					"midpoints" : [  ]
				}

			}
, 			{
				"patchline" : 				{
					"source" : [ "obj-84", 3 ],
					"destination" : [ "obj-95", 0 ],
					"hidden" : 0,
					"midpoints" : [  ]
				}

			}
, 			{
				"patchline" : 				{
					"source" : [ "obj-64", 0 ],
					"destination" : [ "obj-61", 3 ],
					"hidden" : 0,
					"midpoints" : [  ]
				}

			}
, 			{
				"patchline" : 				{
					"source" : [ "obj-61", 3 ],
					"destination" : [ "obj-72", 0 ],
					"hidden" : 0,
					"midpoints" : [  ]
				}

			}
, 			{
				"patchline" : 				{
					"source" : [ "obj-29", 0 ],
					"destination" : [ "obj-26", 3 ],
					"hidden" : 0,
					"midpoints" : [  ]
				}

			}
, 			{
				"patchline" : 				{
					"source" : [ "obj-26", 3 ],
					"destination" : [ "obj-37", 0 ],
					"hidden" : 0,
					"midpoints" : [  ]
				}

			}
, 			{
				"patchline" : 				{
					"source" : [ "obj-6", 0 ],
					"destination" : [ "obj-3", 3 ],
					"hidden" : 0,
					"midpoints" : [  ]
				}

			}
, 			{
				"patchline" : 				{
					"source" : [ "obj-3", 3 ],
					"destination" : [ "obj-14", 0 ],
					"hidden" : 0,
					"midpoints" : [  ]
				}

			}
, 			{
				"patchline" : 				{
					"source" : [ "obj-88", 0 ],
					"destination" : [ "obj-84", 4 ],
					"hidden" : 0,
					"midpoints" : [  ]
				}

			}
, 			{
				"patchline" : 				{
					"source" : [ "obj-84", 4 ],
					"destination" : [ "obj-96", 0 ],
					"hidden" : 0,
					"midpoints" : [  ]
				}

			}
, 			{
				"patchline" : 				{
					"source" : [ "obj-65", 0 ],
					"destination" : [ "obj-61", 4 ],
					"hidden" : 0,
					"midpoints" : [  ]
				}

			}
, 			{
				"patchline" : 				{
					"source" : [ "obj-61", 4 ],
					"destination" : [ "obj-73", 0 ],
					"hidden" : 0,
					"midpoints" : [  ]
				}

			}
, 			{
				"patchline" : 				{
					"source" : [ "obj-30", 0 ],
					"destination" : [ "obj-26", 4 ],
					"hidden" : 0,
					"midpoints" : [  ]
				}

			}
, 			{
				"patchline" : 				{
					"source" : [ "obj-26", 4 ],
					"destination" : [ "obj-38", 0 ],
					"hidden" : 0,
					"midpoints" : [  ]
				}

			}
, 			{
				"patchline" : 				{
					"source" : [ "obj-7", 0 ],
					"destination" : [ "obj-3", 4 ],
					"hidden" : 0,
					"midpoints" : [  ]
				}

			}
, 			{
				"patchline" : 				{
					"source" : [ "obj-3", 4 ],
					"destination" : [ "obj-15", 0 ],
					"hidden" : 0,
					"midpoints" : [  ]
				}

			}
, 			{
				"patchline" : 				{
					"source" : [ "obj-89", 0 ],
					"destination" : [ "obj-84", 5 ],
					"hidden" : 0,
					"midpoints" : [  ]
				}

			}
, 			{
				"patchline" : 				{
					"source" : [ "obj-84", 5 ],
					"destination" : [ "obj-97", 0 ],
					"hidden" : 0,
					"midpoints" : [  ]
				}

			}
, 			{
				"patchline" : 				{
					"source" : [ "obj-66", 0 ],
					"destination" : [ "obj-61", 5 ],
					"hidden" : 0,
					"midpoints" : [  ]
				}

			}
, 			{
				"patchline" : 				{
					"source" : [ "obj-61", 5 ],
					"destination" : [ "obj-74", 0 ],
					"hidden" : 0,
					"midpoints" : [  ]
				}

			}
, 			{
				"patchline" : 				{
					"source" : [ "obj-31", 0 ],
					"destination" : [ "obj-26", 5 ],
					"hidden" : 0,
					"midpoints" : [  ]
				}

			}
, 			{
				"patchline" : 				{
					"source" : [ "obj-26", 5 ],
					"destination" : [ "obj-39", 0 ],
					"hidden" : 0,
					"midpoints" : [  ]
				}

			}
, 			{
				"patchline" : 				{
					"source" : [ "obj-8", 0 ],
					"destination" : [ "obj-3", 5 ],
					"hidden" : 0,
					"midpoints" : [  ]
				}

			}
, 			{
				"patchline" : 				{
					"source" : [ "obj-3", 5 ],
					"destination" : [ "obj-16", 0 ],
					"hidden" : 0,
					"midpoints" : [  ]
				}

			}
, 			{
				"patchline" : 				{
					"source" : [ "obj-90", 0 ],
					"destination" : [ "obj-84", 6 ],
					"hidden" : 0,
					"midpoints" : [  ]
				}

			}
, 			{
				"patchline" : 				{
					"source" : [ "obj-84", 6 ],
					"destination" : [ "obj-98", 0 ],
					"hidden" : 0,
					"midpoints" : [  ]
				}

			}
, 			{
				"patchline" : 				{
					"source" : [ "obj-67", 0 ],
					"destination" : [ "obj-61", 6 ],
					"hidden" : 0,
					"midpoints" : [  ]
				}

			}
, 			{
				"patchline" : 				{
					"source" : [ "obj-61", 6 ],
					"destination" : [ "obj-75", 0 ],
					"hidden" : 0,
					"midpoints" : [  ]
				}

			}
, 			{
				"patchline" : 				{
					"source" : [ "obj-32", 0 ],
					"destination" : [ "obj-26", 6 ],
					"hidden" : 0,
					"midpoints" : [  ]
				}

			}
, 			{
				"patchline" : 				{
					"source" : [ "obj-26", 6 ],
					"destination" : [ "obj-40", 0 ],
					"hidden" : 0,
					"midpoints" : [  ]
				}

			}
, 			{
				"patchline" : 				{
					"source" : [ "obj-9", 0 ],
					"destination" : [ "obj-3", 6 ],
					"hidden" : 0,
					"midpoints" : [  ]
				}

			}
, 			{
				"patchline" : 				{
					"source" : [ "obj-3", 6 ],
					"destination" : [ "obj-17", 0 ],
					"hidden" : 0,
					"midpoints" : [  ]
				}

			}
, 			{
				"patchline" : 				{
					"source" : [ "obj-91", 0 ],
					"destination" : [ "obj-84", 7 ],
					"hidden" : 0,
					"midpoints" : [  ]
				}

			}
, 			{
				"patchline" : 				{
					"source" : [ "obj-84", 7 ],
					"destination" : [ "obj-99", 0 ],
					"hidden" : 0,
					"midpoints" : [  ]
				}

			}
, 			{
				"patchline" : 				{
					"source" : [ "obj-68", 0 ],
					"destination" : [ "obj-61", 7 ],
					"hidden" : 0,
					"midpoints" : [  ]
				}

			}
, 			{
				"patchline" : 				{
					"source" : [ "obj-61", 7 ],
					"destination" : [ "obj-76", 0 ],
					"hidden" : 0,
					"midpoints" : [  ]
				}

			}
, 			{
				"patchline" : 				{
					"source" : [ "obj-33", 0 ],
					"destination" : [ "obj-26", 7 ],
					"hidden" : 0,
					"midpoints" : [  ]
				}

			}
, 			{
				"patchline" : 				{
					"source" : [ "obj-26", 7 ],
					"destination" : [ "obj-41", 0 ],
					"hidden" : 0,
					"midpoints" : [  ]
				}

			}
, 			{
				"patchline" : 				{
					"source" : [ "obj-10", 0 ],
					"destination" : [ "obj-3", 7 ],
					"hidden" : 0,
					"midpoints" : [  ]
				}

			}
, 			{
				"patchline" : 				{
					"source" : [ "obj-3", 7 ],
					"destination" : [ "obj-18", 0 ],
					"hidden" : 0,
					"midpoints" : [  ]
				}

			}
, 			{
				"patchline" : 				{
					"source" : [ "obj-92", 0 ],
					"destination" : [ "obj-84", 8 ],
					"hidden" : 0,
					"midpoints" : [  ]
				}

			}
, 			{
				"patchline" : 				{
					"source" : [ "obj-84", 8 ],
					"destination" : [ "obj-100", 0 ],
					"hidden" : 0,
					"midpoints" : [  ]
				}

			}
, 			{
				"patchline" : 				{
					"source" : [ "obj-69", 0 ],
					"destination" : [ "obj-61", 8 ],
					"hidden" : 0,
					"midpoints" : [  ]
				}

			}
, 			{
				"patchline" : 				{
					"source" : [ "obj-61", 8 ],
					"destination" : [ "obj-77", 0 ],
					"hidden" : 0,
					"midpoints" : [  ]
				}

			}
, 			{
				"patchline" : 				{
					"source" : [ "obj-34", 0 ],
					"destination" : [ "obj-26", 8 ],
					"hidden" : 0,
					"midpoints" : [  ]
				}

			}
, 			{
				"patchline" : 				{
					"source" : [ "obj-26", 8 ],
					"destination" : [ "obj-42", 0 ],
					"hidden" : 0,
					"midpoints" : [  ]
				}

			}
, 			{
				"patchline" : 				{
					"source" : [ "obj-11", 0 ],
					"destination" : [ "obj-3", 8 ],
					"hidden" : 0,
					"midpoints" : [  ]
				}

			}
, 			{
				"patchline" : 				{
					"source" : [ "obj-3", 8 ],
					"destination" : [ "obj-19", 0 ],
					"hidden" : 0,
					"midpoints" : [  ]
				}

			}
, 			{
				"patchline" : 				{
					"source" : [ "obj-53", 0 ],
					"destination" : [ "obj-51", 0 ],
					"hidden" : 0,
					"midpoints" : [  ]
				}

			}
, 			{
				"patchline" : 				{
					"source" : [ "obj-51", 0 ],
					"destination" : [ "obj-49", 0 ],
					"hidden" : 0,
					"midpoints" : [  ]
				}

			}
, 			{
				"patchline" : 				{
					"source" : [ "obj-144", 0 ],
					"destination" : [ "obj-143", 0 ],
					"hidden" : 0,
					"midpoints" : [  ]
				}

			}
, 			{
				"patchline" : 				{
					"source" : [ "obj-143", 0 ],
					"destination" : [ "obj-50", 0 ],
					"hidden" : 0,
					"midpoints" : [  ]
				}

			}
, 			{
				"patchline" : 				{
					"source" : [ "obj-50", 0 ],
					"destination" : [ "obj-55", 0 ],
					"hidden" : 0,
					"midpoints" : [  ]
				}

			}
, 			{
				"patchline" : 				{
					"source" : [ "obj-49", 0 ],
					"destination" : [ "obj-55", 0 ],
					"hidden" : 0,
					"midpoints" : [  ]
				}

			}
, 			{
				"patchline" : 				{
					"source" : [ "obj-55", 0 ],
					"destination" : [ "obj-54", 0 ],
					"hidden" : 0,
					"midpoints" : [  ]
				}

			}
, 			{
				"patchline" : 				{
					"source" : [ "obj-54", 0 ],
					"destination" : [ "obj-53", 0 ],
					"hidden" : 0,
					"midpoints" : [  ]
				}

			}
, 			{
				"patchline" : 				{
					"source" : [ "obj-53", 0 ],
					"destination" : [ "obj-48", 0 ],
					"hidden" : 0,
					"midpoints" : [  ]
				}

			}
, 			{
				"patchline" : 				{
					"source" : [ "obj-48", 0 ],
					"destination" : [ "obj-142", 0 ],
					"hidden" : 0,
					"midpoints" : [  ]
				}

			}
, 			{
				"patchline" : 				{
					"source" : [ "obj-48", 1 ],
					"destination" : [ "obj-141", 0 ],
					"hidden" : 0,
					"midpoints" : [  ]
				}

			}
, 			{
				"patchline" : 				{
					"source" : [ "obj-132", 0 ],
					"destination" : [ "obj-54", 1 ],
					"hidden" : 0,
					"midpoints" : [  ]
				}

			}
, 			{
				"patchline" : 				{
					"source" : [ "obj-53", 0 ],
					"destination" : [ "obj-52", 0 ],
					"hidden" : 0,
					"midpoints" : [  ]
				}

			}
, 			{
				"patchline" : 				{
					"source" : [ "obj-105", 0 ],
					"destination" : [ "obj-127", 0 ],
					"hidden" : 0,
					"midpoints" : [  ]
				}

			}
, 			{
				"patchline" : 				{
					"source" : [ "obj-127", 0 ],
					"destination" : [ "obj-128", 0 ],
					"hidden" : 0,
					"midpoints" : [  ]
				}

			}
, 			{
				"patchline" : 				{
					"source" : [ "obj-128", 0 ],
					"destination" : [ "obj-126", 0 ],
					"hidden" : 0,
					"midpoints" : [  ]
				}

			}
, 			{
				"patchline" : 				{
					"source" : [ "obj-136", 0 ],
					"destination" : [ "obj-137", 0 ],
					"hidden" : 0,
					"midpoints" : [  ]
				}

			}
, 			{
				"patchline" : 				{
					"source" : [ "obj-137", 0 ],
					"destination" : [ "obj-129", 0 ],
					"hidden" : 0,
					"midpoints" : [  ]
				}

			}
, 			{
				"patchline" : 				{
					"source" : [ "obj-129", 0 ],
					"destination" : [ "obj-131", 0 ],
					"hidden" : 0,
					"midpoints" : [  ]
				}

			}
, 			{
				"patchline" : 				{
					"source" : [ "obj-131", 0 ],
					"destination" : [ "obj-130", 0 ],
					"hidden" : 0,
					"midpoints" : [  ]
				}

			}
, 			{
				"patchline" : 				{
					"source" : [ "obj-130", 0 ],
					"destination" : [ "obj-132", 0 ],
					"hidden" : 0,
					"midpoints" : [  ]
				}

			}
, 			{
				"patchline" : 				{
					"source" : [ "obj-133", 0 ],
					"destination" : [ "obj-137", 1 ],
					"hidden" : 0,
					"midpoints" : [  ]
				}

			}
, 			{
				"patchline" : 				{
					"source" : [ "obj-132", 0 ],
					"destination" : [ "obj-128", 1 ],
					"hidden" : 0,
					"midpoints" : [  ]
				}

			}
, 			{
				"patchline" : 				{
					"source" : [ "obj-58", 0 ],
					"destination" : [ "obj-57", 0 ],
					"hidden" : 0,
					"midpoints" : [  ]
				}

			}
, 			{
				"patchline" : 				{
					"source" : [ "obj-57", 0 ],
					"destination" : [ "obj-134", 0 ],
					"hidden" : 0,
					"midpoints" : [  ]
				}

			}
, 			{
				"patchline" : 				{
					"source" : [ "obj-135", 0 ],
					"destination" : [ "obj-133", 0 ],
					"hidden" : 0,
					"midpoints" : [  ]
				}

			}
, 			{
				"patchline" : 				{
					"source" : [ "obj-134", 0 ],
					"destination" : [ "obj-135", 0 ],
					"hidden" : 0,
					"midpoints" : [  ]
				}

			}
 ]
	}

}
