{
	"patcher" : 	{
		"fileversion" : 1,
		"rect" : [ 25.0, 69.0, 1301.0, 745.0 ],
		"bglocked" : 0,
		"defrect" : [ 25.0, 69.0, 1301.0, 745.0 ],
		"openrect" : [ 0.0, 0.0, 0.0, 0.0 ],
		"openinpresentation" : 1,
		"default_fontsize" : 12.0,
		"default_fontface" : 0,
		"default_fontname" : "Arial",
		"gridonopen" : 0,
		"gridsize" : [ 15.0, 15.0 ],
		"gridsnaponopen" : 0,
		"toolbarvisible" : 1,
		"boxanimatetime" : 200,
		"imprint" : 0,
		"metadata" : [  ],
		"boxes" : [ 			{
				"box" : 				{
					"maxclass" : "comment",
					"text" : "pattern 4",
					"id" : "obj-15",
					"presentation_rect" : [ 225.0, 2.0, 58.0, 20.0 ],
					"numinlets" : 1,
					"fontsize" : 12.0,
					"numoutlets" : 0,
					"patching_rect" : [ 303.0, 183.0, 150.0, 20.0 ],
					"presentation" : 1,
					"fontname" : "Arial"
				}

			}
, 			{
				"box" : 				{
					"maxclass" : "comment",
					"text" : "pattern 3",
					"id" : "obj-14",
					"presentation_rect" : [ 151.0, 2.0, 58.0, 20.0 ],
					"numinlets" : 1,
					"fontsize" : 12.0,
					"numoutlets" : 0,
					"patching_rect" : [ 241.0, 183.0, 150.0, 20.0 ],
					"presentation" : 1,
					"fontname" : "Arial"
				}

			}
, 			{
				"box" : 				{
					"maxclass" : "comment",
					"text" : "pattern 2",
					"id" : "obj-13",
					"presentation_rect" : [ 76.0, 2.0, 58.0, 20.0 ],
					"numinlets" : 1,
					"fontsize" : 12.0,
					"numoutlets" : 0,
					"patching_rect" : [ 155.0, 181.0, 150.0, 20.0 ],
					"presentation" : 1,
					"fontname" : "Arial"
				}

			}
, 			{
				"box" : 				{
					"maxclass" : "comment",
					"text" : "pattern 1",
					"id" : "obj-12",
					"presentation_rect" : [ 2.0, 2.0, 58.0, 20.0 ],
					"numinlets" : 1,
					"fontsize" : 12.0,
					"numoutlets" : 0,
					"patching_rect" : [ 78.0, 180.0, 150.0, 20.0 ],
					"presentation" : 1,
					"fontname" : "Arial"
				}

			}
, 			{
				"box" : 				{
					"maxclass" : "multislider",
					"id" : "obj-10",
					"presentation_rect" : [ 227.0, 22.0, 62.0, 8.0 ],
					"numinlets" : 1,
					"candicane4" : [ 0.439216, 0.619608, 0.070588, 1.0 ],
					"candicane5" : [ 0.584314, 0.827451, 0.431373, 1.0 ],
					"ignoreclick" : 1,
					"numoutlets" : 2,
					"candicane3" : [ 0.290196, 0.411765, 0.713726, 1.0 ],
					"candicane7" : [ 0.878431, 0.243137, 0.145098, 1.0 ],
					"candicane6" : [ 0.733333, 0.035294, 0.788235, 1.0 ],
					"patching_rect" : [ 480.0, 657.0, 62.0, 8.0 ],
					"presentation" : 1,
					"outlettype" : [ "", "" ],
					"setminmax" : [ 0.0, 1.0 ],
					"setstyle" : 1,
					"orientation" : 0,
					"candicane2" : [ 0.145098, 0.203922, 0.356863, 1.0 ],
					"candicane8" : [ 0.027451, 0.447059, 0.501961, 1.0 ],
					"peakcolor" : [ 0.498039, 0.498039, 0.498039, 1.0 ]
				}

			}
, 			{
				"box" : 				{
					"maxclass" : "multislider",
					"id" : "obj-9",
					"presentation_rect" : [ 153.0, 22.0, 62.0, 8.0 ],
					"numinlets" : 1,
					"candicane4" : [ 0.439216, 0.619608, 0.070588, 1.0 ],
					"candicane5" : [ 0.584314, 0.827451, 0.431373, 1.0 ],
					"ignoreclick" : 1,
					"numoutlets" : 2,
					"candicane3" : [ 0.290196, 0.411765, 0.713726, 1.0 ],
					"candicane7" : [ 0.878431, 0.243137, 0.145098, 1.0 ],
					"candicane6" : [ 0.733333, 0.035294, 0.788235, 1.0 ],
					"patching_rect" : [ 397.0, 657.0, 62.0, 8.0 ],
					"presentation" : 1,
					"outlettype" : [ "", "" ],
					"setminmax" : [ 0.0, 1.0 ],
					"setstyle" : 1,
					"orientation" : 0,
					"candicane2" : [ 0.145098, 0.203922, 0.356863, 1.0 ],
					"candicane8" : [ 0.027451, 0.447059, 0.501961, 1.0 ],
					"peakcolor" : [ 0.498039, 0.498039, 0.498039, 1.0 ]
				}

			}
, 			{
				"box" : 				{
					"maxclass" : "multislider",
					"id" : "obj-8",
					"presentation_rect" : [ 79.0, 22.0, 62.0, 8.0 ],
					"numinlets" : 1,
					"candicane4" : [ 0.439216, 0.619608, 0.070588, 1.0 ],
					"candicane5" : [ 0.584314, 0.827451, 0.431373, 1.0 ],
					"ignoreclick" : 1,
					"numoutlets" : 2,
					"candicane3" : [ 0.290196, 0.411765, 0.713726, 1.0 ],
					"candicane7" : [ 0.878431, 0.243137, 0.145098, 1.0 ],
					"candicane6" : [ 0.733333, 0.035294, 0.788235, 1.0 ],
					"patching_rect" : [ 309.0, 657.0, 62.0, 8.0 ],
					"presentation" : 1,
					"outlettype" : [ "", "" ],
					"setminmax" : [ 0.0, 1.0 ],
					"setstyle" : 1,
					"orientation" : 0,
					"candicane2" : [ 0.145098, 0.203922, 0.356863, 1.0 ],
					"candicane8" : [ 0.027451, 0.447059, 0.501961, 1.0 ],
					"peakcolor" : [ 0.498039, 0.498039, 0.498039, 1.0 ]
				}

			}
, 			{
				"box" : 				{
					"maxclass" : "multislider",
					"id" : "obj-7",
					"presentation_rect" : [ 5.0, 22.0, 62.0, 8.0 ],
					"numinlets" : 1,
					"candicane4" : [ 0.439216, 0.619608, 0.070588, 1.0 ],
					"candicane5" : [ 0.584314, 0.827451, 0.431373, 1.0 ],
					"ignoreclick" : 1,
					"numoutlets" : 2,
					"candicane3" : [ 0.290196, 0.411765, 0.713726, 1.0 ],
					"candicane7" : [ 0.878431, 0.243137, 0.145098, 1.0 ],
					"candicane6" : [ 0.733333, 0.035294, 0.788235, 1.0 ],
					"patching_rect" : [ 223.0, 658.0, 62.0, 8.0 ],
					"presentation" : 1,
					"outlettype" : [ "", "" ],
					"setminmax" : [ 0.0, 1.0 ],
					"setstyle" : 1,
					"orientation" : 0,
					"candicane2" : [ 0.145098, 0.203922, 0.356863, 1.0 ],
					"candicane8" : [ 0.027451, 0.447059, 0.501961, 1.0 ],
					"peakcolor" : [ 0.498039, 0.498039, 0.498039, 1.0 ]
				}

			}
, 			{
				"box" : 				{
					"maxclass" : "newobj",
					"text" : "t b 0",
					"id" : "obj-6",
					"numinlets" : 1,
					"fontsize" : 12.0,
					"numoutlets" : 2,
					"patching_rect" : [ 616.0, 253.0, 34.0, 20.0 ],
					"outlettype" : [ "bang", "int" ],
					"fontname" : "Arial"
				}

			}
, 			{
				"box" : 				{
					"maxclass" : "message",
					"text" : "0",
					"id" : "obj-52",
					"numinlets" : 2,
					"fontsize" : 12.0,
					"numoutlets" : 1,
					"patching_rect" : [ 520.0, 306.0, 32.5, 18.0 ],
					"outlettype" : [ "" ],
					"fontname" : "Arial"
				}

			}
, 			{
				"box" : 				{
					"maxclass" : "message",
					"text" : "1",
					"id" : "obj-50",
					"numinlets" : 2,
					"fontsize" : 12.0,
					"numoutlets" : 1,
					"patching_rect" : [ 616.0, 146.0, 32.5, 18.0 ],
					"outlettype" : [ "" ],
					"fontname" : "Arial"
				}

			}
, 			{
				"box" : 				{
					"maxclass" : "newobj",
					"text" : "if $i1==2 then $i1 else out2 $i1",
					"linecount" : 2,
					"id" : "obj-46",
					"numinlets" : 1,
					"fontsize" : 12.0,
					"numoutlets" : 2,
					"patching_rect" : [ 616.0, 94.0, 99.0, 34.0 ],
					"outlettype" : [ "", "" ],
					"fontname" : "Arial"
				}

			}
, 			{
				"box" : 				{
					"maxclass" : "newobj",
					"text" : "gate",
					"id" : "obj-45",
					"numinlets" : 2,
					"fontsize" : 12.0,
					"numoutlets" : 1,
					"patching_rect" : [ 616.0, 222.0, 34.0, 20.0 ],
					"outlettype" : [ "" ],
					"fontname" : "Arial"
				}

			}
, 			{
				"box" : 				{
					"maxclass" : "newobj",
					"text" : "gate",
					"id" : "obj-44",
					"numinlets" : 2,
					"fontsize" : 12.0,
					"numoutlets" : 1,
					"patching_rect" : [ 391.0, 264.0, 34.0, 20.0 ],
					"outlettype" : [ "" ],
					"fontname" : "Arial"
				}

			}
, 			{
				"box" : 				{
					"maxclass" : "newobj",
					"text" : "t i i",
					"id" : "obj-43",
					"numinlets" : 1,
					"fontsize" : 12.0,
					"numoutlets" : 2,
					"patching_rect" : [ 406.0, 181.0, 32.5, 20.0 ],
					"outlettype" : [ "int", "int" ],
					"fontname" : "Arial"
				}

			}
, 			{
				"box" : 				{
					"maxclass" : "newobj",
					"text" : "s [matrix]output",
					"id" : "obj-33",
					"numinlets" : 1,
					"fontsize" : 10.0,
					"numoutlets" : 0,
					"patching_rect" : [ 483.0, 581.0, 79.0, 18.0 ],
					"fontname" : "Arial"
				}

			}
, 			{
				"box" : 				{
					"maxclass" : "newobj",
					"text" : "s [box]output",
					"id" : "obj-34",
					"numinlets" : 1,
					"fontsize" : 10.0,
					"numoutlets" : 0,
					"patching_rect" : [ 326.0, 582.0, 68.0, 18.0 ],
					"fontname" : "Arial"
				}

			}
, 			{
				"box" : 				{
					"maxclass" : "message",
					"text" : "#1 3 1 $1",
					"id" : "obj-35",
					"numinlets" : 2,
					"fontsize" : 10.0,
					"numoutlets" : 1,
					"patching_rect" : [ 528.0, 535.0, 52.0, 16.0 ],
					"outlettype" : [ "" ],
					"fontname" : "Arial"
				}

			}
, 			{
				"box" : 				{
					"maxclass" : "message",
					"text" : "#1 2 1 $1",
					"id" : "obj-36",
					"numinlets" : 2,
					"fontsize" : 10.0,
					"numoutlets" : 1,
					"patching_rect" : [ 467.0, 535.0, 52.0, 16.0 ],
					"outlettype" : [ "" ],
					"fontname" : "Arial"
				}

			}
, 			{
				"box" : 				{
					"maxclass" : "message",
					"text" : "#1 1 1 $1",
					"id" : "obj-37",
					"numinlets" : 2,
					"fontsize" : 10.0,
					"numoutlets" : 1,
					"patching_rect" : [ 389.0, 536.0, 52.0, 16.0 ],
					"outlettype" : [ "" ],
					"fontname" : "Arial"
				}

			}
, 			{
				"box" : 				{
					"maxclass" : "message",
					"text" : "#1 0 1 $1",
					"id" : "obj-38",
					"numinlets" : 2,
					"fontsize" : 10.0,
					"numoutlets" : 1,
					"patching_rect" : [ 326.0, 536.0, 52.0, 16.0 ],
					"outlettype" : [ "" ],
					"fontname" : "Arial"
				}

			}
, 			{
				"box" : 				{
					"maxclass" : "newobj",
					"text" : "pattern",
					"id" : "obj-39",
					"numinlets" : 2,
					"fontsize" : 10.0,
					"numoutlets" : 4,
					"patching_rect" : [ 528.0, 494.942871, 42.0, 18.0 ],
					"outlettype" : [ "", "", "", "" ],
					"fontname" : "Arial"
				}

			}
, 			{
				"box" : 				{
					"maxclass" : "newobj",
					"text" : "pattern",
					"id" : "obj-40",
					"numinlets" : 2,
					"fontsize" : 10.0,
					"numoutlets" : 4,
					"patching_rect" : [ 467.0, 495.942871, 42.0, 18.0 ],
					"outlettype" : [ "", "", "", "" ],
					"fontname" : "Arial"
				}

			}
, 			{
				"box" : 				{
					"maxclass" : "newobj",
					"text" : "pattern",
					"id" : "obj-41",
					"numinlets" : 2,
					"fontsize" : 10.0,
					"numoutlets" : 4,
					"patching_rect" : [ 389.0, 496.942932, 42.0, 18.0 ],
					"outlettype" : [ "", "", "", "" ],
					"fontname" : "Arial"
				}

			}
, 			{
				"box" : 				{
					"maxclass" : "newobj",
					"text" : "pattern",
					"id" : "obj-42",
					"numinlets" : 2,
					"fontsize" : 10.0,
					"numoutlets" : 4,
					"patching_rect" : [ 326.0, 495.942932, 42.0, 18.0 ],
					"outlettype" : [ "", "", "", "" ],
					"fontname" : "Arial"
				}

			}
, 			{
				"box" : 				{
					"maxclass" : "newobj",
					"text" : "if $i1==1 then 1",
					"id" : "obj-31",
					"numinlets" : 1,
					"fontsize" : 12.0,
					"numoutlets" : 1,
					"patching_rect" : [ 320.0, 404.0, 93.0, 20.0 ],
					"outlettype" : [ "" ],
					"fontname" : "Arial"
				}

			}
, 			{
				"box" : 				{
					"maxclass" : "newobj",
					"text" : "== 1",
					"id" : "obj-30",
					"numinlets" : 2,
					"fontsize" : 12.0,
					"numoutlets" : 1,
					"patching_rect" : [ 469.0, 229.0, 35.0, 20.0 ],
					"outlettype" : [ "int" ],
					"fontname" : "Arial"
				}

			}
, 			{
				"box" : 				{
					"maxclass" : "newobj",
					"text" : "t i i",
					"id" : "obj-29",
					"numinlets" : 1,
					"fontsize" : 12.0,
					"numoutlets" : 2,
					"patching_rect" : [ 358.0, 180.0, 32.5, 20.0 ],
					"outlettype" : [ "int", "int" ],
					"fontname" : "Arial"
				}

			}
, 			{
				"box" : 				{
					"maxclass" : "newobj",
					"text" : "route 0 1 2 3",
					"id" : "obj-24",
					"numinlets" : 1,
					"fontsize" : 12.0,
					"numoutlets" : 5,
					"patching_rect" : [ 326.0, 309.0, 78.0, 20.0 ],
					"outlettype" : [ "", "", "", "", "" ],
					"fontname" : "Arial"
				}

			}
, 			{
				"box" : 				{
					"maxclass" : "toggle",
					"id" : "obj-25",
					"numinlets" : 1,
					"numoutlets" : 1,
					"patching_rect" : [ 399.295044, 346.316437, 17.704918, 17.704918 ],
					"outlettype" : [ "int" ]
				}

			}
, 			{
				"box" : 				{
					"maxclass" : "toggle",
					"id" : "obj-26",
					"numinlets" : 1,
					"numoutlets" : 1,
					"patching_rect" : [ 375.557373, 345.632904, 17.704918, 17.704918 ],
					"outlettype" : [ "int" ]
				}

			}
, 			{
				"box" : 				{
					"maxclass" : "toggle",
					"id" : "obj-27",
					"numinlets" : 1,
					"numoutlets" : 1,
					"patching_rect" : [ 340.934448, 346.151886, 17.704918, 17.704918 ],
					"outlettype" : [ "int" ]
				}

			}
, 			{
				"box" : 				{
					"maxclass" : "toggle",
					"id" : "obj-28",
					"numinlets" : 1,
					"numoutlets" : 1,
					"patching_rect" : [ 320.0, 347.0, 17.704918, 17.704918 ],
					"outlettype" : [ "int" ]
				}

			}
, 			{
				"box" : 				{
					"maxclass" : "newobj",
					"text" : "gate 2",
					"id" : "obj-20",
					"numinlets" : 2,
					"fontsize" : 12.0,
					"numoutlets" : 2,
					"patching_rect" : [ 358.0, 154.0, 67.0, 20.0 ],
					"outlettype" : [ "", "" ],
					"fontname" : "Arial"
				}

			}
, 			{
				"box" : 				{
					"maxclass" : "newobj",
					"text" : "+ 1",
					"id" : "obj-19",
					"numinlets" : 2,
					"fontsize" : 12.0,
					"numoutlets" : 1,
					"patching_rect" : [ 358.0, 118.0, 32.5, 20.0 ],
					"outlettype" : [ "int" ],
					"fontname" : "Arial"
				}

			}
, 			{
				"box" : 				{
					"maxclass" : "newobj",
					"text" : "loadmess 0",
					"id" : "obj-18",
					"numinlets" : 1,
					"fontsize" : 12.0,
					"numoutlets" : 1,
					"patching_rect" : [ 455.0, 26.0, 72.0, 20.0 ],
					"outlettype" : [ "" ],
					"fontname" : "Arial"
				}

			}
, 			{
				"box" : 				{
					"maxclass" : "toggle",
					"id" : "obj-16",
					"numinlets" : 1,
					"numoutlets" : 1,
					"patching_rect" : [ 358.0, 84.0, 20.0, 20.0 ],
					"outlettype" : [ "int" ]
				}

			}
, 			{
				"box" : 				{
					"maxclass" : "newobj",
					"text" : "gate 2",
					"id" : "obj-5",
					"numinlets" : 2,
					"fontsize" : 10.0,
					"numoutlets" : 2,
					"patching_rect" : [ 121.0, 432.0, 38.0, 18.0 ],
					"outlettype" : [ "", "" ],
					"fontname" : "Arial"
				}

			}
, 			{
				"box" : 				{
					"maxclass" : "outlet",
					"id" : "obj-3",
					"numinlets" : 1,
					"numoutlets" : 0,
					"patching_rect" : [ 63.0, 592.0, 25.0, 25.0 ],
					"comment" : "button press output (y,x,value)"
				}

			}
, 			{
				"box" : 				{
					"maxclass" : "inlet",
					"id" : "obj-2",
					"numinlets" : 0,
					"numoutlets" : 1,
					"patching_rect" : [ 50.0, 34.0, 25.0, 25.0 ],
					"outlettype" : [ "" ],
					"comment" : "button press (y,x, value)"
				}

			}
, 			{
				"box" : 				{
					"maxclass" : "newobj",
					"text" : "r #1pattr",
					"id" : "obj-1",
					"numinlets" : 0,
					"fontsize" : 12.0,
					"numoutlets" : 1,
					"patching_rect" : [ 338.0, 20.0, 55.0, 20.0 ],
					"outlettype" : [ "" ],
					"fontname" : "Arial"
				}

			}
 ],
		"lines" : [ 			{
				"patchline" : 				{
					"source" : [ "obj-39", 3 ],
					"destination" : [ "obj-3", 0 ],
					"hidden" : 0,
					"midpoints" : [ 560.5, 522.0, 72.5, 522.0 ]
				}

			}
, 			{
				"patchline" : 				{
					"source" : [ "obj-40", 3 ],
					"destination" : [ "obj-3", 0 ],
					"hidden" : 0,
					"midpoints" : [ 499.5, 522.0, 72.5, 522.0 ]
				}

			}
, 			{
				"patchline" : 				{
					"source" : [ "obj-41", 3 ],
					"destination" : [ "obj-3", 0 ],
					"hidden" : 0,
					"midpoints" : [ 421.5, 522.0, 72.5, 522.0 ]
				}

			}
, 			{
				"patchline" : 				{
					"source" : [ "obj-42", 3 ],
					"destination" : [ "obj-3", 0 ],
					"hidden" : 0,
					"midpoints" : [ 358.5, 522.0, 72.5, 522.0 ]
				}

			}
, 			{
				"patchline" : 				{
					"source" : [ "obj-19", 0 ],
					"destination" : [ "obj-5", 0 ],
					"hidden" : 0,
					"midpoints" : [ 367.5, 146.0, 130.5, 146.0 ]
				}

			}
, 			{
				"patchline" : 				{
					"source" : [ "obj-39", 0 ],
					"destination" : [ "obj-46", 0 ],
					"hidden" : 0,
					"midpoints" : [ 537.5, 530.0, 764.0, 530.0, 764.0, 54.0, 625.5, 54.0 ]
				}

			}
, 			{
				"patchline" : 				{
					"source" : [ "obj-40", 0 ],
					"destination" : [ "obj-46", 0 ],
					"hidden" : 0,
					"midpoints" : [ 476.5, 531.0, 771.0, 531.0, 771.0, 46.0, 625.0, 46.0, 625.5, 47.0 ]
				}

			}
, 			{
				"patchline" : 				{
					"source" : [ "obj-41", 0 ],
					"destination" : [ "obj-46", 0 ],
					"hidden" : 0,
					"midpoints" : [ 398.5, 531.0, 779.0, 531.0, 779.0, 40.0, 625.5, 40.0 ]
				}

			}
, 			{
				"patchline" : 				{
					"source" : [ "obj-42", 0 ],
					"destination" : [ "obj-46", 0 ],
					"hidden" : 0,
					"midpoints" : [ 335.5, 530.0, 784.0, 530.0, 784.0, 35.0, 625.5, 35.0 ]
				}

			}
, 			{
				"patchline" : 				{
					"source" : [ "obj-52", 0 ],
					"destination" : [ "obj-16", 0 ],
					"hidden" : 0,
					"midpoints" : [ 529.5, 337.0, 568.0, 337.0, 568.0, 63.0, 367.5, 63.0 ]
				}

			}
, 			{
				"patchline" : 				{
					"source" : [ "obj-44", 0 ],
					"destination" : [ "obj-52", 0 ],
					"hidden" : 0,
					"midpoints" : [ 400.5, 292.0, 529.5, 292.0 ]
				}

			}
, 			{
				"patchline" : 				{
					"source" : [ "obj-46", 1 ],
					"destination" : [ "obj-45", 1 ],
					"hidden" : 0,
					"midpoints" : [ 705.5, 189.0, 640.5, 189.0 ]
				}

			}
, 			{
				"patchline" : 				{
					"source" : [ "obj-50", 0 ],
					"destination" : [ "obj-45", 0 ],
					"hidden" : 0,
					"midpoints" : [  ]
				}

			}
, 			{
				"patchline" : 				{
					"source" : [ "obj-46", 0 ],
					"destination" : [ "obj-50", 0 ],
					"hidden" : 0,
					"midpoints" : [  ]
				}

			}
, 			{
				"patchline" : 				{
					"source" : [ "obj-18", 0 ],
					"destination" : [ "obj-45", 0 ],
					"hidden" : 0,
					"midpoints" : [ 464.5, 183.0, 625.5, 183.0 ]
				}

			}
, 			{
				"patchline" : 				{
					"source" : [ "obj-44", 0 ],
					"destination" : [ "obj-24", 0 ],
					"hidden" : 0,
					"midpoints" : [ 400.5, 298.0, 335.5, 298.0 ]
				}

			}
, 			{
				"patchline" : 				{
					"source" : [ "obj-43", 0 ],
					"destination" : [ "obj-44", 1 ],
					"hidden" : 0,
					"midpoints" : [  ]
				}

			}
, 			{
				"patchline" : 				{
					"source" : [ "obj-30", 0 ],
					"destination" : [ "obj-44", 0 ],
					"hidden" : 0,
					"midpoints" : [ 478.5, 257.0, 400.5, 257.0 ]
				}

			}
, 			{
				"patchline" : 				{
					"source" : [ "obj-43", 1 ],
					"destination" : [ "obj-30", 0 ],
					"hidden" : 0,
					"midpoints" : [ 429.0, 214.0, 478.5, 214.0 ]
				}

			}
, 			{
				"patchline" : 				{
					"source" : [ "obj-20", 1 ],
					"destination" : [ "obj-43", 0 ],
					"hidden" : 0,
					"midpoints" : [  ]
				}

			}
, 			{
				"patchline" : 				{
					"source" : [ "obj-29", 1 ],
					"destination" : [ "obj-30", 1 ],
					"hidden" : 0,
					"midpoints" : [ 381.0, 224.0, 494.5, 224.0 ]
				}

			}
, 			{
				"patchline" : 				{
					"source" : [ "obj-29", 0 ],
					"destination" : [ "obj-24", 0 ],
					"hidden" : 0,
					"midpoints" : [ 367.5, 220.0, 335.5, 220.0 ]
				}

			}
, 			{
				"patchline" : 				{
					"source" : [ "obj-20", 0 ],
					"destination" : [ "obj-29", 0 ],
					"hidden" : 0,
					"midpoints" : [  ]
				}

			}
, 			{
				"patchline" : 				{
					"source" : [ "obj-24", 3 ],
					"destination" : [ "obj-39", 0 ],
					"hidden" : 0,
					"midpoints" : [ 379.75, 447.0, 537.5, 447.0 ]
				}

			}
, 			{
				"patchline" : 				{
					"source" : [ "obj-24", 2 ],
					"destination" : [ "obj-40", 0 ],
					"hidden" : 0,
					"midpoints" : [ 365.0, 460.0, 476.5, 460.0 ]
				}

			}
, 			{
				"patchline" : 				{
					"source" : [ "obj-24", 1 ],
					"destination" : [ "obj-41", 0 ],
					"hidden" : 0,
					"midpoints" : [ 350.25, 470.0, 398.5, 470.0 ]
				}

			}
, 			{
				"patchline" : 				{
					"source" : [ "obj-24", 0 ],
					"destination" : [ "obj-42", 0 ],
					"hidden" : 0,
					"midpoints" : [  ]
				}

			}
, 			{
				"patchline" : 				{
					"source" : [ "obj-35", 0 ],
					"destination" : [ "obj-33", 0 ],
					"hidden" : 0,
					"midpoints" : [ 537.5, 570.0, 492.5, 570.0 ]
				}

			}
, 			{
				"patchline" : 				{
					"source" : [ "obj-36", 0 ],
					"destination" : [ "obj-33", 0 ],
					"hidden" : 0,
					"midpoints" : [ 476.5, 561.0, 492.5, 561.0 ]
				}

			}
, 			{
				"patchline" : 				{
					"source" : [ "obj-37", 0 ],
					"destination" : [ "obj-33", 0 ],
					"hidden" : 0,
					"midpoints" : [ 398.5, 567.0, 492.5, 567.0 ]
				}

			}
, 			{
				"patchline" : 				{
					"source" : [ "obj-38", 0 ],
					"destination" : [ "obj-33", 0 ],
					"hidden" : 0,
					"midpoints" : [ 335.5, 572.0, 492.5, 572.0 ]
				}

			}
, 			{
				"patchline" : 				{
					"source" : [ "obj-35", 0 ],
					"destination" : [ "obj-34", 0 ],
					"hidden" : 0,
					"midpoints" : [ 537.5, 563.0, 335.5, 563.0 ]
				}

			}
, 			{
				"patchline" : 				{
					"source" : [ "obj-36", 0 ],
					"destination" : [ "obj-34", 0 ],
					"hidden" : 0,
					"midpoints" : [ 476.5, 560.0, 335.5, 560.0 ]
				}

			}
, 			{
				"patchline" : 				{
					"source" : [ "obj-37", 0 ],
					"destination" : [ "obj-34", 0 ],
					"hidden" : 0,
					"midpoints" : [ 398.5, 560.0, 335.5, 560.0 ]
				}

			}
, 			{
				"patchline" : 				{
					"source" : [ "obj-38", 0 ],
					"destination" : [ "obj-34", 0 ],
					"hidden" : 0,
					"midpoints" : [  ]
				}

			}
, 			{
				"patchline" : 				{
					"source" : [ "obj-42", 0 ],
					"destination" : [ "obj-38", 0 ],
					"hidden" : 0,
					"midpoints" : [  ]
				}

			}
, 			{
				"patchline" : 				{
					"source" : [ "obj-41", 0 ],
					"destination" : [ "obj-37", 0 ],
					"hidden" : 0,
					"midpoints" : [  ]
				}

			}
, 			{
				"patchline" : 				{
					"source" : [ "obj-40", 0 ],
					"destination" : [ "obj-36", 0 ],
					"hidden" : 0,
					"midpoints" : [  ]
				}

			}
, 			{
				"patchline" : 				{
					"source" : [ "obj-39", 0 ],
					"destination" : [ "obj-35", 0 ],
					"hidden" : 0,
					"midpoints" : [  ]
				}

			}
, 			{
				"patchline" : 				{
					"source" : [ "obj-31", 0 ],
					"destination" : [ "obj-16", 0 ],
					"hidden" : 0,
					"midpoints" : [ 329.5, 435.0, 303.0, 435.0, 303.0, 61.0, 367.5, 61.0 ]
				}

			}
, 			{
				"patchline" : 				{
					"source" : [ "obj-25", 0 ],
					"destination" : [ "obj-31", 0 ],
					"hidden" : 0,
					"midpoints" : [ 408.795044, 387.0, 329.5, 387.0 ]
				}

			}
, 			{
				"patchline" : 				{
					"source" : [ "obj-26", 0 ],
					"destination" : [ "obj-31", 0 ],
					"hidden" : 0,
					"midpoints" : [ 385.057373, 387.0, 329.5, 387.0 ]
				}

			}
, 			{
				"patchline" : 				{
					"source" : [ "obj-27", 0 ],
					"destination" : [ "obj-31", 0 ],
					"hidden" : 0,
					"midpoints" : [ 350.434448, 386.0, 329.5, 386.0 ]
				}

			}
, 			{
				"patchline" : 				{
					"source" : [ "obj-28", 0 ],
					"destination" : [ "obj-31", 0 ],
					"hidden" : 0,
					"midpoints" : [  ]
				}

			}
, 			{
				"patchline" : 				{
					"source" : [ "obj-24", 0 ],
					"destination" : [ "obj-28", 0 ],
					"hidden" : 0,
					"midpoints" : [ 335.5, 340.0, 329.5, 340.0 ]
				}

			}
, 			{
				"patchline" : 				{
					"source" : [ "obj-24", 1 ],
					"destination" : [ "obj-27", 0 ],
					"hidden" : 0,
					"midpoints" : [  ]
				}

			}
, 			{
				"patchline" : 				{
					"source" : [ "obj-24", 2 ],
					"destination" : [ "obj-26", 0 ],
					"hidden" : 0,
					"midpoints" : [ 365.0, 340.0, 385.057373, 340.0 ]
				}

			}
, 			{
				"patchline" : 				{
					"source" : [ "obj-24", 3 ],
					"destination" : [ "obj-25", 0 ],
					"hidden" : 0,
					"midpoints" : [ 379.75, 334.0, 408.795044, 334.0 ]
				}

			}
, 			{
				"patchline" : 				{
					"source" : [ "obj-1", 0 ],
					"destination" : [ "obj-20", 1 ],
					"hidden" : 0,
					"midpoints" : [ 347.5, 51.0, 415.5, 51.0 ]
				}

			}
, 			{
				"patchline" : 				{
					"source" : [ "obj-19", 0 ],
					"destination" : [ "obj-20", 0 ],
					"hidden" : 0,
					"midpoints" : [  ]
				}

			}
, 			{
				"patchline" : 				{
					"source" : [ "obj-18", 0 ],
					"destination" : [ "obj-16", 0 ],
					"hidden" : 0,
					"midpoints" : [ 464.5, 64.0, 367.5, 64.0 ]
				}

			}
, 			{
				"patchline" : 				{
					"source" : [ "obj-16", 0 ],
					"destination" : [ "obj-19", 0 ],
					"hidden" : 0,
					"midpoints" : [  ]
				}

			}
, 			{
				"patchline" : 				{
					"source" : [ "obj-5", 0 ],
					"destination" : [ "obj-3", 0 ],
					"hidden" : 0,
					"midpoints" : [ 130.5, 552.0, 72.5, 552.0 ]
				}

			}
, 			{
				"patchline" : 				{
					"source" : [ "obj-2", 0 ],
					"destination" : [ "obj-5", 1 ],
					"hidden" : 0,
					"midpoints" : [ 59.5, 246.0, 149.5, 246.0 ]
				}

			}
, 			{
				"patchline" : 				{
					"source" : [ "obj-5", 1 ],
					"destination" : [ "obj-42", 1 ],
					"hidden" : 0,
					"midpoints" : [ 149.5, 490.0, 358.5, 490.0 ]
				}

			}
, 			{
				"patchline" : 				{
					"source" : [ "obj-5", 1 ],
					"destination" : [ "obj-41", 1 ],
					"hidden" : 0,
					"midpoints" : [ 149.5, 484.0, 421.5, 484.0 ]
				}

			}
, 			{
				"patchline" : 				{
					"source" : [ "obj-5", 1 ],
					"destination" : [ "obj-40", 1 ],
					"hidden" : 0,
					"midpoints" : [ 149.5, 477.0, 499.5, 477.0 ]
				}

			}
, 			{
				"patchline" : 				{
					"source" : [ "obj-5", 1 ],
					"destination" : [ "obj-39", 1 ],
					"hidden" : 0,
					"midpoints" : [ 149.5, 467.0, 560.5, 467.0 ]
				}

			}
, 			{
				"patchline" : 				{
					"source" : [ "obj-45", 0 ],
					"destination" : [ "obj-6", 0 ],
					"hidden" : 0,
					"midpoints" : [  ]
				}

			}
, 			{
				"patchline" : 				{
					"source" : [ "obj-6", 0 ],
					"destination" : [ "obj-52", 0 ],
					"hidden" : 0,
					"midpoints" : [ 625.5, 283.0, 529.5, 283.0 ]
				}

			}
, 			{
				"patchline" : 				{
					"source" : [ "obj-6", 1 ],
					"destination" : [ "obj-45", 0 ],
					"hidden" : 0,
					"midpoints" : [ 640.5, 279.0, 663.0, 279.0, 663.0, 212.0, 625.5, 212.0 ]
				}

			}
, 			{
				"patchline" : 				{
					"source" : [ "obj-42", 1 ],
					"destination" : [ "obj-7", 0 ],
					"hidden" : 0,
					"midpoints" : [ 343.166656, 526.0, 232.5, 526.0 ]
				}

			}
, 			{
				"patchline" : 				{
					"source" : [ "obj-41", 1 ],
					"destination" : [ "obj-8", 0 ],
					"hidden" : 0,
					"midpoints" : [ 406.166656, 630.0, 318.5, 630.0 ]
				}

			}
, 			{
				"patchline" : 				{
					"source" : [ "obj-40", 1 ],
					"destination" : [ "obj-9", 0 ],
					"hidden" : 0,
					"midpoints" : [ 484.166656, 639.0, 406.5, 639.0 ]
				}

			}
, 			{
				"patchline" : 				{
					"source" : [ "obj-39", 1 ],
					"destination" : [ "obj-10", 0 ],
					"hidden" : 0,
					"midpoints" : [ 545.166687, 640.0, 489.5, 640.0 ]
				}

			}
 ]
	}

}
