{
	"patcher" : 	{
		"fileversion" : 1,
		"rect" : [ 181.0, 215.0, 980.0, 374.0 ],
		"bglocked" : 0,
		"defrect" : [ 181.0, 215.0, 980.0, 374.0 ],
		"openrect" : [ 0.0, 0.0, 0.0, 0.0 ],
		"openinpresentation" : 0,
		"default_fontsize" : 12.0,
		"default_fontface" : 0,
		"default_fontname" : "Arial",
		"gridonopen" : 0,
		"gridsize" : [ 15.0, 15.0 ],
		"gridsnaponopen" : 0,
		"toolbarvisible" : 1,
		"boxanimatetime" : 200,
		"imprint" : 0,
		"metadata" : [  ],
		"boxes" : [ 			{
				"box" : 				{
					"maxclass" : "outlet",
					"numinlets" : 1,
					"patching_rect" : [ 392.697662, 292.810333, 16.656977, 16.656977 ],
					"numoutlets" : 0,
					"id" : "obj-1",
					"comment" : ""
				}

			}
, 			{
				"box" : 				{
					"maxclass" : "outlet",
					"numinlets" : 1,
					"patching_rect" : [ 233.901169, 288.172424, 16.656977, 16.656977 ],
					"numoutlets" : 0,
					"id" : "obj-2",
					"comment" : ""
				}

			}
, 			{
				"box" : 				{
					"maxclass" : "outlet",
					"numinlets" : 1,
					"patching_rect" : [ 64.0, 275.804596, 16.656977, 16.656977 ],
					"numoutlets" : 0,
					"id" : "obj-3",
					"comment" : ""
				}

			}
, 			{
				"box" : 				{
					"maxclass" : "inlet",
					"numinlets" : 0,
					"patching_rect" : [ 315.25, 51.0, 16.656977, 16.656977 ],
					"numoutlets" : 1,
					"outlettype" : [ "" ],
					"id" : "obj-4",
					"comment" : ""
				}

			}
, 			{
				"box" : 				{
					"maxclass" : "inlet",
					"numinlets" : 0,
					"patching_rect" : [ 112.709305, 53.0, 17.656977, 17.656977 ],
					"numoutlets" : 1,
					"outlettype" : [ "" ],
					"id" : "obj-5",
					"comment" : ""
				}

			}
, 			{
				"box" : 				{
					"maxclass" : "newobj",
					"text" : "s 1pp-d",
					"numinlets" : 1,
					"patching_rect" : [ 314.872101, 246.522995, 48.860466, 19.0 ],
					"hidden" : 1,
					"numoutlets" : 0,
					"fontsize" : 10.513534,
					"id" : "obj-6",
					"fontname" : "Arial"
				}

			}
, 			{
				"box" : 				{
					"maxclass" : "newobj",
					"text" : "sel 0 1",
					"numinlets" : 1,
					"patching_rect" : [ 277.20929, 181.5, 44.418606, 19.0 ],
					"hidden" : 1,
					"numoutlets" : 3,
					"fontsize" : 10.513534,
					"outlettype" : [ "bang", "bang", "" ],
					"color" : [ 1.0, 0.890196, 0.090196, 1.0 ],
					"id" : "obj-7",
					"fontname" : "Arial"
				}

			}
, 			{
				"box" : 				{
					"maxclass" : "newobj",
					"text" : "r 1pp",
					"numinlets" : 0,
					"patching_rect" : [ 276.098846, 150.58046, 37.755814, 19.0 ],
					"hidden" : 1,
					"numoutlets" : 1,
					"fontsize" : 10.513534,
					"outlettype" : [ "" ],
					"color" : [ 1.0, 0.890196, 0.090196, 1.0 ],
					"id" : "obj-8",
					"fontname" : "Arial"
				}

			}
, 			{
				"box" : 				{
					"maxclass" : "newobj",
					"text" : "p pattern",
					"numinlets" : 3,
					"patching_rect" : [ 278.319763, 218.603455, 55.523254, 19.0 ],
					"hidden" : 1,
					"numoutlets" : 2,
					"fontsize" : 10.513534,
					"outlettype" : [ "", "" ],
					"id" : "obj-9",
					"fontname" : "Arial",
					"patcher" : 					{
						"fileversion" : 1,
						"rect" : [ 111.0, 72.0, 1066.0, 681.0 ],
						"bglocked" : 0,
						"defrect" : [ 111.0, 72.0, 1066.0, 681.0 ],
						"openrect" : [ 0.0, 0.0, 0.0, 0.0 ],
						"openinpresentation" : 0,
						"default_fontsize" : 12.0,
						"default_fontface" : 0,
						"default_fontname" : "Arial",
						"gridonopen" : 0,
						"gridsize" : [ 15.0, 15.0 ],
						"gridsnaponopen" : 0,
						"toolbarvisible" : 1,
						"boxanimatetime" : 200,
						"imprint" : 0,
						"metadata" : [  ],
						"boxes" : [ 							{
								"box" : 								{
									"maxclass" : "outlet",
									"numinlets" : 1,
									"patching_rect" : [ 252.820358, 568.467957, 24.431137, 24.431137 ],
									"numoutlets" : 0,
									"id" : "obj-1",
									"comment" : ""
								}

							}
, 							{
								"box" : 								{
									"maxclass" : "message",
									"text" : "1",
									"numinlets" : 2,
									"patching_rect" : [ 348.916168, 539.247864, 26.059879, 24.0 ],
									"numoutlets" : 1,
									"fontsize" : 17.273081,
									"outlettype" : [ "" ],
									"id" : "obj-2",
									"fontname" : "Arial"
								}

							}
, 							{
								"box" : 								{
									"maxclass" : "message",
									"text" : "0",
									"numinlets" : 2,
									"patching_rect" : [ 317.970062, 539.247864, 26.059879, 24.0 ],
									"numoutlets" : 1,
									"fontsize" : 17.273081,
									"outlettype" : [ "" ],
									"id" : "obj-3",
									"fontname" : "Arial"
								}

							}
, 							{
								"box" : 								{
									"maxclass" : "button",
									"numinlets" : 1,
									"patching_rect" : [ 316.341309, 455.094025, 24.431137, 24.431137 ],
									"numoutlets" : 1,
									"outlettype" : [ "bang" ],
									"id" : "obj-4"
								}

							}
, 							{
								"box" : 								{
									"maxclass" : "newobj",
									"text" : "del 50",
									"numinlets" : 2,
									"patching_rect" : [ 425.467072, 505.35257, 61.892216, 28.0 ],
									"numoutlets" : 1,
									"fontsize" : 18.472668,
									"outlettype" : [ "bang" ],
									"id" : "obj-5",
									"fontname" : "Arial"
								}

							}
, 							{
								"box" : 								{
									"maxclass" : "message",
									"text" : "frgb 0 0 0",
									"numinlets" : 2,
									"patching_rect" : [ 285.395203, 498.339752, 91.209579, 24.0 ],
									"numoutlets" : 1,
									"fontsize" : 17.273081,
									"outlettype" : [ "" ],
									"id" : "obj-6",
									"fontname" : "Arial"
								}

							}
, 							{
								"box" : 								{
									"maxclass" : "message",
									"text" : "frgb 240 150 10",
									"numinlets" : 2,
									"patching_rect" : [ 158.353287, 494.833344, 140.071854, 24.0 ],
									"numoutlets" : 1,
									"fontsize" : 17.273081,
									"outlettype" : [ "" ],
									"id" : "obj-7",
									"fontname" : "Arial"
								}

							}
, 							{
								"box" : 								{
									"maxclass" : "newobj",
									"text" : "gate",
									"numinlets" : 2,
									"patching_rect" : [ 69.461075, 445.848297, 47.233532, 28.0 ],
									"numoutlets" : 1,
									"fontsize" : 18.472668,
									"outlettype" : [ "" ],
									"color" : [ 1.0, 0.890196, 0.090196, 1.0 ],
									"id" : "obj-8",
									"fontname" : "Arial"
								}

							}
, 							{
								"box" : 								{
									"maxclass" : "outlet",
									"numinlets" : 1,
									"patching_rect" : [ 94.832336, 585.429504, 24.431137, 24.431137 ],
									"numoutlets" : 0,
									"id" : "obj-9",
									"comment" : ""
								}

							}
, 							{
								"box" : 								{
									"maxclass" : "newobj",
									"text" : "snapshot~ 100",
									"numinlets" : 2,
									"patching_rect" : [ 98.089821, 372.108978, 130.0, 28.0 ],
									"numoutlets" : 1,
									"fontsize" : 18.472668,
									"outlettype" : [ "float" ],
									"color" : [ 1.0, 0.890196, 0.090196, 1.0 ],
									"id" : "obj-10",
									"fontname" : "Arial"
								}

							}
, 							{
								"box" : 								{
									"maxclass" : "message",
									"text" : "0",
									"numinlets" : 2,
									"patching_rect" : [ 693.976074, 168.074783, 26.059879, 24.0 ],
									"numoutlets" : 1,
									"fontsize" : 17.273081,
									"outlettype" : [ "" ],
									"id" : "obj-11",
									"fontname" : "Arial"
								}

							}
, 							{
								"box" : 								{
									"maxclass" : "message",
									"text" : "0",
									"numinlets" : 2,
									"patching_rect" : [ 703.305359, 427.19873, 26.059879, 24.0 ],
									"numoutlets" : 1,
									"fontsize" : 17.273081,
									"outlettype" : [ "" ],
									"id" : "obj-12",
									"fontname" : "Arial"
								}

							}
, 							{
								"box" : 								{
									"maxclass" : "message",
									"text" : "1",
									"numinlets" : 2,
									"patching_rect" : [ 493.874237, 421.19873, 26.059879, 24.0 ],
									"numoutlets" : 1,
									"fontsize" : 17.273081,
									"outlettype" : [ "" ],
									"id" : "obj-13",
									"fontname" : "Arial"
								}

							}
, 							{
								"box" : 								{
									"maxclass" : "message",
									"text" : "record 1",
									"numinlets" : 2,
									"patching_rect" : [ 548.191589, 334.628204, 78.179642, 24.0 ],
									"numoutlets" : 1,
									"fontsize" : 17.273081,
									"outlettype" : [ "" ],
									"id" : "obj-14",
									"fontname" : "Arial"
								}

							}
, 							{
								"box" : 								{
									"maxclass" : "newobj",
									"text" : "loadbang",
									"numinlets" : 1,
									"patching_rect" : [ 383.119751, 262.241455, 87.293411, 25.0 ],
									"numoutlets" : 1,
									"fontsize" : 16.208933,
									"outlettype" : [ "bang" ],
									"id" : "obj-15",
									"fontname" : "Arial"
								}

							}
, 							{
								"box" : 								{
									"maxclass" : "newobj",
									"text" : "gate",
									"numinlets" : 2,
									"patching_rect" : [ 213.215576, 338.967957, 44.0, 28.0 ],
									"numoutlets" : 1,
									"fontsize" : 18.472668,
									"outlettype" : [ "" ],
									"id" : "obj-16",
									"fontname" : "Arial"
								}

							}
, 							{
								"box" : 								{
									"maxclass" : "message",
									"text" : "1",
									"numinlets" : 2,
									"patching_rect" : [ 636.287415, 171.905975, 26.059879, 24.0 ],
									"numoutlets" : 1,
									"fontsize" : 17.273081,
									"outlettype" : [ "" ],
									"id" : "obj-17",
									"fontname" : "Arial"
								}

							}
, 							{
								"box" : 								{
									"maxclass" : "message",
									"text" : "erase",
									"numinlets" : 2,
									"patching_rect" : [ 483.419189, 332.707275, 55.377247, 24.0 ],
									"numoutlets" : 1,
									"fontsize" : 17.273081,
									"outlettype" : [ "" ],
									"id" : "obj-18",
									"fontname" : "Arial"
								}

							}
, 							{
								"box" : 								{
									"maxclass" : "inlet",
									"numinlets" : 0,
									"patching_rect" : [ 665.916138, 44.0, 24.431137, 24.431137 ],
									"numoutlets" : 1,
									"outlettype" : [ "" ],
									"id" : "obj-19",
									"comment" : ""
								}

							}
, 							{
								"box" : 								{
									"maxclass" : "inlet",
									"numinlets" : 0,
									"patching_rect" : [ 586.712585, 39.0, 24.431137, 24.431137 ],
									"numoutlets" : 1,
									"outlettype" : [ "bang" ],
									"id" : "obj-20",
									"comment" : ""
								}

							}
, 							{
								"box" : 								{
									"maxclass" : "inlet",
									"numinlets" : 0,
									"patching_rect" : [ 554.137695, 39.0, 24.431137, 24.431137 ],
									"numoutlets" : 1,
									"outlettype" : [ "bang" ],
									"id" : "obj-21",
									"comment" : ""
								}

							}
, 							{
								"box" : 								{
									"maxclass" : "newobj",
									"text" : "t 0 1",
									"numinlets" : 1,
									"patching_rect" : [ 649.203613, 385.369659, 50.491016, 28.0 ],
									"numoutlets" : 2,
									"fontsize" : 18.472668,
									"outlettype" : [ "int", "int" ],
									"id" : "obj-22",
									"fontname" : "Arial"
								}

							}
, 							{
								"box" : 								{
									"maxclass" : "newobj",
									"text" : "t 1 b 0",
									"numinlets" : 1,
									"patching_rect" : [ 653.11377, 268.254272, 65.149704, 28.0 ],
									"numoutlets" : 3,
									"fontsize" : 18.472668,
									"outlettype" : [ "int", "bang", "int" ],
									"id" : "obj-23",
									"fontname" : "Arial"
								}

							}
, 							{
								"box" : 								{
									"maxclass" : "newobj",
									"text" : "* 0.99",
									"numinlets" : 2,
									"patching_rect" : [ 744.868286, 269.072662, 100.982033, 28.0 ],
									"numoutlets" : 1,
									"fontsize" : 18.472668,
									"outlettype" : [ "float" ],
									"color" : [ 0.8, 0.611765, 0.380392, 1.0 ],
									"id" : "obj-24",
									"fontname" : "Arial"
								}

							}
, 							{
								"box" : 								{
									"maxclass" : "newobj",
									"text" : "del 0.",
									"numinlets" : 2,
									"patching_rect" : [ 676.089844, 323.149567, 55.377247, 28.0 ],
									"numoutlets" : 1,
									"fontsize" : 18.472668,
									"outlettype" : [ "bang" ],
									"id" : "obj-25",
									"fontname" : "Arial"
								}

							}
, 							{
								"box" : 								{
									"maxclass" : "newobj",
									"text" : "gate",
									"numinlets" : 2,
									"patching_rect" : [ 652.856262, 224.202988, 44.0, 28.0 ],
									"numoutlets" : 1,
									"fontsize" : 18.472668,
									"outlettype" : [ "" ],
									"id" : "obj-26",
									"fontname" : "Arial"
								}

							}
, 							{
								"box" : 								{
									"maxclass" : "button",
									"numinlets" : 1,
									"patching_rect" : [ 599.742493, 92.764954, 24.431137, 24.431137 ],
									"numoutlets" : 1,
									"outlettype" : [ "bang" ],
									"id" : "obj-27"
								}

							}
, 							{
								"box" : 								{
									"maxclass" : "button",
									"numinlets" : 1,
									"patching_rect" : [ 562.281433, 93.933762, 24.431137, 24.431137 ],
									"numoutlets" : 1,
									"outlettype" : [ "bang" ],
									"id" : "obj-28"
								}

							}
, 							{
								"box" : 								{
									"maxclass" : "newobj",
									"text" : "t l b",
									"numinlets" : 1,
									"patching_rect" : [ 232.473053, 83.450851, 43.976048, 28.0 ],
									"numoutlets" : 2,
									"fontsize" : 18.472668,
									"outlettype" : [ "", "bang" ],
									"id" : "obj-29",
									"fontname" : "Arial"
								}

							}
, 							{
								"box" : 								{
									"maxclass" : "flonum",
									"numinlets" : 1,
									"bgcolor" : [ 0.866667, 0.866667, 0.866667, 1.0 ],
									"patching_rect" : [ 745.443115, 228.177353, 123.784431, 28.0 ],
									"triscale" : 0.9,
									"numoutlets" : 2,
									"fontsize" : 18.472668,
									"outlettype" : [ "float", "bang" ],
									"htextcolor" : [ 0.870588, 0.870588, 0.870588, 1.0 ],
									"id" : "obj-30",
									"fontname" : "Arial"
								}

							}
, 							{
								"box" : 								{
									"maxclass" : "newobj",
									"text" : "t b f",
									"numinlets" : 1,
									"patching_rect" : [ 760.07782, 142.361115, 43.976048, 28.0 ],
									"numoutlets" : 2,
									"fontsize" : 18.472668,
									"outlettype" : [ "bang", "float" ],
									"color" : [ 0.8, 0.611765, 0.380392, 1.0 ],
									"id" : "obj-31",
									"fontname" : "Arial"
								}

							}
, 							{
								"box" : 								{
									"maxclass" : "newobj",
									"text" : "* 1.",
									"numinlets" : 2,
									"patching_rect" : [ 744.700623, 189.775635, 43.976048, 28.0 ],
									"numoutlets" : 1,
									"fontsize" : 18.472668,
									"outlettype" : [ "float" ],
									"color" : [ 0.8, 0.611765, 0.380392, 1.0 ],
									"id" : "obj-32",
									"fontname" : "Arial"
								}

							}
, 							{
								"box" : 								{
									"maxclass" : "newobj",
									"text" : "r [time]ms",
									"numinlets" : 0,
									"patching_rect" : [ 744.532959, 101.764954, 94.467064, 28.0 ],
									"numoutlets" : 1,
									"fontsize" : 18.472668,
									"outlettype" : [ "" ],
									"color" : [ 0.8, 0.611765, 0.380392, 1.0 ],
									"id" : "obj-33",
									"fontname" : "Arial"
								}

							}
, 							{
								"box" : 								{
									"maxclass" : "flonum",
									"numinlets" : 1,
									"bgcolor" : [ 0.866667, 0.866667, 0.866667, 1.0 ],
									"patching_rect" : [ 664.892212, 85.27137, 57.005989, 28.0 ],
									"triscale" : 0.9,
									"numoutlets" : 2,
									"fontsize" : 18.472668,
									"outlettype" : [ "float", "bang" ],
									"htextcolor" : [ 0.870588, 0.870588, 0.870588, 1.0 ],
									"id" : "obj-34",
									"fontname" : "Arial"
								}

							}
, 							{
								"box" : 								{
									"maxclass" : "newobj",
									"text" : "s pattern_out",
									"numinlets" : 1,
									"patching_rect" : [ 594.586853, 499.288452, 116.0, 28.0 ],
									"numoutlets" : 0,
									"fontsize" : 18.472668,
									"id" : "obj-35",
									"fontname" : "Arial"
								}

							}
, 							{
								"box" : 								{
									"maxclass" : "newobj",
									"text" : "r pattern_in",
									"numinlets" : 0,
									"patching_rect" : [ 232.0, 45.555557, 105.868263, 28.0 ],
									"numoutlets" : 1,
									"fontsize" : 18.472668,
									"outlettype" : [ "" ],
									"id" : "obj-36",
									"fontname" : "Arial"
								}

							}
, 							{
								"box" : 								{
									"maxclass" : "newobj",
									"text" : "rate~ 1.",
									"numinlets" : 2,
									"patching_rect" : [ 102.167664, 208.905975, 73.293411, 28.0 ],
									"numoutlets" : 1,
									"fontsize" : 18.472668,
									"outlettype" : [ "signal" ],
									"color" : [ 1.0, 0.890196, 0.090196, 1.0 ],
									"id" : "obj-37",
									"fontname" : "Arial"
								}

							}
, 							{
								"box" : 								{
									"maxclass" : "newobj",
									"text" : "receive~ [time]phase",
									"linecount" : 2,
									"numinlets" : 1,
									"patching_rect" : [ 102.167664, 88.491455, 107.0, 49.0 ],
									"numoutlets" : 1,
									"fontsize" : 18.472668,
									"outlettype" : [ "signal" ],
									"color" : [ 1.0, 0.890196, 0.090196, 1.0 ],
									"id" : "obj-38",
									"fontname" : "Arial"
								}

							}
, 							{
								"box" : 								{
									"maxclass" : "message",
									"text" : "overdub 1",
									"numinlets" : 2,
									"patching_rect" : [ 385.209595, 333.707275, 87.952095, 24.0 ],
									"numoutlets" : 1,
									"fontsize" : 17.273081,
									"outlettype" : [ "" ],
									"id" : "obj-39",
									"fontname" : "Arial"
								}

							}
, 							{
								"box" : 								{
									"maxclass" : "message",
									"text" : "play 1",
									"numinlets" : 2,
									"patching_rect" : [ 318.317352, 333.707275, 57.005989, 24.0 ],
									"numoutlets" : 1,
									"fontsize" : 17.273081,
									"outlettype" : [ "" ],
									"id" : "obj-40",
									"fontname" : "Arial"
								}

							}
, 							{
								"box" : 								{
									"maxclass" : "newobj",
									"text" : "seq~",
									"numinlets" : 1,
									"patching_rect" : [ 317.970062, 387.303406, 65.149704, 28.0 ],
									"numoutlets" : 3,
									"fontsize" : 18.472668,
									"outlettype" : [ "", "", "" ],
									"id" : "obj-41",
									"fontname" : "Arial"
								}

							}
 ],
						"lines" : [ 							{
								"patchline" : 								{
									"source" : [ "obj-23", 2 ],
									"destination" : [ "obj-26", 0 ],
									"hidden" : 0,
									"midpoints" : [ 708.763489, 304.0, 725.0, 304.0, 725.0, 215.0, 662.356262, 215.0 ]
								}

							}
, 							{
								"patchline" : 								{
									"source" : [ "obj-24", 0 ],
									"destination" : [ "obj-25", 1 ],
									"hidden" : 0,
									"midpoints" : [ 754.368286, 308.0, 721.967102, 308.0 ]
								}

							}
, 							{
								"patchline" : 								{
									"source" : [ "obj-25", 0 ],
									"destination" : [ "obj-22", 0 ],
									"hidden" : 0,
									"midpoints" : [ 685.589844, 366.0, 658.703613, 366.0 ]
								}

							}
, 							{
								"patchline" : 								{
									"source" : [ "obj-27", 0 ],
									"destination" : [ "obj-22", 0 ],
									"hidden" : 0,
									"midpoints" : [ 609.242493, 319.0, 658.703613, 319.0 ]
								}

							}
, 							{
								"patchline" : 								{
									"source" : [ "obj-11", 0 ],
									"destination" : [ "obj-26", 0 ],
									"hidden" : 0,
									"midpoints" : [ 703.476074, 221.0, 662.356262, 221.0 ]
								}

							}
, 							{
								"patchline" : 								{
									"source" : [ "obj-14", 0 ],
									"destination" : [ "obj-41", 0 ],
									"hidden" : 0,
									"midpoints" : [ 557.691589, 380.0, 327.470062, 380.0 ]
								}

							}
, 							{
								"patchline" : 								{
									"source" : [ "obj-41", 0 ],
									"destination" : [ "obj-35", 0 ],
									"hidden" : 0,
									"midpoints" : [ 327.470062, 451.0, 604.086853, 451.0 ]
								}

							}
, 							{
								"patchline" : 								{
									"source" : [ "obj-27", 0 ],
									"destination" : [ "obj-12", 0 ],
									"hidden" : 0,
									"midpoints" : [ 609.242493, 203.0, 712.805359, 203.0 ]
								}

							}
, 							{
								"patchline" : 								{
									"source" : [ "obj-28", 0 ],
									"destination" : [ "obj-17", 0 ],
									"hidden" : 0,
									"midpoints" : [ 571.781433, 164.0, 645.787415, 164.0 ]
								}

							}
, 							{
								"patchline" : 								{
									"source" : [ "obj-34", 0 ],
									"destination" : [ "obj-37", 1 ],
									"hidden" : 0,
									"midpoints" : [ 674.392212, 148.0, 165.961075, 148.0 ]
								}

							}
, 							{
								"patchline" : 								{
									"source" : [ "obj-27", 0 ],
									"destination" : [ "obj-11", 0 ],
									"hidden" : 0,
									"midpoints" : [ 609.242493, 153.0, 703.476074, 153.0 ]
								}

							}
, 							{
								"patchline" : 								{
									"source" : [ "obj-27", 0 ],
									"destination" : [ "obj-18", 0 ],
									"hidden" : 0,
									"midpoints" : [ 609.242493, 163.0, 492.919189, 163.0 ]
								}

							}
, 							{
								"patchline" : 								{
									"source" : [ "obj-28", 0 ],
									"destination" : [ "obj-18", 0 ],
									"hidden" : 0,
									"midpoints" : [ 571.781433, 163.0, 492.919189, 163.0 ]
								}

							}
, 							{
								"patchline" : 								{
									"source" : [ "obj-39", 0 ],
									"destination" : [ "obj-41", 0 ],
									"hidden" : 0,
									"midpoints" : [ 394.709595, 372.0, 327.470062, 372.0 ]
								}

							}
, 							{
								"patchline" : 								{
									"source" : [ "obj-18", 0 ],
									"destination" : [ "obj-41", 0 ],
									"hidden" : 0,
									"midpoints" : [ 492.919189, 372.0, 327.470062, 372.0 ]
								}

							}
, 							{
								"patchline" : 								{
									"source" : [ "obj-15", 0 ],
									"destination" : [ "obj-14", 0 ],
									"hidden" : 0,
									"midpoints" : [ 392.619751, 309.0, 557.691589, 309.0 ]
								}

							}
, 							{
								"patchline" : 								{
									"source" : [ "obj-15", 0 ],
									"destination" : [ "obj-39", 0 ],
									"hidden" : 0,
									"midpoints" : [ 392.619751, 309.0, 394.709595, 309.0 ]
								}

							}
, 							{
								"patchline" : 								{
									"source" : [ "obj-15", 0 ],
									"destination" : [ "obj-40", 0 ],
									"hidden" : 0,
									"midpoints" : [ 392.619751, 309.0, 327.817352, 309.0 ]
								}

							}
, 							{
								"patchline" : 								{
									"source" : [ "obj-34", 0 ],
									"destination" : [ "obj-31", 0 ],
									"hidden" : 0,
									"midpoints" : [  ]
								}

							}
, 							{
								"patchline" : 								{
									"source" : [ "obj-31", 1 ],
									"destination" : [ "obj-32", 1 ],
									"hidden" : 0,
									"midpoints" : [  ]
								}

							}
, 							{
								"patchline" : 								{
									"source" : [ "obj-33", 0 ],
									"destination" : [ "obj-32", 0 ],
									"hidden" : 0,
									"midpoints" : [  ]
								}

							}
, 							{
								"patchline" : 								{
									"source" : [ "obj-31", 0 ],
									"destination" : [ "obj-32", 0 ],
									"hidden" : 0,
									"midpoints" : [  ]
								}

							}
, 							{
								"patchline" : 								{
									"source" : [ "obj-32", 0 ],
									"destination" : [ "obj-30", 0 ],
									"hidden" : 0,
									"midpoints" : [  ]
								}

							}
, 							{
								"patchline" : 								{
									"source" : [ "obj-30", 0 ],
									"destination" : [ "obj-24", 0 ],
									"hidden" : 0,
									"midpoints" : [  ]
								}

							}
, 							{
								"patchline" : 								{
									"source" : [ "obj-19", 0 ],
									"destination" : [ "obj-34", 0 ],
									"hidden" : 0,
									"midpoints" : [  ]
								}

							}
, 							{
								"patchline" : 								{
									"source" : [ "obj-23", 1 ],
									"destination" : [ "obj-25", 0 ],
									"hidden" : 0,
									"midpoints" : [  ]
								}

							}
, 							{
								"patchline" : 								{
									"source" : [ "obj-29", 1 ],
									"destination" : [ "obj-26", 1 ],
									"hidden" : 0,
									"midpoints" : [  ]
								}

							}
, 							{
								"patchline" : 								{
									"source" : [ "obj-20", 0 ],
									"destination" : [ "obj-27", 0 ],
									"hidden" : 0,
									"midpoints" : [  ]
								}

							}
, 							{
								"patchline" : 								{
									"source" : [ "obj-26", 0 ],
									"destination" : [ "obj-23", 0 ],
									"hidden" : 0,
									"midpoints" : [  ]
								}

							}
, 							{
								"patchline" : 								{
									"source" : [ "obj-17", 0 ],
									"destination" : [ "obj-26", 0 ],
									"hidden" : 0,
									"midpoints" : [  ]
								}

							}
, 							{
								"patchline" : 								{
									"source" : [ "obj-21", 0 ],
									"destination" : [ "obj-28", 0 ],
									"hidden" : 0,
									"midpoints" : [  ]
								}

							}
, 							{
								"patchline" : 								{
									"source" : [ "obj-28", 0 ],
									"destination" : [ "obj-13", 0 ],
									"hidden" : 0,
									"midpoints" : [  ]
								}

							}
, 							{
								"patchline" : 								{
									"source" : [ "obj-4", 0 ],
									"destination" : [ "obj-5", 0 ],
									"hidden" : 0,
									"midpoints" : [  ]
								}

							}
, 							{
								"patchline" : 								{
									"source" : [ "obj-5", 0 ],
									"destination" : [ "obj-2", 0 ],
									"hidden" : 0,
									"midpoints" : [  ]
								}

							}
, 							{
								"patchline" : 								{
									"source" : [ "obj-4", 0 ],
									"destination" : [ "obj-3", 0 ],
									"hidden" : 0,
									"midpoints" : [  ]
								}

							}
, 							{
								"patchline" : 								{
									"source" : [ "obj-40", 0 ],
									"destination" : [ "obj-41", 0 ],
									"hidden" : 0,
									"midpoints" : [  ]
								}

							}
, 							{
								"patchline" : 								{
									"source" : [ "obj-16", 0 ],
									"destination" : [ "obj-41", 0 ],
									"hidden" : 0,
									"midpoints" : [  ]
								}

							}
, 							{
								"patchline" : 								{
									"source" : [ "obj-37", 0 ],
									"destination" : [ "obj-41", 0 ],
									"hidden" : 0,
									"midpoints" : [  ]
								}

							}
, 							{
								"patchline" : 								{
									"source" : [ "obj-41", 0 ],
									"destination" : [ "obj-4", 0 ],
									"hidden" : 0,
									"midpoints" : [  ]
								}

							}
, 							{
								"patchline" : 								{
									"source" : [ "obj-38", 0 ],
									"destination" : [ "obj-37", 0 ],
									"hidden" : 0,
									"midpoints" : [  ]
								}

							}
, 							{
								"patchline" : 								{
									"source" : [ "obj-5", 0 ],
									"destination" : [ "obj-6", 0 ],
									"hidden" : 0,
									"midpoints" : [  ]
								}

							}
, 							{
								"patchline" : 								{
									"source" : [ "obj-3", 0 ],
									"destination" : [ "obj-1", 0 ],
									"hidden" : 0,
									"midpoints" : [  ]
								}

							}
, 							{
								"patchline" : 								{
									"source" : [ "obj-2", 0 ],
									"destination" : [ "obj-1", 0 ],
									"hidden" : 0,
									"midpoints" : [  ]
								}

							}
, 							{
								"patchline" : 								{
									"source" : [ "obj-29", 0 ],
									"destination" : [ "obj-16", 1 ],
									"hidden" : 0,
									"midpoints" : [  ]
								}

							}
, 							{
								"patchline" : 								{
									"source" : [ "obj-36", 0 ],
									"destination" : [ "obj-29", 0 ],
									"hidden" : 0,
									"midpoints" : [  ]
								}

							}
, 							{
								"patchline" : 								{
									"source" : [ "obj-23", 0 ],
									"destination" : [ "obj-16", 0 ],
									"hidden" : 0,
									"midpoints" : [  ]
								}

							}
, 							{
								"patchline" : 								{
									"source" : [ "obj-22", 0 ],
									"destination" : [ "obj-16", 0 ],
									"hidden" : 0,
									"midpoints" : [  ]
								}

							}
, 							{
								"patchline" : 								{
									"source" : [ "obj-4", 0 ],
									"destination" : [ "obj-7", 0 ],
									"hidden" : 0,
									"midpoints" : [  ]
								}

							}
, 							{
								"patchline" : 								{
									"source" : [ "obj-10", 0 ],
									"destination" : [ "obj-8", 1 ],
									"hidden" : 0,
									"midpoints" : [  ]
								}

							}
, 							{
								"patchline" : 								{
									"source" : [ "obj-37", 0 ],
									"destination" : [ "obj-10", 0 ],
									"hidden" : 0,
									"midpoints" : [  ]
								}

							}
, 							{
								"patchline" : 								{
									"source" : [ "obj-13", 0 ],
									"destination" : [ "obj-8", 0 ],
									"hidden" : 0,
									"midpoints" : [  ]
								}

							}
, 							{
								"patchline" : 								{
									"source" : [ "obj-12", 0 ],
									"destination" : [ "obj-8", 0 ],
									"hidden" : 0,
									"midpoints" : [  ]
								}

							}
, 							{
								"patchline" : 								{
									"source" : [ "obj-8", 0 ],
									"destination" : [ "obj-9", 0 ],
									"hidden" : 0,
									"midpoints" : [  ]
								}

							}
, 							{
								"patchline" : 								{
									"source" : [ "obj-7", 0 ],
									"destination" : [ "obj-9", 0 ],
									"hidden" : 0,
									"midpoints" : [  ]
								}

							}
, 							{
								"patchline" : 								{
									"source" : [ "obj-6", 0 ],
									"destination" : [ "obj-9", 0 ],
									"hidden" : 0,
									"midpoints" : [  ]
								}

							}
 ]
					}
,
					"saved_object_attributes" : 					{
						"default_fontface" : 0,
						"globalpatchername" : "",
						"default_fontname" : "Arial",
						"fontface" : 0,
						"fontsize" : 12.0,
						"default_fontsize" : 12.0,
						"fontname" : "Arial"
					}

				}

			}
, 			{
				"box" : 				{
					"maxclass" : "newobj",
					"text" : "s 0pp-d",
					"numinlets" : 1,
					"patching_rect" : [ 112.767441, 224.787354, 48.860466, 19.0 ],
					"hidden" : 1,
					"numoutlets" : 0,
					"fontsize" : 10.513534,
					"id" : "obj-10",
					"fontname" : "Arial"
				}

			}
, 			{
				"box" : 				{
					"maxclass" : "newobj",
					"text" : "loadmess 7",
					"numinlets" : 1,
					"patching_rect" : [ 379.372101, 235.609192, 66.627907, 19.0 ],
					"hidden" : 1,
					"numoutlets" : 1,
					"fontsize" : 10.513534,
					"outlettype" : [ "" ],
					"id" : "obj-11",
					"fontname" : "Arial"
				}

			}
, 			{
				"box" : 				{
					"maxclass" : "newobj",
					"text" : "sel 0 1",
					"numinlets" : 1,
					"patching_rect" : [ 75.104652, 156.764374, 44.418606, 19.0 ],
					"hidden" : 1,
					"numoutlets" : 3,
					"fontsize" : 10.513534,
					"outlettype" : [ "bang", "bang", "" ],
					"color" : [ 1.0, 0.890196, 0.090196, 1.0 ],
					"id" : "obj-12",
					"fontname" : "Arial"
				}

			}
, 			{
				"box" : 				{
					"maxclass" : "newobj",
					"text" : "r 0pp",
					"numinlets" : 0,
					"patching_rect" : [ 73.994186, 125.844826, 36.645348, 19.0 ],
					"hidden" : 1,
					"numoutlets" : 1,
					"fontsize" : 10.513534,
					"outlettype" : [ "" ],
					"color" : [ 1.0, 0.890196, 0.090196, 1.0 ],
					"id" : "obj-13",
					"fontname" : "Arial"
				}

			}
, 			{
				"box" : 				{
					"maxclass" : "newobj",
					"text" : "p pattern",
					"numinlets" : 3,
					"patching_rect" : [ 76.215118, 193.867813, 55.523254, 19.0 ],
					"hidden" : 1,
					"numoutlets" : 2,
					"fontsize" : 10.513534,
					"outlettype" : [ "", "" ],
					"id" : "obj-14",
					"fontname" : "Arial",
					"patcher" : 					{
						"fileversion" : 1,
						"rect" : [ 5.0, 177.0, 713.0, 566.0 ],
						"bglocked" : 0,
						"defrect" : [ 5.0, 177.0, 713.0, 566.0 ],
						"openrect" : [ 0.0, 0.0, 0.0, 0.0 ],
						"openinpresentation" : 0,
						"default_fontsize" : 12.0,
						"default_fontface" : 0,
						"default_fontname" : "Arial",
						"gridonopen" : 0,
						"gridsize" : [ 15.0, 15.0 ],
						"gridsnaponopen" : 0,
						"toolbarvisible" : 1,
						"boxanimatetime" : 200,
						"imprint" : 0,
						"metadata" : [  ],
						"boxes" : [ 							{
								"box" : 								{
									"maxclass" : "outlet",
									"numinlets" : 1,
									"patching_rect" : [ 178.0, 492.0, 15.0, 15.0 ],
									"numoutlets" : 0,
									"id" : "obj-1",
									"comment" : ""
								}

							}
, 							{
								"box" : 								{
									"maxclass" : "message",
									"text" : "1",
									"numinlets" : 2,
									"patching_rect" : [ 237.0, 467.0, 16.0, 15.0 ],
									"numoutlets" : 1,
									"fontsize" : 9.0,
									"outlettype" : [ "" ],
									"id" : "obj-2",
									"fontname" : "Arial"
								}

							}
, 							{
								"box" : 								{
									"maxclass" : "message",
									"text" : "0",
									"numinlets" : 2,
									"patching_rect" : [ 218.0, 467.0, 16.0, 15.0 ],
									"numoutlets" : 1,
									"fontsize" : 9.0,
									"outlettype" : [ "" ],
									"id" : "obj-3",
									"fontname" : "Arial"
								}

							}
, 							{
								"box" : 								{
									"maxclass" : "button",
									"numinlets" : 1,
									"patching_rect" : [ 217.0, 395.0, 15.0, 15.0 ],
									"numoutlets" : 1,
									"outlettype" : [ "bang" ],
									"id" : "obj-4"
								}

							}
, 							{
								"box" : 								{
									"maxclass" : "newobj",
									"text" : "del 50",
									"numinlets" : 2,
									"patching_rect" : [ 284.0, 438.0, 38.0, 17.0 ],
									"numoutlets" : 1,
									"fontsize" : 9.0,
									"outlettype" : [ "bang" ],
									"id" : "obj-5",
									"fontname" : "Arial"
								}

							}
, 							{
								"box" : 								{
									"maxclass" : "message",
									"text" : "frgb 0 0 0",
									"numinlets" : 2,
									"patching_rect" : [ 198.0, 432.0, 56.0, 15.0 ],
									"numoutlets" : 1,
									"fontsize" : 9.0,
									"outlettype" : [ "" ],
									"id" : "obj-6",
									"fontname" : "Arial"
								}

							}
, 							{
								"box" : 								{
									"maxclass" : "message",
									"text" : "frgb 240 150 10",
									"numinlets" : 2,
									"patching_rect" : [ 120.0, 429.0, 86.0, 15.0 ],
									"numoutlets" : 1,
									"fontsize" : 9.0,
									"outlettype" : [ "" ],
									"id" : "obj-7",
									"fontname" : "Arial"
								}

							}
, 							{
								"box" : 								{
									"maxclass" : "newobj",
									"text" : "gate",
									"numinlets" : 2,
									"patching_rect" : [ 82.0, 358.0, 29.0, 17.0 ],
									"numoutlets" : 1,
									"fontsize" : 9.0,
									"outlettype" : [ "" ],
									"color" : [ 1.0, 0.890196, 0.090196, 1.0 ],
									"id" : "obj-8",
									"fontname" : "Arial"
								}

							}
, 							{
								"box" : 								{
									"maxclass" : "outlet",
									"numinlets" : 1,
									"patching_rect" : [ 81.0, 474.0, 15.0, 15.0 ],
									"numoutlets" : 0,
									"id" : "obj-9",
									"comment" : ""
								}

							}
, 							{
								"box" : 								{
									"maxclass" : "newobj",
									"text" : "snapshot~ 100",
									"numinlets" : 2,
									"patching_rect" : [ 83.0, 324.0, 76.0, 17.0 ],
									"numoutlets" : 1,
									"fontsize" : 9.0,
									"outlettype" : [ "float" ],
									"color" : [ 1.0, 0.890196, 0.090196, 1.0 ],
									"id" : "obj-10",
									"fontname" : "Arial"
								}

							}
, 							{
								"box" : 								{
									"maxclass" : "message",
									"text" : "0",
									"numinlets" : 2,
									"patching_rect" : [ 420.0, 152.0, 16.0, 15.0 ],
									"numoutlets" : 1,
									"fontsize" : 9.0,
									"outlettype" : [ "" ],
									"id" : "obj-11",
									"fontname" : "Arial"
								}

							}
, 							{
								"box" : 								{
									"maxclass" : "message",
									"text" : "0",
									"numinlets" : 2,
									"patching_rect" : [ 341.0, 366.0, 16.0, 15.0 ],
									"numoutlets" : 1,
									"fontsize" : 9.0,
									"outlettype" : [ "" ],
									"id" : "obj-12",
									"fontname" : "Arial"
								}

							}
, 							{
								"box" : 								{
									"maxclass" : "message",
									"text" : "1",
									"numinlets" : 2,
									"patching_rect" : [ 326.0, 366.0, 16.0, 15.0 ],
									"numoutlets" : 1,
									"fontsize" : 9.0,
									"outlettype" : [ "" ],
									"id" : "obj-13",
									"fontname" : "Arial"
								}

							}
, 							{
								"box" : 								{
									"maxclass" : "message",
									"text" : "record 1",
									"numinlets" : 2,
									"patching_rect" : [ 344.0, 333.0, 48.0, 15.0 ],
									"numoutlets" : 1,
									"fontsize" : 9.0,
									"outlettype" : [ "" ],
									"id" : "obj-14",
									"fontname" : "Arial"
								}

							}
, 							{
								"box" : 								{
									"maxclass" : "newobj",
									"text" : "loadbang",
									"linecount" : 2,
									"numinlets" : 1,
									"patching_rect" : [ 258.0, 230.0, 45.0, 27.0 ],
									"numoutlets" : 1,
									"fontsize" : 9.0,
									"outlettype" : [ "bang" ],
									"id" : "obj-15",
									"fontname" : "Arial"
								}

							}
, 							{
								"box" : 								{
									"maxclass" : "newobj",
									"text" : "gate",
									"numinlets" : 2,
									"patching_rect" : [ 150.0, 258.0, 27.0, 17.0 ],
									"numoutlets" : 1,
									"fontsize" : 9.0,
									"outlettype" : [ "" ],
									"id" : "obj-16",
									"fontname" : "Arial"
								}

							}
, 							{
								"box" : 								{
									"maxclass" : "message",
									"text" : "1",
									"numinlets" : 2,
									"patching_rect" : [ 403.0, 151.0, 16.0, 15.0 ],
									"numoutlets" : 1,
									"fontsize" : 9.0,
									"outlettype" : [ "" ],
									"id" : "obj-17",
									"fontname" : "Arial"
								}

							}
, 							{
								"box" : 								{
									"maxclass" : "message",
									"text" : "erase",
									"numinlets" : 2,
									"patching_rect" : [ 338.0, 292.0, 34.0, 15.0 ],
									"numoutlets" : 1,
									"fontsize" : 9.0,
									"outlettype" : [ "" ],
									"id" : "obj-18",
									"fontname" : "Arial"
								}

							}
, 							{
								"box" : 								{
									"maxclass" : "inlet",
									"numinlets" : 0,
									"patching_rect" : [ 404.0, 39.0, 15.0, 15.0 ],
									"numoutlets" : 1,
									"outlettype" : [ "" ],
									"id" : "obj-19",
									"comment" : ""
								}

							}
, 							{
								"box" : 								{
									"maxclass" : "inlet",
									"numinlets" : 0,
									"patching_rect" : [ 383.0, 39.0, 15.0, 15.0 ],
									"numoutlets" : 1,
									"outlettype" : [ "bang" ],
									"id" : "obj-20",
									"comment" : ""
								}

							}
, 							{
								"box" : 								{
									"maxclass" : "inlet",
									"numinlets" : 0,
									"patching_rect" : [ 363.0, 39.0, 15.0, 15.0 ],
									"numoutlets" : 1,
									"outlettype" : [ "bang" ],
									"id" : "obj-21",
									"comment" : ""
								}

							}
, 							{
								"box" : 								{
									"maxclass" : "newobj",
									"text" : "t 0 1",
									"numinlets" : 1,
									"patching_rect" : [ 414.0, 290.0, 31.0, 17.0 ],
									"numoutlets" : 2,
									"fontsize" : 9.0,
									"outlettype" : [ "int", "int" ],
									"id" : "obj-22",
									"fontname" : "Arial"
								}

							}
, 							{
								"box" : 								{
									"maxclass" : "newobj",
									"text" : "t 1 b 0",
									"numinlets" : 1,
									"patching_rect" : [ 390.0, 236.0, 40.0, 17.0 ],
									"numoutlets" : 3,
									"fontsize" : 9.0,
									"outlettype" : [ "int", "bang", "int" ],
									"id" : "obj-23",
									"fontname" : "Arial"
								}

							}
, 							{
								"box" : 								{
									"maxclass" : "newobj",
									"text" : "* 0.99",
									"numinlets" : 2,
									"patching_rect" : [ 458.0, 229.0, 62.0, 17.0 ],
									"numoutlets" : 1,
									"fontsize" : 9.0,
									"outlettype" : [ "float" ],
									"color" : [ 0.8, 0.611765, 0.380392, 1.0 ],
									"id" : "obj-24",
									"fontname" : "Arial"
								}

							}
, 							{
								"box" : 								{
									"maxclass" : "newobj",
									"text" : "del 0.",
									"numinlets" : 2,
									"patching_rect" : [ 417.0, 265.0, 34.0, 17.0 ],
									"numoutlets" : 1,
									"fontsize" : 9.0,
									"outlettype" : [ "bang" ],
									"id" : "obj-25",
									"fontname" : "Arial"
								}

							}
, 							{
								"box" : 								{
									"maxclass" : "newobj",
									"text" : "gate",
									"numinlets" : 2,
									"patching_rect" : [ 388.0, 212.0, 27.0, 17.0 ],
									"numoutlets" : 1,
									"fontsize" : 9.0,
									"outlettype" : [ "" ],
									"id" : "obj-26",
									"fontname" : "Arial"
								}

							}
, 							{
								"box" : 								{
									"maxclass" : "button",
									"numinlets" : 1,
									"patching_rect" : [ 391.0, 85.0, 15.0, 15.0 ],
									"numoutlets" : 1,
									"outlettype" : [ "bang" ],
									"id" : "obj-27"
								}

							}
, 							{
								"box" : 								{
									"maxclass" : "button",
									"numinlets" : 1,
									"patching_rect" : [ 368.0, 86.0, 15.0, 15.0 ],
									"numoutlets" : 1,
									"outlettype" : [ "bang" ],
									"id" : "obj-28"
								}

							}
, 							{
								"box" : 								{
									"maxclass" : "newobj",
									"text" : "t l b",
									"numinlets" : 1,
									"patching_rect" : [ 152.0, 172.0, 27.0, 17.0 ],
									"numoutlets" : 2,
									"fontsize" : 9.0,
									"outlettype" : [ "", "bang" ],
									"id" : "obj-29",
									"fontname" : "Arial"
								}

							}
, 							{
								"box" : 								{
									"maxclass" : "flonum",
									"numinlets" : 1,
									"bgcolor" : [ 0.866667, 0.866667, 0.866667, 1.0 ],
									"patching_rect" : [ 478.0, 200.0, 76.0, 17.0 ],
									"triscale" : 0.9,
									"numoutlets" : 2,
									"fontsize" : 9.0,
									"outlettype" : [ "float", "bang" ],
									"htextcolor" : [ 0.870588, 0.870588, 0.870588, 1.0 ],
									"id" : "obj-30",
									"fontname" : "Arial"
								}

							}
, 							{
								"box" : 								{
									"maxclass" : "newobj",
									"text" : "t b f",
									"numinlets" : 1,
									"patching_rect" : [ 514.0, 130.0, 27.0, 17.0 ],
									"numoutlets" : 2,
									"fontsize" : 9.0,
									"outlettype" : [ "bang", "float" ],
									"color" : [ 0.8, 0.611765, 0.380392, 1.0 ],
									"id" : "obj-31",
									"fontname" : "Arial"
								}

							}
, 							{
								"box" : 								{
									"maxclass" : "newobj",
									"text" : "* 1.",
									"numinlets" : 2,
									"patching_rect" : [ 480.0, 168.0, 27.0, 17.0 ],
									"numoutlets" : 1,
									"fontsize" : 9.0,
									"outlettype" : [ "float" ],
									"color" : [ 0.8, 0.611765, 0.380392, 1.0 ],
									"id" : "obj-32",
									"fontname" : "Arial"
								}

							}
, 							{
								"box" : 								{
									"maxclass" : "newobj",
									"text" : "r [time]ms",
									"numinlets" : 0,
									"patching_rect" : [ 502.0, 85.0, 58.0, 17.0 ],
									"numoutlets" : 1,
									"fontsize" : 9.0,
									"outlettype" : [ "" ],
									"color" : [ 0.8, 0.611765, 0.380392, 1.0 ],
									"id" : "obj-33",
									"fontname" : "Arial"
								}

							}
, 							{
								"box" : 								{
									"maxclass" : "flonum",
									"numinlets" : 1,
									"bgcolor" : [ 0.866667, 0.866667, 0.866667, 1.0 ],
									"patching_rect" : [ 431.0, 88.0, 35.0, 17.0 ],
									"triscale" : 0.9,
									"numoutlets" : 2,
									"fontsize" : 9.0,
									"outlettype" : [ "float", "bang" ],
									"htextcolor" : [ 0.870588, 0.870588, 0.870588, 1.0 ],
									"id" : "obj-34",
									"fontname" : "Arial"
								}

							}
, 							{
								"box" : 								{
									"maxclass" : "newobj",
									"text" : "s pattern_out",
									"numinlets" : 1,
									"patching_rect" : [ 316.0, 408.0, 70.0, 17.0 ],
									"numoutlets" : 0,
									"fontsize" : 9.0,
									"id" : "obj-35",
									"fontname" : "Arial"
								}

							}
, 							{
								"box" : 								{
									"maxclass" : "newobj",
									"text" : "r pattern_in",
									"numinlets" : 0,
									"patching_rect" : [ 59.0, 143.0, 65.0, 17.0 ],
									"numoutlets" : 1,
									"fontsize" : 9.0,
									"outlettype" : [ "" ],
									"id" : "obj-36",
									"fontname" : "Arial"
								}

							}
, 							{
								"box" : 								{
									"maxclass" : "newobj",
									"text" : "rate~ 1.",
									"numinlets" : 2,
									"patching_rect" : [ 204.0, 151.0, 45.0, 17.0 ],
									"numoutlets" : 1,
									"fontsize" : 9.0,
									"outlettype" : [ "signal" ],
									"color" : [ 1.0, 0.890196, 0.090196, 1.0 ],
									"id" : "obj-37",
									"fontname" : "Arial"
								}

							}
, 							{
								"box" : 								{
									"maxclass" : "newobj",
									"text" : "receive~ [time]phase",
									"numinlets" : 1,
									"patching_rect" : [ 204.0, 113.0, 105.0, 17.0 ],
									"numoutlets" : 1,
									"fontsize" : 9.0,
									"outlettype" : [ "signal" ],
									"color" : [ 1.0, 0.890196, 0.090196, 1.0 ],
									"id" : "obj-38",
									"fontname" : "Arial"
								}

							}
, 							{
								"box" : 								{
									"maxclass" : "message",
									"text" : "overdub 1",
									"numinlets" : 2,
									"patching_rect" : [ 282.0, 292.0, 54.0, 15.0 ],
									"numoutlets" : 1,
									"fontsize" : 9.0,
									"outlettype" : [ "" ],
									"id" : "obj-39",
									"fontname" : "Arial"
								}

							}
, 							{
								"box" : 								{
									"maxclass" : "message",
									"text" : "play 1",
									"numinlets" : 2,
									"patching_rect" : [ 244.0, 292.0, 35.0, 15.0 ],
									"numoutlets" : 1,
									"fontsize" : 9.0,
									"outlettype" : [ "" ],
									"id" : "obj-40",
									"fontname" : "Arial"
								}

							}
, 							{
								"box" : 								{
									"maxclass" : "newobj",
									"text" : "seq~",
									"numinlets" : 1,
									"patching_rect" : [ 218.0, 337.0, 40.0, 17.0 ],
									"numoutlets" : 3,
									"fontsize" : 9.0,
									"outlettype" : [ "", "", "" ],
									"id" : "obj-41",
									"fontname" : "Arial"
								}

							}
 ],
						"lines" : [ 							{
								"patchline" : 								{
									"source" : [ "obj-34", 0 ],
									"destination" : [ "obj-31", 0 ],
									"hidden" : 0,
									"midpoints" : [  ]
								}

							}
, 							{
								"patchline" : 								{
									"source" : [ "obj-31", 1 ],
									"destination" : [ "obj-32", 1 ],
									"hidden" : 0,
									"midpoints" : [  ]
								}

							}
, 							{
								"patchline" : 								{
									"source" : [ "obj-31", 0 ],
									"destination" : [ "obj-32", 0 ],
									"hidden" : 0,
									"midpoints" : [  ]
								}

							}
, 							{
								"patchline" : 								{
									"source" : [ "obj-33", 0 ],
									"destination" : [ "obj-32", 0 ],
									"hidden" : 0,
									"midpoints" : [  ]
								}

							}
, 							{
								"patchline" : 								{
									"source" : [ "obj-32", 0 ],
									"destination" : [ "obj-30", 0 ],
									"hidden" : 0,
									"midpoints" : [  ]
								}

							}
, 							{
								"patchline" : 								{
									"source" : [ "obj-30", 0 ],
									"destination" : [ "obj-24", 0 ],
									"hidden" : 0,
									"midpoints" : [  ]
								}

							}
, 							{
								"patchline" : 								{
									"source" : [ "obj-24", 0 ],
									"destination" : [ "obj-25", 1 ],
									"hidden" : 0,
									"midpoints" : [  ]
								}

							}
, 							{
								"patchline" : 								{
									"source" : [ "obj-19", 0 ],
									"destination" : [ "obj-34", 0 ],
									"hidden" : 0,
									"midpoints" : [  ]
								}

							}
, 							{
								"patchline" : 								{
									"source" : [ "obj-27", 0 ],
									"destination" : [ "obj-11", 0 ],
									"hidden" : 0,
									"midpoints" : [  ]
								}

							}
, 							{
								"patchline" : 								{
									"source" : [ "obj-23", 1 ],
									"destination" : [ "obj-25", 0 ],
									"hidden" : 0,
									"midpoints" : [  ]
								}

							}
, 							{
								"patchline" : 								{
									"source" : [ "obj-25", 0 ],
									"destination" : [ "obj-22", 0 ],
									"hidden" : 0,
									"midpoints" : [  ]
								}

							}
, 							{
								"patchline" : 								{
									"source" : [ "obj-27", 0 ],
									"destination" : [ "obj-22", 0 ],
									"hidden" : 0,
									"midpoints" : [  ]
								}

							}
, 							{
								"patchline" : 								{
									"source" : [ "obj-29", 1 ],
									"destination" : [ "obj-26", 1 ],
									"hidden" : 0,
									"midpoints" : [  ]
								}

							}
, 							{
								"patchline" : 								{
									"source" : [ "obj-28", 0 ],
									"destination" : [ "obj-17", 0 ],
									"hidden" : 0,
									"midpoints" : [  ]
								}

							}
, 							{
								"patchline" : 								{
									"source" : [ "obj-20", 0 ],
									"destination" : [ "obj-27", 0 ],
									"hidden" : 0,
									"midpoints" : [  ]
								}

							}
, 							{
								"patchline" : 								{
									"source" : [ "obj-26", 0 ],
									"destination" : [ "obj-23", 0 ],
									"hidden" : 0,
									"midpoints" : [  ]
								}

							}
, 							{
								"patchline" : 								{
									"source" : [ "obj-11", 0 ],
									"destination" : [ "obj-26", 0 ],
									"hidden" : 0,
									"midpoints" : [  ]
								}

							}
, 							{
								"patchline" : 								{
									"source" : [ "obj-23", 2 ],
									"destination" : [ "obj-26", 0 ],
									"hidden" : 0,
									"midpoints" : [  ]
								}

							}
, 							{
								"patchline" : 								{
									"source" : [ "obj-17", 0 ],
									"destination" : [ "obj-26", 0 ],
									"hidden" : 0,
									"midpoints" : [  ]
								}

							}
, 							{
								"patchline" : 								{
									"source" : [ "obj-21", 0 ],
									"destination" : [ "obj-28", 0 ],
									"hidden" : 0,
									"midpoints" : [  ]
								}

							}
, 							{
								"patchline" : 								{
									"source" : [ "obj-15", 0 ],
									"destination" : [ "obj-14", 0 ],
									"hidden" : 0,
									"midpoints" : [  ]
								}

							}
, 							{
								"patchline" : 								{
									"source" : [ "obj-27", 0 ],
									"destination" : [ "obj-12", 0 ],
									"hidden" : 0,
									"midpoints" : [  ]
								}

							}
, 							{
								"patchline" : 								{
									"source" : [ "obj-28", 0 ],
									"destination" : [ "obj-18", 0 ],
									"hidden" : 0,
									"midpoints" : [  ]
								}

							}
, 							{
								"patchline" : 								{
									"source" : [ "obj-27", 0 ],
									"destination" : [ "obj-18", 0 ],
									"hidden" : 0,
									"midpoints" : [  ]
								}

							}
, 							{
								"patchline" : 								{
									"source" : [ "obj-28", 0 ],
									"destination" : [ "obj-13", 0 ],
									"hidden" : 0,
									"midpoints" : [  ]
								}

							}
, 							{
								"patchline" : 								{
									"source" : [ "obj-41", 0 ],
									"destination" : [ "obj-35", 0 ],
									"hidden" : 0,
									"midpoints" : [  ]
								}

							}
, 							{
								"patchline" : 								{
									"source" : [ "obj-4", 0 ],
									"destination" : [ "obj-5", 0 ],
									"hidden" : 0,
									"midpoints" : [  ]
								}

							}
, 							{
								"patchline" : 								{
									"source" : [ "obj-15", 0 ],
									"destination" : [ "obj-39", 0 ],
									"hidden" : 0,
									"midpoints" : [  ]
								}

							}
, 							{
								"patchline" : 								{
									"source" : [ "obj-15", 0 ],
									"destination" : [ "obj-40", 0 ],
									"hidden" : 0,
									"midpoints" : [  ]
								}

							}
, 							{
								"patchline" : 								{
									"source" : [ "obj-34", 0 ],
									"destination" : [ "obj-37", 1 ],
									"hidden" : 0,
									"midpoints" : [  ]
								}

							}
, 							{
								"patchline" : 								{
									"source" : [ "obj-5", 0 ],
									"destination" : [ "obj-2", 0 ],
									"hidden" : 0,
									"midpoints" : [  ]
								}

							}
, 							{
								"patchline" : 								{
									"source" : [ "obj-4", 0 ],
									"destination" : [ "obj-3", 0 ],
									"hidden" : 0,
									"midpoints" : [  ]
								}

							}
, 							{
								"patchline" : 								{
									"source" : [ "obj-37", 0 ],
									"destination" : [ "obj-41", 0 ],
									"hidden" : 0,
									"midpoints" : [  ]
								}

							}
, 							{
								"patchline" : 								{
									"source" : [ "obj-14", 0 ],
									"destination" : [ "obj-41", 0 ],
									"hidden" : 0,
									"midpoints" : [  ]
								}

							}
, 							{
								"patchline" : 								{
									"source" : [ "obj-16", 0 ],
									"destination" : [ "obj-41", 0 ],
									"hidden" : 0,
									"midpoints" : [  ]
								}

							}
, 							{
								"patchline" : 								{
									"source" : [ "obj-18", 0 ],
									"destination" : [ "obj-41", 0 ],
									"hidden" : 0,
									"midpoints" : [  ]
								}

							}
, 							{
								"patchline" : 								{
									"source" : [ "obj-39", 0 ],
									"destination" : [ "obj-41", 0 ],
									"hidden" : 0,
									"midpoints" : [  ]
								}

							}
, 							{
								"patchline" : 								{
									"source" : [ "obj-40", 0 ],
									"destination" : [ "obj-41", 0 ],
									"hidden" : 0,
									"midpoints" : [  ]
								}

							}
, 							{
								"patchline" : 								{
									"source" : [ "obj-41", 0 ],
									"destination" : [ "obj-4", 0 ],
									"hidden" : 0,
									"midpoints" : [  ]
								}

							}
, 							{
								"patchline" : 								{
									"source" : [ "obj-38", 0 ],
									"destination" : [ "obj-37", 0 ],
									"hidden" : 0,
									"midpoints" : [  ]
								}

							}
, 							{
								"patchline" : 								{
									"source" : [ "obj-5", 0 ],
									"destination" : [ "obj-6", 0 ],
									"hidden" : 0,
									"midpoints" : [  ]
								}

							}
, 							{
								"patchline" : 								{
									"source" : [ "obj-2", 0 ],
									"destination" : [ "obj-1", 0 ],
									"hidden" : 0,
									"midpoints" : [  ]
								}

							}
, 							{
								"patchline" : 								{
									"source" : [ "obj-3", 0 ],
									"destination" : [ "obj-1", 0 ],
									"hidden" : 0,
									"midpoints" : [  ]
								}

							}
, 							{
								"patchline" : 								{
									"source" : [ "obj-29", 0 ],
									"destination" : [ "obj-16", 1 ],
									"hidden" : 0,
									"midpoints" : [  ]
								}

							}
, 							{
								"patchline" : 								{
									"source" : [ "obj-36", 0 ],
									"destination" : [ "obj-29", 0 ],
									"hidden" : 0,
									"midpoints" : [  ]
								}

							}
, 							{
								"patchline" : 								{
									"source" : [ "obj-22", 0 ],
									"destination" : [ "obj-16", 0 ],
									"hidden" : 0,
									"midpoints" : [  ]
								}

							}
, 							{
								"patchline" : 								{
									"source" : [ "obj-23", 0 ],
									"destination" : [ "obj-16", 0 ],
									"hidden" : 0,
									"midpoints" : [  ]
								}

							}
, 							{
								"patchline" : 								{
									"source" : [ "obj-4", 0 ],
									"destination" : [ "obj-7", 0 ],
									"hidden" : 0,
									"midpoints" : [  ]
								}

							}
, 							{
								"patchline" : 								{
									"source" : [ "obj-10", 0 ],
									"destination" : [ "obj-8", 1 ],
									"hidden" : 0,
									"midpoints" : [  ]
								}

							}
, 							{
								"patchline" : 								{
									"source" : [ "obj-37", 0 ],
									"destination" : [ "obj-10", 0 ],
									"hidden" : 0,
									"midpoints" : [  ]
								}

							}
, 							{
								"patchline" : 								{
									"source" : [ "obj-12", 0 ],
									"destination" : [ "obj-8", 0 ],
									"hidden" : 0,
									"midpoints" : [  ]
								}

							}
, 							{
								"patchline" : 								{
									"source" : [ "obj-13", 0 ],
									"destination" : [ "obj-8", 0 ],
									"hidden" : 0,
									"midpoints" : [  ]
								}

							}
, 							{
								"patchline" : 								{
									"source" : [ "obj-6", 0 ],
									"destination" : [ "obj-9", 0 ],
									"hidden" : 0,
									"midpoints" : [  ]
								}

							}
, 							{
								"patchline" : 								{
									"source" : [ "obj-7", 0 ],
									"destination" : [ "obj-9", 0 ],
									"hidden" : 0,
									"midpoints" : [  ]
								}

							}
, 							{
								"patchline" : 								{
									"source" : [ "obj-8", 0 ],
									"destination" : [ "obj-9", 0 ],
									"hidden" : 0,
									"midpoints" : [  ]
								}

							}
 ]
					}
,
					"saved_object_attributes" : 					{
						"default_fontface" : 0,
						"globalpatchername" : "",
						"default_fontname" : "Arial",
						"fontface" : 0,
						"fontsize" : 12.0,
						"default_fontsize" : 12.0,
						"fontname" : "Arial"
					}

				}

			}
 ],
		"lines" : [ 			{
				"patchline" : 				{
					"source" : [ "obj-11", 0 ],
					"destination" : [ "obj-1", 0 ],
					"hidden" : 0,
					"midpoints" : [  ]
				}

			}
, 			{
				"patchline" : 				{
					"source" : [ "obj-4", 0 ],
					"destination" : [ "obj-9", 2 ],
					"hidden" : 0,
					"midpoints" : [  ]
				}

			}
, 			{
				"patchline" : 				{
					"source" : [ "obj-7", 0 ],
					"destination" : [ "obj-9", 1 ],
					"hidden" : 1,
					"midpoints" : [  ]
				}

			}
, 			{
				"patchline" : 				{
					"source" : [ "obj-9", 1 ],
					"destination" : [ "obj-6", 0 ],
					"hidden" : 1,
					"midpoints" : [  ]
				}

			}
, 			{
				"patchline" : 				{
					"source" : [ "obj-7", 1 ],
					"destination" : [ "obj-9", 0 ],
					"hidden" : 1,
					"midpoints" : [  ]
				}

			}
, 			{
				"patchline" : 				{
					"source" : [ "obj-8", 0 ],
					"destination" : [ "obj-7", 0 ],
					"hidden" : 1,
					"midpoints" : [  ]
				}

			}
, 			{
				"patchline" : 				{
					"source" : [ "obj-9", 0 ],
					"destination" : [ "obj-2", 0 ],
					"hidden" : 0,
					"midpoints" : [  ]
				}

			}
, 			{
				"patchline" : 				{
					"source" : [ "obj-5", 0 ],
					"destination" : [ "obj-14", 2 ],
					"hidden" : 0,
					"midpoints" : [  ]
				}

			}
, 			{
				"patchline" : 				{
					"source" : [ "obj-12", 0 ],
					"destination" : [ "obj-14", 1 ],
					"hidden" : 1,
					"midpoints" : [  ]
				}

			}
, 			{
				"patchline" : 				{
					"source" : [ "obj-14", 1 ],
					"destination" : [ "obj-10", 0 ],
					"hidden" : 1,
					"midpoints" : [  ]
				}

			}
, 			{
				"patchline" : 				{
					"source" : [ "obj-12", 1 ],
					"destination" : [ "obj-14", 0 ],
					"hidden" : 1,
					"midpoints" : [  ]
				}

			}
, 			{
				"patchline" : 				{
					"source" : [ "obj-13", 0 ],
					"destination" : [ "obj-12", 0 ],
					"hidden" : 1,
					"midpoints" : [  ]
				}

			}
, 			{
				"patchline" : 				{
					"source" : [ "obj-14", 0 ],
					"destination" : [ "obj-3", 0 ],
					"hidden" : 0,
					"midpoints" : [  ]
				}

			}
 ]
	}

}
