{
	"patcher" : 	{
		"fileversion" : 1,
		"rect" : [ 33.0, 73.0, 640.0, 480.0 ],
		"bglocked" : 0,
		"defrect" : [ 33.0, 73.0, 640.0, 480.0 ],
		"openrect" : [ 0.0, 0.0, 0.0, 0.0 ],
		"openinpresentation" : 0,
		"default_fontsize" : 12.0,
		"default_fontface" : 0,
		"default_fontname" : "Arial",
		"gridonopen" : 0,
		"gridsize" : [ 15.0, 15.0 ],
		"gridsnaponopen" : 0,
		"toolbarvisible" : 1,
		"boxanimatetime" : 200,
		"imprint" : 0,
		"metadata" : [  ],
		"boxes" : [ 			{
				"box" : 				{
					"maxclass" : "outlet",
					"patching_rect" : [ 50.0, 200.0, 25.0, 25.0 ],
					"numinlets" : 1,
					"id" : "obj-3",
					"numoutlets" : 0,
					"comment" : ""
				}

			}
, 			{
				"box" : 				{
					"maxclass" : "message",
					"text" : "close",
					"fontsize" : 12.0,
					"outlettype" : [ "" ],
					"patching_rect" : [ 50.0, 128.0, 39.0, 18.0 ],
					"fontname" : "Arial",
					"numinlets" : 2,
					"id" : "obj-4",
					"numoutlets" : 1
				}

			}
, 			{
				"box" : 				{
					"maxclass" : "newobj",
					"text" : "pcontrol",
					"fontsize" : 12.0,
					"outlettype" : [ "" ],
					"patching_rect" : [ 50.0, 161.0, 53.0, 20.0 ],
					"fontname" : "Arial",
					"numinlets" : 1,
					"id" : "obj-2",
					"numoutlets" : 1
				}

			}
, 			{
				"box" : 				{
					"maxclass" : "newobj",
					"text" : "closebang",
					"fontsize" : 12.0,
					"outlettype" : [ "bang" ],
					"patching_rect" : [ 50.0, 100.0, 65.0, 20.0 ],
					"fontname" : "Arial",
					"numinlets" : 0,
					"id" : "obj-1",
					"numoutlets" : 1
				}

			}
 ],
		"lines" : [ 			{
				"patchline" : 				{
					"source" : [ "obj-2", 0 ],
					"destination" : [ "obj-3", 0 ],
					"hidden" : 0,
					"midpoints" : [  ]
				}

			}
, 			{
				"patchline" : 				{
					"source" : [ "obj-4", 0 ],
					"destination" : [ "obj-2", 0 ],
					"hidden" : 0,
					"midpoints" : [  ]
				}

			}
, 			{
				"patchline" : 				{
					"source" : [ "obj-1", 0 ],
					"destination" : [ "obj-4", 0 ],
					"hidden" : 0,
					"midpoints" : [  ]
				}

			}
 ]
	}

}
