{
	"patcher" : 	{
		"fileversion" : 1,
		"rect" : [ 78.0, 65.0, 1009.0, 621.0 ],
		"bglocked" : 0,
		"defrect" : [ 78.0, 65.0, 1009.0, 621.0 ],
		"openrect" : [ 0.0, 0.0, 0.0, 0.0 ],
		"openinpresentation" : 1,
		"default_fontsize" : 12.0,
		"default_fontface" : 0,
		"default_fontname" : "Arial",
		"gridonopen" : 0,
		"gridsize" : [ 15.0, 15.0 ],
		"gridsnaponopen" : 0,
		"toolbarvisible" : 1,
		"boxanimatetime" : 200,
		"imprint" : 0,
		"boxes" : [ 			{
				"box" : 				{
					"maxclass" : "comment",
					"text" : "rep3",
					"presentation_rect" : [ 333.0, 3.0, 37.0, 20.0 ],
					"numinlets" : 1,
					"numoutlets" : 0,
					"patching_rect" : [ 678.0, 68.0, 150.0, 20.0 ],
					"presentation" : 1,
					"id" : "obj-37",
					"fontname" : "Arial",
					"fontsize" : 12.0
				}

			}
, 			{
				"box" : 				{
					"maxclass" : "comment",
					"text" : "rep2",
					"presentation_rect" : [ 279.0, 3.0, 37.0, 20.0 ],
					"numinlets" : 1,
					"numoutlets" : 0,
					"patching_rect" : [ 210.0, 119.0, 150.0, 20.0 ],
					"presentation" : 1,
					"id" : "obj-36",
					"fontname" : "Arial",
					"fontsize" : 12.0
				}

			}
, 			{
				"box" : 				{
					"maxclass" : "comment",
					"text" : "rep1",
					"presentation_rect" : [ 224.0, 2.0, 37.0, 20.0 ],
					"numinlets" : 1,
					"numoutlets" : 0,
					"patching_rect" : [ 207.0, 48.0, 150.0, 20.0 ],
					"presentation" : 1,
					"id" : "obj-35",
					"fontname" : "Arial",
					"fontsize" : 12.0
				}

			}
, 			{
				"box" : 				{
					"maxclass" : "newobj",
					"text" : "s rep3speed",
					"numinlets" : 1,
					"numoutlets" : 0,
					"patching_rect" : [ 569.0, 186.0, 66.0, 18.0 ],
					"id" : "obj-34",
					"fontname" : "Arial",
					"fontsize" : 10.0
				}

			}
, 			{
				"box" : 				{
					"maxclass" : "newobj",
					"text" : "s rep2speed",
					"numinlets" : 1,
					"numoutlets" : 0,
					"patching_rect" : [ 491.0, 186.0, 66.0, 18.0 ],
					"id" : "obj-32",
					"fontname" : "Arial",
					"fontsize" : 10.0
				}

			}
, 			{
				"box" : 				{
					"maxclass" : "newobj",
					"text" : "s rep1speed",
					"numinlets" : 1,
					"numoutlets" : 0,
					"patching_rect" : [ 407.0, 186.0, 66.0, 18.0 ],
					"id" : "obj-30",
					"fontname" : "Arial",
					"fontsize" : 10.0
				}

			}
, 			{
				"box" : 				{
					"maxclass" : "newobj",
					"text" : "p calcRepeat",
					"numinlets" : 1,
					"numoutlets" : 1,
					"patching_rect" : [ 569.0, 141.0, 69.0, 18.0 ],
					"id" : "obj-29",
					"fontname" : "Arial",
					"outlettype" : [ "float" ],
					"fontsize" : 10.0,
					"patcher" : 					{
						"fileversion" : 1,
						"rect" : [ 25.0, 69.0, 640.0, 480.0 ],
						"bglocked" : 0,
						"defrect" : [ 25.0, 69.0, 640.0, 480.0 ],
						"openrect" : [ 0.0, 0.0, 0.0, 0.0 ],
						"openinpresentation" : 0,
						"default_fontsize" : 12.0,
						"default_fontface" : 0,
						"default_fontname" : "Arial",
						"gridonopen" : 0,
						"gridsize" : [ 15.0, 15.0 ],
						"gridsnaponopen" : 0,
						"toolbarvisible" : 1,
						"boxanimatetime" : 200,
						"imprint" : 0,
						"boxes" : [ 							{
								"box" : 								{
									"maxclass" : "outlet",
									"numinlets" : 1,
									"numoutlets" : 0,
									"patching_rect" : [ 50.0, 196.0, 25.0, 25.0 ],
									"id" : "obj-2",
									"comment" : ""
								}

							}
, 							{
								"box" : 								{
									"maxclass" : "inlet",
									"numinlets" : 0,
									"numoutlets" : 1,
									"patching_rect" : [ 50.0, 55.0, 25.0, 25.0 ],
									"id" : "obj-1",
									"outlettype" : [ "int" ],
									"comment" : ""
								}

							}
, 							{
								"box" : 								{
									"maxclass" : "newobj",
									"text" : "!/ 1.",
									"numinlets" : 2,
									"numoutlets" : 1,
									"patching_rect" : [ 50.0, 156.0, 29.0, 18.0 ],
									"id" : "obj-26",
									"fontname" : "Arial",
									"outlettype" : [ "float" ],
									"fontsize" : 10.0
								}

							}
, 							{
								"box" : 								{
									"maxclass" : "newobj",
									"text" : "+ 1",
									"numinlets" : 2,
									"numoutlets" : 1,
									"patching_rect" : [ 50.0, 100.0, 27.0, 17.0 ],
									"id" : "obj-24",
									"fontname" : "Arial",
									"outlettype" : [ "int" ],
									"fontsize" : 9.0
								}

							}
, 							{
								"box" : 								{
									"maxclass" : "newobj",
									"text" : "expr pow(2\\,$i1)",
									"numinlets" : 1,
									"numoutlets" : 1,
									"patching_rect" : [ 50.0, 127.0, 86.0, 19.0 ],
									"id" : "obj-229",
									"fontname" : "Geneva",
									"outlettype" : [ "" ],
									"fontsize" : 9.0
								}

							}
 ],
						"lines" : [ 							{
								"patchline" : 								{
									"source" : [ "obj-229", 0 ],
									"destination" : [ "obj-26", 0 ],
									"hidden" : 0,
									"midpoints" : [  ]
								}

							}
, 							{
								"patchline" : 								{
									"source" : [ "obj-24", 0 ],
									"destination" : [ "obj-229", 0 ],
									"hidden" : 0,
									"midpoints" : [  ]
								}

							}
, 							{
								"patchline" : 								{
									"source" : [ "obj-1", 0 ],
									"destination" : [ "obj-24", 0 ],
									"hidden" : 0,
									"midpoints" : [  ]
								}

							}
, 							{
								"patchline" : 								{
									"source" : [ "obj-26", 0 ],
									"destination" : [ "obj-2", 0 ],
									"hidden" : 0,
									"midpoints" : [  ]
								}

							}
 ]
					}
,
					"saved_object_attributes" : 					{
						"default_fontface" : 0,
						"default_fontname" : "Arial",
						"fontname" : "Arial",
						"default_fontsize" : 12.0,
						"globalpatchername" : "",
						"fontface" : 0,
						"fontsize" : 12.0
					}

				}

			}
, 			{
				"box" : 				{
					"maxclass" : "newobj",
					"text" : "p calcRepeat",
					"numinlets" : 1,
					"numoutlets" : 1,
					"patching_rect" : [ 491.0, 141.0, 69.0, 18.0 ],
					"id" : "obj-28",
					"fontname" : "Arial",
					"outlettype" : [ "float" ],
					"fontsize" : 10.0,
					"patcher" : 					{
						"fileversion" : 1,
						"rect" : [ 25.0, 69.0, 640.0, 480.0 ],
						"bglocked" : 0,
						"defrect" : [ 25.0, 69.0, 640.0, 480.0 ],
						"openrect" : [ 0.0, 0.0, 0.0, 0.0 ],
						"openinpresentation" : 0,
						"default_fontsize" : 12.0,
						"default_fontface" : 0,
						"default_fontname" : "Arial",
						"gridonopen" : 0,
						"gridsize" : [ 15.0, 15.0 ],
						"gridsnaponopen" : 0,
						"toolbarvisible" : 1,
						"boxanimatetime" : 200,
						"imprint" : 0,
						"boxes" : [ 							{
								"box" : 								{
									"maxclass" : "outlet",
									"numinlets" : 1,
									"numoutlets" : 0,
									"patching_rect" : [ 50.0, 196.0, 25.0, 25.0 ],
									"id" : "obj-2",
									"comment" : ""
								}

							}
, 							{
								"box" : 								{
									"maxclass" : "inlet",
									"numinlets" : 0,
									"numoutlets" : 1,
									"patching_rect" : [ 50.0, 55.0, 25.0, 25.0 ],
									"id" : "obj-1",
									"outlettype" : [ "int" ],
									"comment" : ""
								}

							}
, 							{
								"box" : 								{
									"maxclass" : "newobj",
									"text" : "!/ 1.",
									"numinlets" : 2,
									"numoutlets" : 1,
									"patching_rect" : [ 50.0, 156.0, 29.0, 18.0 ],
									"id" : "obj-26",
									"fontname" : "Arial",
									"outlettype" : [ "float" ],
									"fontsize" : 10.0
								}

							}
, 							{
								"box" : 								{
									"maxclass" : "newobj",
									"text" : "+ 1",
									"numinlets" : 2,
									"numoutlets" : 1,
									"patching_rect" : [ 50.0, 100.0, 27.0, 17.0 ],
									"id" : "obj-24",
									"fontname" : "Arial",
									"outlettype" : [ "int" ],
									"fontsize" : 9.0
								}

							}
, 							{
								"box" : 								{
									"maxclass" : "newobj",
									"text" : "expr pow(2\\,$i1)",
									"numinlets" : 1,
									"numoutlets" : 1,
									"patching_rect" : [ 50.0, 127.0, 86.0, 19.0 ],
									"id" : "obj-229",
									"fontname" : "Geneva",
									"outlettype" : [ "" ],
									"fontsize" : 9.0
								}

							}
 ],
						"lines" : [ 							{
								"patchline" : 								{
									"source" : [ "obj-26", 0 ],
									"destination" : [ "obj-2", 0 ],
									"hidden" : 0,
									"midpoints" : [  ]
								}

							}
, 							{
								"patchline" : 								{
									"source" : [ "obj-1", 0 ],
									"destination" : [ "obj-24", 0 ],
									"hidden" : 0,
									"midpoints" : [  ]
								}

							}
, 							{
								"patchline" : 								{
									"source" : [ "obj-24", 0 ],
									"destination" : [ "obj-229", 0 ],
									"hidden" : 0,
									"midpoints" : [  ]
								}

							}
, 							{
								"patchline" : 								{
									"source" : [ "obj-229", 0 ],
									"destination" : [ "obj-26", 0 ],
									"hidden" : 0,
									"midpoints" : [  ]
								}

							}
 ]
					}
,
					"saved_object_attributes" : 					{
						"default_fontface" : 0,
						"default_fontname" : "Arial",
						"fontname" : "Arial",
						"default_fontsize" : 12.0,
						"globalpatchername" : "",
						"fontface" : 0,
						"fontsize" : 12.0
					}

				}

			}
, 			{
				"box" : 				{
					"maxclass" : "newobj",
					"text" : "p calcRepeat",
					"numinlets" : 1,
					"numoutlets" : 1,
					"patching_rect" : [ 407.0, 141.0, 69.0, 18.0 ],
					"id" : "obj-27",
					"fontname" : "Arial",
					"outlettype" : [ "float" ],
					"fontsize" : 10.0,
					"patcher" : 					{
						"fileversion" : 1,
						"rect" : [ 25.0, 69.0, 640.0, 480.0 ],
						"bglocked" : 0,
						"defrect" : [ 25.0, 69.0, 640.0, 480.0 ],
						"openrect" : [ 0.0, 0.0, 0.0, 0.0 ],
						"openinpresentation" : 0,
						"default_fontsize" : 12.0,
						"default_fontface" : 0,
						"default_fontname" : "Arial",
						"gridonopen" : 0,
						"gridsize" : [ 15.0, 15.0 ],
						"gridsnaponopen" : 0,
						"toolbarvisible" : 1,
						"boxanimatetime" : 200,
						"imprint" : 0,
						"boxes" : [ 							{
								"box" : 								{
									"maxclass" : "outlet",
									"numinlets" : 1,
									"numoutlets" : 0,
									"patching_rect" : [ 50.0, 196.0, 25.0, 25.0 ],
									"id" : "obj-2",
									"comment" : ""
								}

							}
, 							{
								"box" : 								{
									"maxclass" : "inlet",
									"numinlets" : 0,
									"numoutlets" : 1,
									"patching_rect" : [ 50.0, 55.0, 25.0, 25.0 ],
									"id" : "obj-1",
									"outlettype" : [ "int" ],
									"comment" : ""
								}

							}
, 							{
								"box" : 								{
									"maxclass" : "newobj",
									"text" : "!/ 1.",
									"numinlets" : 2,
									"numoutlets" : 1,
									"patching_rect" : [ 50.0, 156.0, 29.0, 18.0 ],
									"id" : "obj-26",
									"fontname" : "Arial",
									"outlettype" : [ "float" ],
									"fontsize" : 10.0
								}

							}
, 							{
								"box" : 								{
									"maxclass" : "newobj",
									"text" : "+ 1",
									"numinlets" : 2,
									"numoutlets" : 1,
									"patching_rect" : [ 50.0, 100.0, 27.0, 17.0 ],
									"id" : "obj-24",
									"fontname" : "Arial",
									"outlettype" : [ "int" ],
									"fontsize" : 9.0
								}

							}
, 							{
								"box" : 								{
									"maxclass" : "newobj",
									"text" : "expr pow(2\\,$i1)",
									"numinlets" : 1,
									"numoutlets" : 1,
									"patching_rect" : [ 50.0, 127.0, 86.0, 19.0 ],
									"id" : "obj-229",
									"fontname" : "Geneva",
									"outlettype" : [ "" ],
									"fontsize" : 9.0
								}

							}
 ],
						"lines" : [ 							{
								"patchline" : 								{
									"source" : [ "obj-229", 0 ],
									"destination" : [ "obj-26", 0 ],
									"hidden" : 0,
									"midpoints" : [  ]
								}

							}
, 							{
								"patchline" : 								{
									"source" : [ "obj-24", 0 ],
									"destination" : [ "obj-229", 0 ],
									"hidden" : 0,
									"midpoints" : [  ]
								}

							}
, 							{
								"patchline" : 								{
									"source" : [ "obj-1", 0 ],
									"destination" : [ "obj-24", 0 ],
									"hidden" : 0,
									"midpoints" : [  ]
								}

							}
, 							{
								"patchline" : 								{
									"source" : [ "obj-26", 0 ],
									"destination" : [ "obj-2", 0 ],
									"hidden" : 0,
									"midpoints" : [  ]
								}

							}
 ]
					}
,
					"saved_object_attributes" : 					{
						"default_fontface" : 0,
						"default_fontname" : "Arial",
						"fontname" : "Arial",
						"default_fontsize" : 12.0,
						"globalpatchername" : "",
						"fontface" : 0,
						"fontsize" : 12.0
					}

				}

			}
, 			{
				"box" : 				{
					"maxclass" : "newobj",
					"text" : "loadmess 3",
					"numinlets" : 1,
					"numoutlets" : 1,
					"patching_rect" : [ 569.0, 63.0, 62.0, 18.0 ],
					"id" : "obj-21",
					"fontname" : "Arial",
					"outlettype" : [ "" ],
					"fontsize" : 10.0
				}

			}
, 			{
				"box" : 				{
					"maxclass" : "umenu",
					"presentation_rect" : [ 330.0, 22.0, 50.0, 18.0 ],
					"items" : [ "1/2", ",", "1/4", ",", "1/8", ",", "1/16", ",", "1/32", ",", "1/64" ],
					"numinlets" : 1,
					"numoutlets" : 3,
					"patching_rect" : [ 569.0, 108.0, 50.0, 18.0 ],
					"presentation" : 1,
					"id" : "obj-22",
					"fontname" : "Arial",
					"outlettype" : [ "int", "", "" ],
					"rounded" : 0,
					"types" : [  ],
					"fontsize" : 10.0
				}

			}
, 			{
				"box" : 				{
					"maxclass" : "newobj",
					"text" : "loadmess 2",
					"numinlets" : 1,
					"numoutlets" : 1,
					"patching_rect" : [ 491.0, 64.0, 62.0, 18.0 ],
					"id" : "obj-19",
					"fontname" : "Arial",
					"outlettype" : [ "" ],
					"fontsize" : 10.0
				}

			}
, 			{
				"box" : 				{
					"maxclass" : "umenu",
					"presentation_rect" : [ 276.0, 22.0, 50.0, 18.0 ],
					"items" : [ "1/2", ",", "1/4", ",", "1/8", ",", "1/16", ",", "1/32", ",", "1/64" ],
					"numinlets" : 1,
					"numoutlets" : 3,
					"patching_rect" : [ 491.0, 108.0, 50.0, 18.0 ],
					"presentation" : 1,
					"id" : "obj-20",
					"fontname" : "Arial",
					"outlettype" : [ "int", "", "" ],
					"rounded" : 0,
					"types" : [  ],
					"fontsize" : 10.0
				}

			}
, 			{
				"box" : 				{
					"maxclass" : "newobj",
					"text" : "loadmess 1",
					"numinlets" : 1,
					"numoutlets" : 1,
					"patching_rect" : [ 407.0, 63.0, 62.0, 18.0 ],
					"id" : "obj-17",
					"fontname" : "Arial",
					"outlettype" : [ "" ],
					"fontsize" : 10.0
				}

			}
, 			{
				"box" : 				{
					"maxclass" : "umenu",
					"presentation_rect" : [ 222.0, 22.0, 50.0, 18.0 ],
					"items" : [ "1/2", ",", "1/4", ",", "1/8", ",", "1/16", ",", "1/32", ",", "1/64" ],
					"numinlets" : 1,
					"numoutlets" : 3,
					"patching_rect" : [ 407.0, 107.0, 50.0, 18.0 ],
					"presentation" : 1,
					"id" : "obj-12",
					"fontname" : "Arial",
					"outlettype" : [ "int", "", "" ],
					"rounded" : 0,
					"types" : [  ],
					"fontsize" : 10.0
				}

			}
, 			{
				"box" : 				{
					"maxclass" : "bpatcher",
					"presentation_rect" : [ 1.0, 0.0, 221.0, 59.0 ],
					"numinlets" : 1,
					"numoutlets" : 1,
					"patching_rect" : [ 58.0, 117.0, 75.0, 35.0 ],
					"presentation" : 1,
					"id" : "obj-11",
					"outlettype" : [ "" ],
					"name" : "pattrMgr.maxpat",
					"args" : [ 0 ]
				}

			}
, 			{
				"box" : 				{
					"maxclass" : "newobj",
					"text" : "prepend 0",
					"numinlets" : 1,
					"numoutlets" : 1,
					"patching_rect" : [ 499.0, 515.0, 65.0, 20.0 ],
					"id" : "obj-10",
					"fontname" : "Arial",
					"outlettype" : [ "" ],
					"fontsize" : 12.0
				}

			}
, 			{
				"box" : 				{
					"maxclass" : "newobj",
					"text" : "prepend 0",
					"numinlets" : 1,
					"numoutlets" : 1,
					"patching_rect" : [ 350.0, 512.0, 65.0, 20.0 ],
					"id" : "obj-3",
					"fontname" : "Arial",
					"outlettype" : [ "" ],
					"fontsize" : 12.0
				}

			}
, 			{
				"box" : 				{
					"maxclass" : "newobj",
					"text" : "<= 9",
					"numinlets" : 2,
					"numoutlets" : 1,
					"patching_rect" : [ 17.0, 278.0, 35.0, 20.0 ],
					"id" : "obj-9",
					"fontname" : "Arial",
					"outlettype" : [ "int" ],
					"fontsize" : 12.0
				}

			}
, 			{
				"box" : 				{
					"maxclass" : "newobj",
					"text" : "gate",
					"numinlets" : 2,
					"numoutlets" : 1,
					"patching_rect" : [ 17.0, 355.0, 34.0, 20.0 ],
					"id" : "obj-7",
					"fontname" : "Arial",
					"outlettype" : [ "" ],
					"fontsize" : 12.0
				}

			}
, 			{
				"box" : 				{
					"maxclass" : "newobj",
					"text" : "pack 0 0 0",
					"numinlets" : 3,
					"numoutlets" : 1,
					"patching_rect" : [ 350.0, 479.0, 79.0, 20.0 ],
					"id" : "obj-1",
					"fontname" : "Arial",
					"outlettype" : [ "" ],
					"fontsize" : 12.0
				}

			}
, 			{
				"box" : 				{
					"maxclass" : "newobj",
					"text" : "- 1",
					"numinlets" : 2,
					"numoutlets" : 1,
					"patching_rect" : [ 380.0, 431.0, 32.5, 20.0 ],
					"id" : "obj-4",
					"fontname" : "Arial",
					"outlettype" : [ "int" ],
					"fontsize" : 12.0
				}

			}
, 			{
				"box" : 				{
					"maxclass" : "newobj",
					"text" : "unpack 0 0 0",
					"numinlets" : 1,
					"numoutlets" : 3,
					"patching_rect" : [ 350.0, 389.0, 79.0, 20.0 ],
					"id" : "obj-6",
					"fontname" : "Arial",
					"outlettype" : [ "int", "int", "int" ],
					"fontsize" : 12.0
				}

			}
, 			{
				"box" : 				{
					"maxclass" : "outlet",
					"numinlets" : 1,
					"numoutlets" : 0,
					"patching_rect" : [ 499.0, 564.0, 25.0, 25.0 ],
					"id" : "obj-18",
					"comment" : "offscreen matrix output"
				}

			}
, 			{
				"box" : 				{
					"maxclass" : "newobj",
					"text" : "pack 0 0 0",
					"numinlets" : 3,
					"numoutlets" : 1,
					"patching_rect" : [ 499.0, 475.0, 80.0, 20.0 ],
					"id" : "obj-16",
					"fontname" : "Arial",
					"outlettype" : [ "" ],
					"fontsize" : 12.0
				}

			}
, 			{
				"box" : 				{
					"maxclass" : "newobj",
					"text" : "+ 1",
					"numinlets" : 2,
					"numoutlets" : 1,
					"patching_rect" : [ 530.0, 382.0, 32.5, 20.0 ],
					"id" : "obj-15",
					"fontname" : "Arial",
					"outlettype" : [ "int" ],
					"fontsize" : 12.0
				}

			}
, 			{
				"box" : 				{
					"maxclass" : "newobj",
					"text" : "unpack 0 0 0",
					"numinlets" : 1,
					"numoutlets" : 3,
					"patching_rect" : [ 500.0, 350.0, 79.0, 20.0 ],
					"id" : "obj-14",
					"fontname" : "Arial",
					"outlettype" : [ "int", "int", "int" ],
					"fontsize" : 12.0
				}

			}
, 			{
				"box" : 				{
					"maxclass" : "outlet",
					"numinlets" : 1,
					"numoutlets" : 0,
					"patching_rect" : [ 350.0, 560.0, 25.0, 25.0 ],
					"id" : "obj-13",
					"comment" : "led output"
				}

			}
, 			{
				"box" : 				{
					"maxclass" : "newobj",
					"text" : "r channel_led",
					"numinlets" : 0,
					"numoutlets" : 1,
					"patching_rect" : [ 350.0, 316.0, 83.0, 20.0 ],
					"id" : "obj-8",
					"fontname" : "Arial",
					"outlettype" : [ "" ],
					"fontsize" : 12.0
				}

			}
, 			{
				"box" : 				{
					"maxclass" : "newobj",
					"text" : "+ 1",
					"numinlets" : 2,
					"numoutlets" : 1,
					"patching_rect" : [ 58.0, 212.0, 32.5, 20.0 ],
					"id" : "obj-5",
					"fontname" : "Arial",
					"outlettype" : [ "int" ],
					"fontsize" : 12.0
				}

			}
, 			{
				"box" : 				{
					"maxclass" : "newobj",
					"text" : "t b i i",
					"numinlets" : 1,
					"numoutlets" : 3,
					"patching_rect" : [ 58.0, 242.0, 46.0, 20.0 ],
					"id" : "obj-23",
					"fontname" : "Futura Medium",
					"outlettype" : [ "bang", "int", "int" ],
					"fontsize" : 10.0
				}

			}
, 			{
				"box" : 				{
					"maxclass" : "newobj",
					"text" : "unpack 0 0 0",
					"numinlets" : 1,
					"numoutlets" : 3,
					"patching_rect" : [ 58.0, 182.0, 196.0, 20.0 ],
					"id" : "obj-25",
					"fontname" : "Futura Medium",
					"outlettype" : [ "int", "int", "int" ],
					"fontsize" : 10.0
				}

			}
, 			{
				"box" : 				{
					"maxclass" : "message",
					"text" : ";\rch7_input 2 1",
					"linecount" : 2,
					"numinlets" : 2,
					"numoutlets" : 1,
					"patching_rect" : [ 17.0, 398.0, 72.0, 31.0 ],
					"id" : "obj-31",
					"fontname" : "Futura Medium",
					"outlettype" : [ "" ],
					"fontsize" : 10.0
				}

			}
, 			{
				"box" : 				{
					"maxclass" : "newobj",
					"text" : "sprintf set \\; ch%s_input %s %s;\r",
					"linecount" : 2,
					"numinlets" : 3,
					"numoutlets" : 1,
					"patching_rect" : [ 86.0, 288.0, 141.0, 33.0 ],
					"id" : "obj-33",
					"fontname" : "Futura Medium",
					"outlettype" : [ "" ],
					"fontsize" : 10.0
				}

			}
, 			{
				"box" : 				{
					"maxclass" : "inlet",
					"numinlets" : 0,
					"numoutlets" : 1,
					"patching_rect" : [ 58.0, 74.0, 25.0, 25.0 ],
					"id" : "obj-2",
					"outlettype" : [ "" ],
					"comment" : "button press (y,x, val)"
				}

			}
 ],
		"lines" : [ 			{
				"patchline" : 				{
					"source" : [ "obj-29", 0 ],
					"destination" : [ "obj-34", 0 ],
					"hidden" : 0,
					"midpoints" : [  ]
				}

			}
, 			{
				"patchline" : 				{
					"source" : [ "obj-9", 0 ],
					"destination" : [ "obj-7", 0 ],
					"hidden" : 0,
					"midpoints" : [  ]
				}

			}
, 			{
				"patchline" : 				{
					"source" : [ "obj-23", 2 ],
					"destination" : [ "obj-9", 0 ],
					"hidden" : 0,
					"midpoints" : [ 94.5, 265.0, 26.5, 265.0 ]
				}

			}
, 			{
				"patchline" : 				{
					"source" : [ "obj-25", 2 ],
					"destination" : [ "obj-33", 2 ],
					"hidden" : 0,
					"midpoints" : [  ]
				}

			}
, 			{
				"patchline" : 				{
					"source" : [ "obj-25", 0 ],
					"destination" : [ "obj-5", 0 ],
					"hidden" : 0,
					"midpoints" : [  ]
				}

			}
, 			{
				"patchline" : 				{
					"source" : [ "obj-25", 1 ],
					"destination" : [ "obj-33", 1 ],
					"hidden" : 0,
					"midpoints" : [  ]
				}

			}
, 			{
				"patchline" : 				{
					"source" : [ "obj-5", 0 ],
					"destination" : [ "obj-23", 0 ],
					"hidden" : 0,
					"midpoints" : [  ]
				}

			}
, 			{
				"patchline" : 				{
					"source" : [ "obj-23", 1 ],
					"destination" : [ "obj-33", 0 ],
					"hidden" : 0,
					"midpoints" : [ 81.0, 271.0, 95.5, 271.0 ]
				}

			}
, 			{
				"patchline" : 				{
					"source" : [ "obj-23", 0 ],
					"destination" : [ "obj-7", 1 ],
					"hidden" : 0,
					"midpoints" : [ 67.5, 334.0, 41.5, 334.0 ]
				}

			}
, 			{
				"patchline" : 				{
					"source" : [ "obj-33", 0 ],
					"destination" : [ "obj-7", 1 ],
					"hidden" : 0,
					"midpoints" : [ 95.5, 343.0, 41.5, 343.0 ]
				}

			}
, 			{
				"patchline" : 				{
					"source" : [ "obj-7", 0 ],
					"destination" : [ "obj-31", 0 ],
					"hidden" : 0,
					"midpoints" : [  ]
				}

			}
, 			{
				"patchline" : 				{
					"source" : [ "obj-8", 0 ],
					"destination" : [ "obj-6", 0 ],
					"hidden" : 0,
					"midpoints" : [  ]
				}

			}
, 			{
				"patchline" : 				{
					"source" : [ "obj-6", 0 ],
					"destination" : [ "obj-1", 0 ],
					"hidden" : 0,
					"midpoints" : [  ]
				}

			}
, 			{
				"patchline" : 				{
					"source" : [ "obj-6", 1 ],
					"destination" : [ "obj-4", 0 ],
					"hidden" : 0,
					"midpoints" : [  ]
				}

			}
, 			{
				"patchline" : 				{
					"source" : [ "obj-4", 0 ],
					"destination" : [ "obj-1", 1 ],
					"hidden" : 0,
					"midpoints" : [  ]
				}

			}
, 			{
				"patchline" : 				{
					"source" : [ "obj-6", 2 ],
					"destination" : [ "obj-1", 2 ],
					"hidden" : 0,
					"midpoints" : [  ]
				}

			}
, 			{
				"patchline" : 				{
					"source" : [ "obj-8", 0 ],
					"destination" : [ "obj-14", 0 ],
					"hidden" : 0,
					"midpoints" : [ 359.5, 340.0, 509.5, 340.0 ]
				}

			}
, 			{
				"patchline" : 				{
					"source" : [ "obj-14", 1 ],
					"destination" : [ "obj-15", 0 ],
					"hidden" : 0,
					"midpoints" : [  ]
				}

			}
, 			{
				"patchline" : 				{
					"source" : [ "obj-14", 0 ],
					"destination" : [ "obj-16", 0 ],
					"hidden" : 0,
					"midpoints" : [  ]
				}

			}
, 			{
				"patchline" : 				{
					"source" : [ "obj-15", 0 ],
					"destination" : [ "obj-16", 1 ],
					"hidden" : 0,
					"midpoints" : [  ]
				}

			}
, 			{
				"patchline" : 				{
					"source" : [ "obj-14", 2 ],
					"destination" : [ "obj-16", 2 ],
					"hidden" : 0,
					"midpoints" : [  ]
				}

			}
, 			{
				"patchline" : 				{
					"source" : [ "obj-16", 0 ],
					"destination" : [ "obj-10", 0 ],
					"hidden" : 0,
					"midpoints" : [  ]
				}

			}
, 			{
				"patchline" : 				{
					"source" : [ "obj-10", 0 ],
					"destination" : [ "obj-18", 0 ],
					"hidden" : 0,
					"midpoints" : [  ]
				}

			}
, 			{
				"patchline" : 				{
					"source" : [ "obj-1", 0 ],
					"destination" : [ "obj-3", 0 ],
					"hidden" : 0,
					"midpoints" : [  ]
				}

			}
, 			{
				"patchline" : 				{
					"source" : [ "obj-3", 0 ],
					"destination" : [ "obj-13", 0 ],
					"hidden" : 0,
					"midpoints" : [  ]
				}

			}
, 			{
				"patchline" : 				{
					"source" : [ "obj-11", 0 ],
					"destination" : [ "obj-25", 0 ],
					"hidden" : 0,
					"midpoints" : [  ]
				}

			}
, 			{
				"patchline" : 				{
					"source" : [ "obj-2", 0 ],
					"destination" : [ "obj-11", 0 ],
					"hidden" : 0,
					"midpoints" : [  ]
				}

			}
, 			{
				"patchline" : 				{
					"source" : [ "obj-17", 0 ],
					"destination" : [ "obj-12", 0 ],
					"hidden" : 0,
					"midpoints" : [  ]
				}

			}
, 			{
				"patchline" : 				{
					"source" : [ "obj-19", 0 ],
					"destination" : [ "obj-20", 0 ],
					"hidden" : 0,
					"midpoints" : [  ]
				}

			}
, 			{
				"patchline" : 				{
					"source" : [ "obj-21", 0 ],
					"destination" : [ "obj-22", 0 ],
					"hidden" : 0,
					"midpoints" : [  ]
				}

			}
, 			{
				"patchline" : 				{
					"source" : [ "obj-12", 0 ],
					"destination" : [ "obj-27", 0 ],
					"hidden" : 0,
					"midpoints" : [  ]
				}

			}
, 			{
				"patchline" : 				{
					"source" : [ "obj-20", 0 ],
					"destination" : [ "obj-28", 0 ],
					"hidden" : 0,
					"midpoints" : [  ]
				}

			}
, 			{
				"patchline" : 				{
					"source" : [ "obj-22", 0 ],
					"destination" : [ "obj-29", 0 ],
					"hidden" : 0,
					"midpoints" : [  ]
				}

			}
, 			{
				"patchline" : 				{
					"source" : [ "obj-27", 0 ],
					"destination" : [ "obj-30", 0 ],
					"hidden" : 0,
					"midpoints" : [  ]
				}

			}
, 			{
				"patchline" : 				{
					"source" : [ "obj-28", 0 ],
					"destination" : [ "obj-32", 0 ],
					"hidden" : 0,
					"midpoints" : [  ]
				}

			}
 ]
	}

}
