{
	"patcher" : 	{
		"fileversion" : 1,
		"rect" : [ 493.0, 60.0, 640.0, 480.0 ],
		"bglocked" : 0,
		"defrect" : [ 493.0, 60.0, 640.0, 480.0 ],
		"openrect" : [ 0.0, 0.0, 0.0, 0.0 ],
		"openinpresentation" : 1,
		"default_fontsize" : 12.0,
		"default_fontface" : 0,
		"default_fontname" : "Arial",
		"gridonopen" : 0,
		"gridsize" : [ 15.0, 15.0 ],
		"gridsnaponopen" : 0,
		"toolbarvisible" : 1,
		"boxanimatetime" : 200,
		"imprint" : 0,
		"metadata" : [  ],
		"boxes" : [ 			{
				"box" : 				{
					"maxclass" : "bpatcher",
					"numinlets" : 1,
					"numoutlets" : 1,
					"presentation_rect" : [ 1.0, 0.0, 293.0, 59.0 ],
					"id" : "obj-9",
					"name" : "pattrMgr.maxpat",
					"outlettype" : [ "" ],
					"patching_rect" : [ 80.0, 57.0, 72.0, 20.0 ],
					"args" : [ 10 ],
					"presentation" : 1
				}

			}
, 			{
				"box" : 				{
					"maxclass" : "newobj",
					"text" : "prepend 10",
					"numinlets" : 1,
					"numoutlets" : 1,
					"id" : "obj-11",
					"fontsize" : 12.0,
					"outlettype" : [ "" ],
					"patching_rect" : [ 352.0, 304.0, 71.0, 20.0 ],
					"fontname" : "Arial"
				}

			}
, 			{
				"box" : 				{
					"maxclass" : "newobj",
					"text" : "pack 0 0 0",
					"numinlets" : 3,
					"numoutlets" : 1,
					"id" : "obj-6",
					"fontsize" : 12.0,
					"outlettype" : [ "" ],
					"patching_rect" : [ 352.0, 265.0, 79.0, 20.0 ],
					"fontname" : "Arial"
				}

			}
, 			{
				"box" : 				{
					"maxclass" : "newobj",
					"text" : "- 1",
					"numinlets" : 2,
					"numoutlets" : 1,
					"id" : "obj-7",
					"fontsize" : 12.0,
					"outlettype" : [ "int" ],
					"patching_rect" : [ 382.0, 217.0, 32.5, 20.0 ],
					"fontname" : "Arial"
				}

			}
, 			{
				"box" : 				{
					"maxclass" : "newobj",
					"text" : "unpack 0 0 0",
					"numinlets" : 1,
					"numoutlets" : 3,
					"id" : "obj-8",
					"fontsize" : 12.0,
					"outlettype" : [ "int", "int", "int" ],
					"patching_rect" : [ 352.0, 175.0, 79.0, 20.0 ],
					"fontname" : "Arial"
				}

			}
, 			{
				"box" : 				{
					"maxclass" : "newobj",
					"text" : "prepend 10",
					"numinlets" : 1,
					"numoutlets" : 1,
					"id" : "obj-17",
					"fontsize" : 12.0,
					"outlettype" : [ "" ],
					"patching_rect" : [ 501.0, 302.0, 71.0, 20.0 ],
					"fontname" : "Arial"
				}

			}
, 			{
				"box" : 				{
					"maxclass" : "newobj",
					"text" : "pack 0 0 0",
					"numinlets" : 3,
					"numoutlets" : 1,
					"id" : "obj-16",
					"fontsize" : 12.0,
					"outlettype" : [ "" ],
					"patching_rect" : [ 501.0, 261.0, 80.0, 20.0 ],
					"fontname" : "Arial"
				}

			}
, 			{
				"box" : 				{
					"maxclass" : "newobj",
					"text" : "+ 1",
					"numinlets" : 2,
					"numoutlets" : 1,
					"id" : "obj-15",
					"fontsize" : 12.0,
					"outlettype" : [ "int" ],
					"patching_rect" : [ 532.0, 168.0, 32.5, 20.0 ],
					"fontname" : "Arial"
				}

			}
, 			{
				"box" : 				{
					"maxclass" : "newobj",
					"text" : "unpack 0 0 0",
					"numinlets" : 1,
					"numoutlets" : 3,
					"id" : "obj-14",
					"fontsize" : 12.0,
					"outlettype" : [ "int", "int", "int" ],
					"patching_rect" : [ 502.0, 136.0, 79.0, 20.0 ],
					"fontname" : "Arial"
				}

			}
, 			{
				"box" : 				{
					"maxclass" : "newobj",
					"text" : "r pitch_led",
					"numinlets" : 0,
					"numoutlets" : 1,
					"id" : "obj-4",
					"fontsize" : 12.0,
					"outlettype" : [ "" ],
					"patching_rect" : [ 352.0, 82.0, 66.0, 20.0 ],
					"fontname" : "Arial"
				}

			}
, 			{
				"box" : 				{
					"maxclass" : "newobj",
					"text" : "+ 1",
					"numinlets" : 2,
					"numoutlets" : 1,
					"id" : "obj-5",
					"fontsize" : 12.0,
					"outlettype" : [ "int" ],
					"patching_rect" : [ 80.0, 160.0, 32.5, 20.0 ],
					"fontname" : "Arial"
				}

			}
, 			{
				"box" : 				{
					"maxclass" : "newobj",
					"text" : "t b i",
					"numinlets" : 1,
					"numoutlets" : 2,
					"id" : "obj-23",
					"fontsize" : 10.0,
					"outlettype" : [ "bang", "int" ],
					"patching_rect" : [ 80.0, 190.0, 32.5, 20.0 ],
					"fontname" : "Futura Medium"
				}

			}
, 			{
				"box" : 				{
					"maxclass" : "newobj",
					"text" : "unpack 0 0 0",
					"numinlets" : 1,
					"numoutlets" : 3,
					"id" : "obj-25",
					"fontsize" : 10.0,
					"outlettype" : [ "int", "int", "int" ],
					"patching_rect" : [ 80.0, 130.0, 201.0, 20.0 ],
					"fontname" : "Futura Medium"
				}

			}
, 			{
				"box" : 				{
					"maxclass" : "message",
					"text" : ";\rch7_input 2 1",
					"linecount" : 2,
					"numinlets" : 2,
					"numoutlets" : 1,
					"id" : "obj-31",
					"fontsize" : 10.0,
					"outlettype" : [ "" ],
					"patching_rect" : [ 39.0, 346.0, 72.0, 31.0 ],
					"fontname" : "Futura Medium"
				}

			}
, 			{
				"box" : 				{
					"maxclass" : "newobj",
					"text" : "sprintf set \\; ch%s_pitchmono %s %s;\r",
					"numinlets" : 3,
					"numoutlets" : 1,
					"id" : "obj-33",
					"fontsize" : 10.0,
					"outlettype" : [ "" ],
					"patching_rect" : [ 108.0, 236.0, 183.0, 20.0 ],
					"fontname" : "Futura Medium"
				}

			}
, 			{
				"box" : 				{
					"maxclass" : "outlet",
					"numinlets" : 1,
					"numoutlets" : 0,
					"id" : "obj-3",
					"patching_rect" : [ 501.0, 336.0, 25.0, 25.0 ],
					"comment" : ""
				}

			}
, 			{
				"box" : 				{
					"maxclass" : "outlet",
					"numinlets" : 1,
					"numoutlets" : 0,
					"id" : "obj-2",
					"patching_rect" : [ 352.0, 339.0, 25.0, 25.0 ],
					"comment" : ""
				}

			}
, 			{
				"box" : 				{
					"maxclass" : "inlet",
					"numinlets" : 0,
					"numoutlets" : 1,
					"id" : "obj-1",
					"outlettype" : [ "" ],
					"patching_rect" : [ 80.0, 8.0, 25.0, 25.0 ],
					"comment" : ""
				}

			}
 ],
		"lines" : [ 			{
				"patchline" : 				{
					"source" : [ "obj-23", 1 ],
					"destination" : [ "obj-33", 0 ],
					"hidden" : 0,
					"midpoints" : [ 103.0, 219.0, 117.5, 219.0 ]
				}

			}
, 			{
				"patchline" : 				{
					"source" : [ "obj-33", 0 ],
					"destination" : [ "obj-31", 0 ],
					"hidden" : 0,
					"midpoints" : [ 117.5, 331.0, 48.5, 331.0 ]
				}

			}
, 			{
				"patchline" : 				{
					"source" : [ "obj-25", 2 ],
					"destination" : [ "obj-33", 2 ],
					"hidden" : 0,
					"midpoints" : [  ]
				}

			}
, 			{
				"patchline" : 				{
					"source" : [ "obj-25", 1 ],
					"destination" : [ "obj-33", 1 ],
					"hidden" : 0,
					"midpoints" : [  ]
				}

			}
, 			{
				"patchline" : 				{
					"source" : [ "obj-25", 0 ],
					"destination" : [ "obj-5", 0 ],
					"hidden" : 0,
					"midpoints" : [  ]
				}

			}
, 			{
				"patchline" : 				{
					"source" : [ "obj-23", 0 ],
					"destination" : [ "obj-31", 0 ],
					"hidden" : 0,
					"midpoints" : [ 89.5, 331.0, 48.5, 331.0 ]
				}

			}
, 			{
				"patchline" : 				{
					"source" : [ "obj-5", 0 ],
					"destination" : [ "obj-23", 0 ],
					"hidden" : 0,
					"midpoints" : [  ]
				}

			}
, 			{
				"patchline" : 				{
					"source" : [ "obj-14", 2 ],
					"destination" : [ "obj-16", 2 ],
					"hidden" : 0,
					"midpoints" : [  ]
				}

			}
, 			{
				"patchline" : 				{
					"source" : [ "obj-15", 0 ],
					"destination" : [ "obj-16", 1 ],
					"hidden" : 0,
					"midpoints" : [  ]
				}

			}
, 			{
				"patchline" : 				{
					"source" : [ "obj-14", 0 ],
					"destination" : [ "obj-16", 0 ],
					"hidden" : 0,
					"midpoints" : [  ]
				}

			}
, 			{
				"patchline" : 				{
					"source" : [ "obj-14", 1 ],
					"destination" : [ "obj-15", 0 ],
					"hidden" : 0,
					"midpoints" : [  ]
				}

			}
, 			{
				"patchline" : 				{
					"source" : [ "obj-8", 2 ],
					"destination" : [ "obj-6", 2 ],
					"hidden" : 0,
					"midpoints" : [  ]
				}

			}
, 			{
				"patchline" : 				{
					"source" : [ "obj-7", 0 ],
					"destination" : [ "obj-6", 1 ],
					"hidden" : 0,
					"midpoints" : [  ]
				}

			}
, 			{
				"patchline" : 				{
					"source" : [ "obj-8", 1 ],
					"destination" : [ "obj-7", 0 ],
					"hidden" : 0,
					"midpoints" : [  ]
				}

			}
, 			{
				"patchline" : 				{
					"source" : [ "obj-8", 0 ],
					"destination" : [ "obj-6", 0 ],
					"hidden" : 0,
					"midpoints" : [  ]
				}

			}
, 			{
				"patchline" : 				{
					"source" : [ "obj-6", 0 ],
					"destination" : [ "obj-11", 0 ],
					"hidden" : 0,
					"midpoints" : [  ]
				}

			}
, 			{
				"patchline" : 				{
					"source" : [ "obj-11", 0 ],
					"destination" : [ "obj-2", 0 ],
					"hidden" : 0,
					"midpoints" : [  ]
				}

			}
, 			{
				"patchline" : 				{
					"source" : [ "obj-16", 0 ],
					"destination" : [ "obj-17", 0 ],
					"hidden" : 0,
					"midpoints" : [  ]
				}

			}
, 			{
				"patchline" : 				{
					"source" : [ "obj-17", 0 ],
					"destination" : [ "obj-3", 0 ],
					"hidden" : 0,
					"midpoints" : [  ]
				}

			}
, 			{
				"patchline" : 				{
					"source" : [ "obj-4", 0 ],
					"destination" : [ "obj-8", 0 ],
					"hidden" : 0,
					"midpoints" : [  ]
				}

			}
, 			{
				"patchline" : 				{
					"source" : [ "obj-4", 0 ],
					"destination" : [ "obj-14", 0 ],
					"hidden" : 0,
					"midpoints" : [ 361.5, 110.0, 511.5, 110.0 ]
				}

			}
, 			{
				"patchline" : 				{
					"source" : [ "obj-9", 0 ],
					"destination" : [ "obj-25", 0 ],
					"hidden" : 0,
					"midpoints" : [  ]
				}

			}
, 			{
				"patchline" : 				{
					"source" : [ "obj-1", 0 ],
					"destination" : [ "obj-9", 0 ],
					"hidden" : 0,
					"midpoints" : [  ]
				}

			}
 ]
	}

}
